<ttFont>
<head>
    <!-- Most of this table will be recalculated by the compiler -->
    <tableVersion value="1.0"/>
    <fontRevision value="1.0"/>
    <checkSumAdjustment value="0xf0556f96"/>
    <magicNumber value="0x5f0f3cf5"/>
    <flags value="00000000 00000011"/>
    <unitsPerEm value="2048"/>
    <created value="Thu Aug 15 19:15:21 2019"/>
    <modified value="Fri Aug 16 02:19:01 2019"/>
    <xMin value="-482"/>
    <yMin value="-526"/>
    <xMax value="3494"/>
    <yMax value="2015"/>
<macStyle value="00000000 00000011"/>
    <lowestRecPPEM value="3"/>
    <fontDirectionHint value="2"/>
    <indexToLocFormat value="0"/>
    <glyphDataFormat value="0"/>
  </head>
          <CharString index="0">
            150 124 96 175 -66 callsubr
            117 hhcurveto
            return
          </CharString>
          <CharString index="1">
            56 hvcurveto
            14 69 rlineto
            -23 return
          </CharString>
          <CharString index="2">
            rmoveto
            -236 118 -138 166 return
          </CharString>
          <CharString index="3">
            rmoveto
            -34 callsubr
            32 callsubr
            endchar
          </CharString>
          <CharString index="4">
            -225 -47 87 -135 -49 callgsubr
            return
          </CharString>
          <CharString index="5">
            44 callsubr
            26 callsubr
            endchar
          </CharString>
          <CharString index="6">
            114 118 54 73 return
          </CharString>
          <CharString index="7">
            -30 -39 -13 -33 hhcurveto
            -49 return
          </CharString>
          <CharString index="8">
            144 callsubr
            endchar
          </CharString>
          <CharString index="9">
            rmoveto
            351 235 266 325 266 113 callsubr
            68 callsubr
            163 callsubr
            endchar
          </CharString>
          <CharString index="10">
            -2 -9 -12 -34 callgsubr
            return
          </CharString>
          <CharString index="11">
            1507 rmoveto
            -223 return
          </CharString>
          <CharString index="12">
            rmoveto
            53 callgsubr
            119 -16 15 -22 -19 -91 rlinecurve
            -224 -1052 -20 -91 -23 -19 -126 -19 rlinecurve
            -14 -67 624 0 14 67 return
          </CharString>
          <CharString index="13">
            rmoveto
            -1080 hlineto
            -14 -67 118 -19 16 -46 callsubr
            -6 callsubr
            -48 callsubr
            endchar
          </CharString>
          <CharString index="14">
            50 -15 10 -19 -12 -57 -96 -453 rcurveline
            return
          </CharString>
          <CharString index="15">
            rmoveto
            -455 -54 -14 -65 60 -15 rlineto
            return
          </CharString>
          <CharString index="16">
            28 callsubr
            endchar
          </CharString>
          <CharString index="17">
            -90 callgsubr
            endchar
          </CharString>
          <CharString index="18">
            0 callsubr
            endchar
          </CharString>
          <CharString index="19">
            rmoveto
            -457 -53 -13 -65 60 -15 rlineto
            49 -15 10 -19 return
          </CharString>
          <CharString index="20">
            rmoveto
            342 213 218 355 79 hvcurveto
            139 620 36 157 23 32 126 21 rlinecurve
            14 67 -404 0 -15 -67 rlineto
            130 204 callsubr
            endchar
          </CharString>
          <CharString index="21">
            -11 -57 -119 -556 14 callsubr
            119 117 54 73 57 hvcurveto
            14 69 rlineto
            -23 -28 10 callsubr
            endchar
          </CharString>
          <CharString index="22">
            1538 rmoveto
            -27 callgsubr
            return
          </CharString>
          <CharString index="23">
            1126 rmoveto
            272 190 return
          </CharString>
          <CharString index="24">
            -383 85 0 480 373 rlineto
            10 vlineto
            return
          </CharString>
          <CharString index="25">
            73 56 hvcurveto
            15 69 rlineto
            -23 return
          </CharString>
          <CharString index="26">
            1833 rmoveto
            -193 return
          </CharString>
          <CharString index="27">
            rmoveto
            -407 -52 -14 -66 51 -11 54 -16 13 -16 5 -55 rlinecurve
            92 -921 -114 -101 -200 -137 -135 -82 rlinecurve
            -20 311 vlineto
            77 105 75 96 78 95 rrcurveto
            70 82 76 91 64 79 284 360 144 269 -1 146 -2 99 -69 65 -92 -1 -88 0 -71 -65 1 -89 2 -85 68 -67 85 1 12 0 12 1 11 2 -49 -162 -118 -189 -172 -223 rrcurveto
            endchar
          </CharString>
          <CharString index="28">
            78 callsubr
            -61 59 -81 -85 -68 -64 -81 vhcurveto
            -75 1 61 -59 81 hhcurveto
            endchar
          </CharString>
          <CharString index="29">
            rmoveto
            -78 -63 -61 -75 -71 55 -56 74 78 12 callsubr
          </CharString>
          <CharString index="30">
            -383 86 0 480 373 rlineto
            10 vlineto
            return
          </CharString>
          <CharString index="31">
            -295 11 callsubr
            return
          </CharString>
          <CharString index="32">
            rmoveto
            180 -537 -95 153 callsubr
            125 163 37 30 104 17 rlinecurve
            14 67 -403 0 -14 -67 127 -17 6 174 callsubr
            42 callgsubr
            endchar
          </CharString>
          <CharString index="33">
            rmoveto
            -464 hlineto
            -14 -67 119 -15 20 -56 -23 -106 rlinecurve
            -201 -909 -36 -168 -27 -36 -125 -19 rlinecurve
            -14 -68 407 0 14 68 -130 20 return
          </CharString>
          <CharString index="34">
            1 rlinecurve
            -74 -59 24 66 -110 hvcurveto
            -80 49 560 587 return
          </CharString>
          <CharString index="35">
            1217 rmoveto
            609 hlineto
            37 174 rlineto
            -609 hlineto
            return
          </CharString>
          <CharString index="36">
            1156 rmoveto
            96 77 76 93 88 return
          </CharString>
          <CharString index="37">
            -67 127 154 54 -36 rlineto
            -89 return
          </CharString>
          <CharString index="38">
            -55 56 -74 -78 -63 -61 return
          </CharString>
          <CharString index="39">
            -456 -47 -14 -65 61 -15 50 -15 10 -20 -12 -56 rlinecurve
            -271 -1273 return
          </CharString>
          <CharString index="40">
            -447 -53 -14 -65 61 -15 49 -15 10 -19 -12 -57 rlinecurve
            return
          </CharString>
          <CharString index="41">
            59 vhcurveto
            -2 -10 -9 -50 -9 vvcurveto
            -132 -16 60 -65 return
          </CharString>
          <CharString index="42">
            -29 -40 -13 -33 hhcurveto
            -48 -20 33 70 return
          </CharString>
          <CharString index="43">
            1847 rmoveto
            -239 -141 return
          </CharString>
          <CharString index="44">
            1505 rmoveto
            -321 -9 hlineto
            return
          </CharString>
          <CharString index="45">
            151 124 96 175 return
          </CharString>
          <CharString index="46">
            -76 -71 56 -56 74 hvcurveto
            return
          </CharString>
          <CharString index="47">
            hhcurveto
            119 115 54 return
          </CharString>
          <CharString index="48">
            rmoveto
            324 99 282 -99 14 68 -236 59 callsubr
            return
          </CharString>
          <CharString index="49">
            130 73 -21 callgsubr
            101 hvcurveto
            -47 40 -47 -77 return
          </CharString>
          <CharString index="50">
            -378 57 119 callsubr
            170 callsubr
            return
          </CharString>
          <CharString index="51">
            -130 294 -180 0 -250 -294 rlineto
            return
          </CharString>
          <CharString index="52">
            rmoveto
            164 94 71 113 109 return
          </CharString>
          <CharString index="53">
            1833 rmoveto
            -194 -295 return
          </CharString>
          <CharString index="54">
            1553 rmoveto
            77 63 61 return
          </CharString>
          <CharString index="55">
            -53 callsubr
            76 71 return
          </CharString>
          <CharString index="56">
            -651 -210 -14 -66 rlineto
            return
          </CharString>
          <CharString index="57">
            rmoveto
            -128 76 -114 161 -49 vhcurveto
            -174 -30 -87 -82 -103 vvcurveto
            -80 51 -64 102 -34 vhcurveto
            -203 -25 -115 -76 -104 vvcurveto
            -143 201 -88 286 303 238 129 208 150 -102 102 -214 37 vhcurveto
            -184 32 -92 17 -28 28 -1 35 rlinecurve
            35 30 28 53 13 vhcurveto
            -7 37 41 -3 44 hhcurveto
            301 -1 176 165 206 vvcurveto
            74 -25 70 -55 56 vhcurveto
            227 -33 23 110 -343 -13 rlineto
            30 -64 -83 18 -105 hhcurveto
            -297 -1 -178 -155 -210 vvcurveto
            300 -54 rmoveto
            153 62 191 117 81 41 -74 -112 -156 -63 -188 -116 -81 -41 75 111 vhcurveto
            -253 -808 rmoveto
            76 53 57 100 28 vhcurveto
            1 -1 179 -30 rlineto
            147 -26 47 -46 -71 vvcurveto
            -96 -112 -67 -156 -158 -101 73 103 vhcurveto
            endchar
          </CharString>
          <CharString index="58">
            rmoveto
            432 222 387 305 191 110 -132 -263 8 vhcurveto
            61 -2 64 360 rlineto
            68 -93 -186 64 -216 hhcurveto
            -482 -347 -328 -491 -4 hvcurveto
            return
          </CharString>
          <CharString index="59">
            132 621 185 -3 107 -3 21 -44 -4 -164 rlinecurve
            58 hlineto
            106 497 rlineto
            -58 81 callgsubr
            185 -8 238 -11 50 -55 12 -239 rlinecurve
            61 hlineto
            return
          </CharString>
          <CharString index="60">
            rmoveto
            186 145 101 163 28 hvcurveto
            -76 hlineto
            -63 -19 -102 -42 -128 hhcurveto
            -128 -85 42 63 return
          </CharString>
          <CharString index="61">
            -19 -20 -91 rlinecurve
            -224 -1052 -104 callgsubr
            return
          </CharString>
          <CharString index="62">
            777 1491 93 callsubr
            return
          </CharString>
          <CharString index="63">
            55 callsubr
            38 -28 -45 -45 return
          </CharString>
          <CharString index="64">
            1565 rmoveto
            69 57 56 69 return
          </CharString>
          <CharString index="65">
            315 0 216 callsubr
            return
          </CharString>
          <CharString index="66">
            63 60 45 63 13 hvcurveto
            63 14 return
          </CharString>
          <CharString index="67">
            1502 rmoveto
            38 178 return
          </CharString>
          <CharString index="68">
            353 -105 callsubr
            return
          </CharString>
          <CharString index="69">
            327 -373 rlineto
            78 hlineto
            return
          </CharString>
          <CharString index="70">
            hvcurveto
            -63 -13 40 -45 63 hhcurveto
            return
          </CharString>
          <CharString index="71">
            rmoveto
            -4 -447 329 -229 357 -1 rrcurveto
            171 205 47 82 115 hvcurveto
            87 407 18 85 21 23 114 16 rlinecurve
            14 67 -571 0 -14 -67 rlineto
            125 -17 12 -20 -18 -87 -83 -401 rcurveline
            -27 -35 -64 -14 -63 hhcurveto
            -207 -141 180 308 432 222 387 307 192 111 -132 -263 9 hvcurveto
            61 -2 63 360 rlineto
            68 -94 -186 64 -217 hhcurveto
            -483 -349 -328 -491 -4 hvcurveto
            endchar
          </CharString>
          <CharString index="72">
            rmoveto
            -409 -52 -14 -66 51 -11 rlineto
            53 -15 14 -17 4 -51 60 -810 rcurveline
            210 hlineto
            150 195 120 211 64 170 33 -576 rcurveline
            206 hlineto
            283 302 267 370 193 vvcurveto
            99 -69 65 -91 -90 -71 -63 -89 -85 67 -68 85 9 10 1 1 8 vhcurveto
            -56 -177 -127 -189 -150 -174 rrcurveto
            -43 835 -293 -46 7 -136 -2 -190 -117 -233 -124 -201 rlinecurve
            endchar
          </CharString>
          <CharString index="73">
            -148 1175 -241 0 -639 -1155 -101 -180 -35 -30 -108 -17 rlinecurve
            -14 -67 419 0 14 67 -135 22 -16 35 88 168 rlinecurve
            102 194 438 0 22 -210 return
          </CharString>
          <CharString index="74">
            1344 1585 1444 rmoveto
            -1215 hlineto
            39 callsubr
            110 callsubr
            661 0 14 67 -135 98 callsubr
            return
          </CharString>
          <CharString index="75">
            56 38 54 11 hvcurveto
            53 12 -40 39 -60 hhcurveto
            -11 hlineto
            -60 -56 -39 -53 -12 hvcurveto
            -54 -11 39 -38 60 hhcurveto
            return
          </CharString>
          <CharString index="76">
            66 callsubr
            -182 190 -80 0 131 -381 199 0 289 381 rlineto
            return
          </CharString>
          <CharString index="77">
            112 460 rlineto
            -61 hlineto
            -121 -281 -111 -83 -226 -12 rrcurveto
            -164 -6 return
          </CharString>
          <CharString index="78">
            1831 rmoveto
            -281 -8 hlineto
            301 -286 rlineto
            65 hlineto
            return
          </CharString>
          <CharString index="79">
            76 71 -56 56 -73 -78 -63 -61 -76 -71 55 -56 75 hvcurveto
            return
          </CharString>
          <CharString index="80">
            155 callsubr
            323 -20 rmoveto
            13 callgsubr
            return
          </CharString>
          <CharString index="81">
            -77 0 130 -293 190 0 249 293 rlineto
            return
          </CharString>
          <CharString index="82">
            1847 rmoveto
            -240 -141 -172 141 return
          </CharString>
          <CharString index="83">
            1174 rmoveto
            37 callsubr
            436 hmoveto
            return
          </CharString>
          <CharString index="84">
            rmoveto
            113 85 65 121 25 hvcurveto
            -78 hlineto
            return
          </CharString>
          <CharString index="85">
            1642 822 30 callsubr
            return
          </CharString>
          <CharString index="86">
            1517 rmoveto
            -106 -82 -44 -73 -48 hvcurveto
            return
          </CharString>
          <CharString index="87">
            -172 141 -78 0 130 -293 return
          </CharString>
          <CharString index="88">
            182 -190 80 117 callsubr
            return
          </CharString>
          <CharString index="89">
            rmoveto
            -78 -62 -61 -75 -71 55 -56 74 77 return
          </CharString>
          <CharString index="90">
            74 callsubr
            69 -69 91 hvcurveto
            return
          </CharString>
          <CharString index="91">
            rmoveto
            85 67 65 80 hvcurveto
            75 -1 return
          </CharString>
          <CharString index="92">
            rmoveto
            111 -1175 228 0 546 1088 87 -1088 236 0 585 1149 97 190 42 27 106 16 rlinecurve
            14 67 -413 0 -14 -67 126 -16 11 -38 -81 -173 rlinecurve
            -399 -844 -57 860 -11 163 17 28 127 20 rlinecurve
            14 67 -610 0 -14 -67 124 -17 9 -55 -70 -149 rlinecurve
            -400 -850 -58 862 -10 151 21 39 132 19 rlinecurve
            14 67 -635 0 -14 -67 92 -15 31 -28 16 -164 rlinecurve
            endchar
          </CharString>
          <CharString index="93">
            rmoveto
            107 501 107 0 241 -697 406 0 13 64 -57 24 -33 38 -77 216 rlinecurve
            -209 605 234 208 174 152 70 47 119 23 rlinecurve
            14 67 -456 0 -15 -67 128 -18 4 -47 -127 -125 rlinecurve
            -413 -407 -106 0 100 468 19 91 23 20 118 18 rlinecurve
            14 67 -615 -35 callgsubr
            -224 -1052 -104 callgsubr
            615 0 14 67 -110 17 -14 21 19 91 rlinecurve
            endchar
          </CharString>
          <CharString index="94">
            -24 -20 -121 -17 rlinecurve
            -15 -67 620 0 15 67 -118 18 -17 20 20 92 rlinecurve
            223 1050 20 91 24 21 126 18 rlinecurve
            15 67 -621 0 -14 -67 113 -17 16 -20 -19 -92 rlinecurve
            -100 -468 -542 0 99 468 19 91 25 20 121 18 rlinecurve
            14 67 -620 0 -15 -67 119 -19 16 -20 -19 -91 rlinecurve
            -224 -1050 -20 -90 -23 -21 -127 -19 rlinecurve
            -14 -67 return
          </CharString>
          <CharString index="95">
            248 1171 19 90 25 19 132 19 rlinecurve
            15 67 -631 0 -15 -67 rlineto
            117 -18 16 -25 -22 -102 -220 -1036 rcurveline
            -19 -90 -23 -20 -127 -19 -14 -67 rcurveline
            return
          </CharString>
          <CharString index="96">
            rmoveto
            -456 -53 -14 -65 61 -15 49 -15 10 -19 -12 -57 rlinecurve
            -155 -732 -57 -266 -47 -117 -181 -93 rlinecurve
            20 -61 341 87 171 142 67 314 rlinecurve
            endchar
          </CharString>
          <CharString index="97">
            -143 -29 hvcurveto
            76 hlineto
            55 13 31 23 48 hhcurveto
            28 28 -8 -14 37 hvcurveto
            33 -12 rlineto
            -17 43 return
          </CharString>
          <CharString index="98">
            45 63 13 hvcurveto
            63 14 -41 46 73 callsubr
            return
          </CharString>
          <CharString index="99">
            1236 672 1017 -92 callsubr
            -93 callsubr
            return
          </CharString>
          <CharString index="100">
            -46 -10 -32 -20 -49 hhcurveto
            -29 -29 7 12 -38 hvcurveto
            -35 11 rlineto
            13 -44 -46 11 -51 hhcurveto
            -112 -87 -65 -121 -24 hvcurveto
            return
          </CharString>
          <CharString index="101">
            1129 0 55 callgsubr
            return
          </CharString>
          <CharString index="102">
            rmoveto
            162 144 73 97 65 hvcurveto
            15 70 rlineto
            142 callsubr
            -289 193 -147 218 hvcurveto
            endchar
          </CharString>
          <CharString index="103">
            1164 rmoveto
            91 74 72 88 84 -65 66 -87 -91 -75 -72 -90 -82 66 -66 87 hvcurveto
            return
          </CharString>
          <CharString index="104">
            1608 574 196 rmoveto
            107 500 542 0 -106 -500 -19 -92 return
          </CharString>
          <CharString index="105">
            364 hmoveto
            -41 callsubr
            -41 46 -63 hhcurveto
            -12 hlineto
            -62 -61 -46 -63 return
          </CharString>
          <CharString index="106">
            1193 1122 hmoveto
            -30 callsubr
            -12 callsubr
            return
          </CharString>
          <CharString index="107">
            -19 33 70 14 hvcurveto
            165 770 2 callgsubr
            return
          </CharString>
          <CharString index="108">
            rmoveto
            252 171 171 -171 93 callgsubr
          </CharString>
          <CharString index="109">
            70 57 56 69 65 -49 51 -67 -70 -57 -55 -71 -64 return
          </CharString>
          <CharString index="110">
            1166 rmoveto
            103 1 83 72 31 250 rrcurveto
            return
          </CharString>
          <CharString index="111">
            293 -84 12 58 -250 60 callsubr
            return
          </CharString>
          <CharString index="112">
            rmoveto
            567 hlineto
            33 156 rlineto
            -566 hlineto
            endchar
          </CharString>
          <CharString index="113">
            rmoveto
            566 hlineto
            34 156 rlineto
            -567 hlineto
            endchar
          </CharString>
          <CharString index="114">
            rmoveto
            163 94 71 113 109 -83 65 -99 return
          </CharString>
          <CharString index="115">
            hvcurveto
            65 1 -50 52 -66 hhcurveto
            -70 -57 -56 -70 return
          </CharString>
          <CharString index="116">
            rmoveto
            63 61 45 63 13 hvcurveto
            63 13 -40 46 return
          </CharString>
          <CharString index="117">
            -41 -13 -33 hhcurveto
            -48 -20 33 70 15 hvcurveto
            return
          </CharString>
          <CharString index="118">
            72 0 424 287 rlineto
            8 vlineto
            return
          </CharString>
          <CharString index="119">
            63 61 76 71 -55 55 -74 hvcurveto
            endchar
          </CharString>
          <CharString index="120">
            -12 -33 hhcurveto
            -48 -20 32 70 15 hvcurveto
            return
          </CharString>
          <CharString index="121">
            rcurveline
            -173 -37 63 -79 139 hhcurveto
            return
          </CharString>
          <CharString index="122">
            -451 -4 108 callgsubr
          </CharString>
          <CharString index="123">
            -14 hvcurveto
            -63 -13 41 -45 63 hhcurveto
            return
          </CharString>
          <CharString index="124">
            -59 rlineto
            23 30 47 16 50 hhcurveto
            return
          </CharString>
          <CharString index="125">
            rmoveto
            191 145 86 138 return
          </CharString>
          <CharString index="126">
            423 287 rlineto
            8 vlineto
            return
          </CharString>
          <CharString index="127">
            175 -39 callsubr
            return
          </CharString>
          <CharString index="128">
            rmoveto
            -149 -178 -50 -34 -115 -18 rrcurveto
            -15 -67 430 0 14 67 -129 22 -1 38 118 154 rlinecurve
            255 328 136 -363 45 -116 -14 -39 -127 -22 rlinecurve
            -14 -68 649 0 14 68 -86 26 -31 28 -50 132 rlinecurve
            -193 516 319 380 145 174 51 34 115 18 rlinecurve
            14 67 -429 0 -14 -67 130 -22 1 -38 -119 -154 rlinecurve
            -242 -315 -132 351 -47 122 17 35 126 21 rlinecurve
            14 67 -653 0 -14 -67 rlineto
            91 -25 31 -29 49 -133 189 -504 rcurveline
            endchar
          </CharString>
          <CharString index="129">
            378 hlineto
            14 64 rlineto
            -62 21 -34 44 -71 192 -129 366 rcurveline
            206 61 150 123 205 vvcurveto
            234 -200 134 -381 vhcurveto
            -569 hlineto
            -14 -67 119 -16 16 67 callgsubr
            617 0 14 67 rlineto
            -110 17 -14 20 19 91 95 445 rcurveline
            122 hlineto
            13 13 0 1 14 hvcurveto
            328 438 rmoveto
            -202 -137 -146 -251 -11 vhcurveto
            -86 -3 138 648 72 -3 rlineto
            168 -6 96 -105 -172 vvcurveto
            return
          </CharString>
          <CharString index="130">
            rmoveto
            -463 -99 261 -190 322 hhcurveto
            341 215 218 355 78 hvcurveto
            187 845 rlineto
            -4 21 23 -2 24 hhcurveto
            160 1 109 77 131 vvcurveto
            95 -59 82 -77 38 vhcurveto
            -65 hlineto
            9 -16 4 -28 -29 vvcurveto
            -162 -110 -131 -209 vhcurveto
            -79 hlineto
            -14 -67 rlineto
            129 -23 12 -31 -29 -140 -128 -624 rcurveline
            -281 -58 -161 -152 -206 hhcurveto
            -207 -91 callgsubr
            3 callgsubr
            endchar
          </CharString>
          <CharString index="131">
            14 67 rlineto
            -136 17 -17 25 19 87 78 365 rcurveline
            152 hlineto
            404 304 160 311 241 -173 171 -419 hvcurveto
            -566 hlineto
            -14 -67 rlineto
            120 -16 16 -23 -20 -89 -224 -1054 rcurveline
            -20 -89 -23 -22 -128 -17 -14 -67 rcurveline
            775 1366 rmoveto
            67 -3 rlineto
            172 -8 96 -111 -179 vvcurveto
            -256 -161 -157 -243 -10 vhcurveto
            -85 -4 rlineto
            endchar
          </CharString>
          <CharString index="132">
            rmoveto
            -503 hlineto
            -15 -67 118 -19 17 -39 -29 -119 rlinecurve
            -220 -916 -40 -161 -28 -37 -129 -19 rlinecurve
            -14 -67 410 0 14 67 -127 19 -12 34 37 165 rlinecurve
            195 915 162 -1200 170 0 208 406 441 812 -188 -1026 -16 -87 -24 -20 -128 -18 rlinecurve
            -14 -67 620 0 -12 callgsubr
            endchar
          </CharString>
          <CharString index="133">
            14 hvcurveto
            163 757 -185 0 -125 -109 rlineto
            67 -27 -80 62 -136 hhcurveto
            -311 -215 -306 -365 hvcurveto
            322 -20 rmoveto
            238 1 92 341 193 hhcurveto
            65 44 -34 -40 12 hvcurveto
            -100 -468 rlineto
            -154 -37 -19 callgsubr
            return
          </CharString>
          <CharString index="134">
            103 425 rlineto
            -61 hlineto
            -112 -267 -115 -60 -282 -12 rrcurveto
            -228 -8 974 1302 14 64 -1047 0 -96 -391 rlineto
            62 hlineto
            107 232 79 60 257 11 rrcurveto
            233 10 -974 -1302 -13 -64 rlineto
            return
          </CharString>
          <CharString index="135">
            rmoveto
            162 142 72 98 67 hvcurveto
            14 70 rlineto
            148 callsubr
            -288 193 -147 215 vhcurveto
            151 961 rmoveto
            60 26 -40 -65 -133 -104 -127 -171 -55 hvcurveto
            -45 -15 rlineto
            234 10 93 201 131 hhcurveto
            return
          </CharString>
          <CharString index="136">
            rmoveto
            -456 -53 -13 -65 60 -15 rlineto
            49 -16 10 -19 -12 -56 -96 -454 rcurveline
            -224 -46 86 -136 -49 callgsubr
            -2 -9 -11 -56 -9 vvcurveto
            -132 -16 60 190 callsubr
            endchar
          </CharString>
          <CharString index="137">
            rmoveto
            391 -1 -299 231 -447 hhcurveto
            -537 -75 callgsubr
            -19 -19 -91 -224 -1052 rcurveline
            -20 -91 -82 callgsubr
            558 hlineto
            590 443 324 498 hvcurveto
            return
          </CharString>
          <CharString index="138">
            1164 rmoveto
            92 73 72 88 84 -65 -37 callgsubr
            return
          </CharString>
          <CharString index="139">
            15 -148 -27 -41 -138 -19 rlinecurve
            -14 -68 649 0 -23 callgsubr
            -767 301 rmoveto
            319 609 63 -609 rlineto
            return
          </CharString>
          <CharString index="140">
            -188 -116 -93 -121 vhcurveto
            191 -28 rmoveto
            95 50 79 60 46 27 -34 -63 -95 -50 -79 -60 -46 -27 35 62 vhcurveto
            return
          </CharString>
          <CharString index="141">
            78 callgsubr
            334 hmoveto
            69 57 56 69 8 callsubr
            -1 hvcurveto
            -65 50 -51 67 vhcurveto
            return
          </CharString>
          <CharString index="142">
            rmoveto
            85 68 65 80 hvcurveto
            75 -1 -61 59 -80 hhcurveto
            -85 -69 -64 -81 1 hvcurveto
            -75 61 -59 81 vhcurveto
            endchar
          </CharString>
          <CharString index="143">
            rmoveto
            -382 -3 258 -277 409 hhcurveto
            -89 callgsubr
            188 callsubr
            endchar
          </CharString>
          <CharString index="144">
            86 69 67 83 79 -61 61 -82 -86 -70 -67 -84 -78 62 -61 82 hvcurveto
            return
          </CharString>
          <CharString index="145">
            -13 -31 -23 -48 hhcurveto
            -28 -28 8 14 -37 hvcurveto
            -33 13 rlineto
            16 -43 -44 return
          </CharString>
          <CharString index="146">
            -95 -391 rlineto
            62 hlineto
            94 226 86 70 233 15 rrcurveto
            42 2 return
          </CharString>
          <CharString index="147">
            -457 -53 -13 -65 60 -15 rlineto
            49 -15 10 -19 -11 -57 -119 return
          </CharString>
          <CharString index="148">
            107 500 542 0 -106 -500 -19 -92 -13 callsubr
            return
          </CharString>
          <CharString index="149">
            -50 -31 49 121 -1 hvcurveto
            253 -2 79 248 103 hhcurveto
            50 return
          </CharString>
          <CharString index="150">
            177 -96 163 -193 -261 -126 -237 -218 return
          </CharString>
          <CharString index="151">
            119 115 54 -82 callsubr
            -65 callsubr
            return
          </CharString>
          <CharString index="152">
            rmoveto
            -78 -63 -61 -75 -71 56 -56 73 78 12 callsubr
          </CharString>
          <CharString index="153">
            1605 rmoveto
            549 hlineto
            32 152 rlineto
            -549 hlineto
            return
          </CharString>
          <CharString index="154">
            1893 rmoveto
            -191 -108 -132 -191 return
          </CharString>
          <CharString index="155">
            79 hlineto
            47 10 31 20 49 hhcurveto
            29 30 -7 -12 return
          </CharString>
          <CharString index="156">
            -38 -27 -65 -52 -45 16 23 -44 callgsubr
          </CharString>
          <CharString index="157">
            -55 -132 hhcurveto
            -108 -74 53 73 8 0 7 return
          </CharString>
          <CharString index="158">
            hhcurveto
            -131 -88 36 53 5 hvcurveto
            -78 hlineto
            -138 return
          </CharString>
          <CharString index="159">
            rmoveto
            68 callsubr
            182 callsubr
            endchar
          </CharString>
          <CharString index="160">
            rmoveto
            621 hlineto
            25 118 rlineto
            -621 hlineto
            return
          </CharString>
          <CharString index="161">
            743 466 -18 94 callsubr
            return
          </CharString>
          <CharString index="162">
            -11 -56 rlineto
            1 3 24 2 7 hhcurveto
            65 return
          </CharString>
          <CharString index="163">
            -81 -86 -70 -67 -84 -78 61 -61 82 hvcurveto
            return
          </CharString>
          <CharString index="164">
            -81 callsubr
            -295 72 0 return
          </CharString>
          <CharString index="165">
            1313 rmoveto
            -120 116 -73 return
          </CharString>
          <CharString index="166">
            204 -48 0 -321 -204 rlineto
            return
          </CharString>
          <CharString index="167">
            172 -49 0 -322 -172 rlineto
            return
          </CharString>
          <CharString index="168">
            -84 65 -98 -77 -65 -30 -49 -40 hvcurveto
            return
          </CharString>
          <CharString index="169">
            rmoveto
            328 84 4 callsubr
            return
          </CharString>
          <CharString index="170">
            rmoveto
            161 100 -24 callgsubr
            return
          </CharString>
          <CharString index="171">
            hlineto
            -163 -42 103 -101 186 hhcurveto
            return
          </CharString>
          <CharString index="172">
            hlineto
            -106 -20 -30 -34 -45 hhcurveto
            -32 -1 return
          </CharString>
          <CharString index="173">
            1522 rmoveto
            -272 -190 return
          </CharString>
          <CharString index="174">
            1505 rmoveto
            -286 -7 hlineto
            return
          </CharString>
          <CharString index="175">
            -266 172 -189 273 return
          </CharString>
          <CharString index="176">
            190 0 250 293 rlineto
            return
          </CharString>
          <CharString index="177">
            61 76 71 -56 55 -74 hvcurveto
            endchar
          </CharString>
          <CharString index="178">
            60 56 38 53 11 hvcurveto
            55 12 return
          </CharString>
          <CharString index="179">
            -13 hvcurveto
            -63 -14 41 -45 63 hhcurveto
            return
          </CharString>
          <CharString index="180">
            -63 hhcurveto
            -12 hlineto
            -63 -60 -46 -63 return
          </CharString>
          <CharString index="181">
            -68 68 -91 -96 -78 -75 -94 -87 return
          </CharString>
          <CharString index="182">
            rlinecurve
            -14 -67 620 0 14 67 return
          </CharString>
          <CharString index="183">
            hmoveto
            86 69 67 83 79 -61 61 return
          </CharString>
          <CharString index="184">
            rmoveto
            606 hlineto
            30 140 rlineto
            return
          </CharString>
          <CharString index="185">
            rmoveto
            85 68 65 80 -1 hvcurveto
            75 return
          </CharString>
          <CharString index="186">
            rmoveto
            -81 57 -63 87 95 64 59 192 103 vhcurveto
            58 104 33 -101 rlineto
            -172 58 69 -81 133 hhcurveto
            113 90 55 75 42 hvcurveto
            15 69 rlineto
            -21 -24 -30 -13 -34 hhcurveto
            -54 -42 37 126 -41 hvcurveto
            -92 274 88 141 28 46 23 37 21 28 rlinecurve
            -58 18 53 -42 65 hhcurveto
            82 63 65 80 82 -57 62 -87 -96 -65 -59 -191 -100 hvcurveto
            -62 -113 -118 354 -379 -50 -13 -66 54 -10 56 -14 16 -18 20 -60 rlinecurve
            127 -383 -83 -134 -28 -46 -24 -36 -21 -28 rlinecurve
            58 -18 -53 42 -65 hhcurveto
            -82 -63 -66 -80 hvcurveto
            endchar
          </CharString>
          <CharString index="187">
            rmoveto
            326 253 180 282 162 -78 121 -178 118 hvcurveto
            -98 69 rlineto
            -129 86 -50 72 97 vvcurveto
            128 101 87 147 178 106 -128 -249 11 vhcurveto
            60 hlineto
            59 356 rlineto
            60 -78 -159 55 -194 hhcurveto
            -353 -205 -190 -252 -165 81 -114 176 -117 hvcurveto
            98 -69 rlineto
            131 -88 46 -75 -105 vvcurveto
            -143 -117 -84 -149 -182 -144 120 259 -2 vhcurveto
            -62 hlineto
            -59 -368 rlineto
            -57 89 191 -48 184 hhcurveto
            return
          </CharString>
          <CharString index="188">
            rmoveto
            293 265 254 390 66 hvcurveto
            262 43 -86 139 -149 hhcurveto
            -114 -80 -108 -140 12 hvcurveto
            176 -31 58 -140 -33 -174 rrcurveto
            -182 -34 -109 -116 -139 hhcurveto
            -132 -50 84 153 32 hvcurveto
            12 59 57 233 13 63 rrcurveto
            207 44 -71 85 -175 hhcurveto
            -95 -90 -32 -36 -53 hvcurveto
            -14 -65 rlineto
            7 14 17 4 20 hhcurveto
            67 30 -41 -112 -24 hvcurveto
            -16 -77 -59 -247 -13 -65 rrcurveto
            -228 -49 106 -146 260 hhcurveto
            endchar
          </CharString>
          <CharString index="189">
            rmoveto
            -56 66 137 -45 144 hhcurveto
            291 159 150 182 1 hvcurveto
            129 -58 87 -125 76 vhcurveto
            -85 53 rlineto
            -86 53 -34 44 65 vvcurveto
            74 51 49 94 133 73 -105 -147 4 vhcurveto
            61 hlineto
            49 259 rlineto
            41 -64 -112 35 -144 hhcurveto
            -270 -167 -129 -189 -125 67 -88 123 -74 hvcurveto
            85 -53 86 -54 28 -47 -1 -68 rlinecurve
            -83 -64 -51 -95 -133 -101 99 186 -4 vhcurveto
            -60 hlineto
            return
          </CharString>
          <CharString index="190">
            -119 138 -165 -143 -119 -86 -162 -61 vhcurveto
            159 715 -455 -47 -14 -65 61 -15 50 -15 10 -20 -13 -56 rlinecurve
            -270 -1273 185 0 125 109 rlineto
            -67 26 80 -63 136 hhcurveto
            311 -74 callgsubr
            -193 -65 -44 33 40 -11 vhcurveto
            100 468 rlineto
            155 36 78 87 80 hhcurveto
            70 43 -57 -147 -1 hvcurveto
            return
          </CharString>
          <CharString index="191">
            1653 933 -26 rmoveto
            429 349 336 472 380 -295 309 -389 -433 -345 -336 -472 -381 291 -308 393 hvcurveto
            59 vmoveto
            -353 -264 283 348 439 321 309 390 348 269 -283 -347 -440 -326 -309 -385 hvcurveto
            return
          </CharString>
          <CharString index="192">
            rmoveto
            210 982 19 90 23 20 126 18 rlinecurve
            15 67 -624 0 -15 -67 119 -18 15 131 callsubr
            -95 -145 -234 -144 rlinecurve
            19 -56 415 150 228 163 74 349 rlinecurve
            endchar
          </CharString>
          <CharString index="193">
            rmoveto
            167 -133 141 -265 23 vhcurveto
            240 17 225 97 2 221 rrcurveto
            201 1 -190 128 -387 hhcurveto
            -561 -75 callgsubr
            -18 -19 -92 -224 -1052 rcurveline
            -20 -91 -82 callgsubr
            193 callsubr
            endchar
          </CharString>
          <CharString index="194">
            rmoveto
            -136 -701 rlineto
            -220 -43 88 -104 185 hhcurveto
            140 126 68 76 72 hvcurveto
            13 65 rlineto
            -28 -39 -53 -10 -51 hhcurveto
            -104 -52 52 139 33 hvcurveto
            17 71 124 488 29 104 rrcurveto
            endchar
          </CharString>
          <CharString index="195">
            rmoveto
            60 57 38 54 11 hvcurveto
            53 11 -40 39 -59 hhcurveto
            -12 hlineto
            -60 -55 -39 -53 -12 hvcurveto
            -54 -12 39 -38 61 hhcurveto
            346 hmoveto
            59 14 callgsubr
            -501 -1580 -87 callsubr
          </CharString>
          <CharString index="196">
            1497 789 -26 rmoveto
            342 213 218 355 79 hvcurveto
            139 620 36 157 23 32 126 21 rlinecurve
            14 67 -404 0 -15 -67 rlineto
            130 204 callsubr
            return
          </CharString>
          <CharString index="197">
            138 -166 -148 -121 -91 -169 -60 vhcurveto
            56 252 -447 -53 -13 -65 60 -15 49 -15 11 -19 -13 -57 rlinecurve
            -229 -1081 -14 -64 -21 -18 -114 -21 rlinecurve
            -14 -68 return
          </CharString>
          <CharString index="198">
            363 hmoveto
            -41 callsubr
            -40 46 73 callsubr
            -14 -37 callsubr
            endchar
          </CharString>
          <CharString index="199">
            -31 callgsubr
            -11 -49 rlineto
            19 28 41 13 45 hhcurveto
            65 35 -27 -44 -49 -47 -49 -92 -49 hvcurveto
            71 hlineto
            163 50 81 62 84 vvcurveto
            80 -72 56 -101 vhcurveto
            return
          </CharString>
          <CharString index="200">
            rmoveto
            -456 -47 -13 -65 60 -15 rlineto
            50 -15 10 -20 -12 -56 -221 -1037 14 callsubr
            120 116 54 73 56 hvcurveto
            97 callgsubr
            return
          </CharString>
          <CharString index="201">
            rmoveto
            127 130 58 86 65 callgsubr
            117 552 160 callsubr
            -115 -545 rlineto
            -225 -47 90 -125 195 hhcurveto
            return
          </CharString>
          <CharString index="202">
            -77 -65 -78 callgsubr
            16 29 5 25 hhcurveto
            53 42 -24 -44 -44 -42 -26 -66 -47 -41 17 19 -30 hvcurveto
            -13 -58 rlineto
            -45 40 return
          </CharString>
          <CharString index="203">
            1148 rmoveto
            209 123 147 222 7 hvcurveto
            -74 hlineto
            -105 -20 158 callsubr
            170 vhcurveto
            return
          </CharString>
          <CharString index="204">
            582 664 rmoveto
            262 125 240 215 43 callsubr
            -179 97 -161 192 hvcurveto
            return
          </CharString>
          <CharString index="205">
            20 -17 19 19 88 rlinecurve
            249 1172 41 -2 223 -14 59 -65 1 -232 rlinecurve
            61 hlineto
            return
          </CharString>
          <CharString index="206">
            1573 121 callsubr
            -81 callgsubr
            -79 callgsubr
            19 -52 hhcurveto
            -87 -1 return
          </CharString>
          <CharString index="207">
            736 1445 -3 callgsubr
            -46 441 0 9 46 -90 11 -22 13 12 55 rlinecurve
            return
          </CharString>
          <CharString index="208">
            22 hvcurveto
            -77 hlineto
            -53 -17 -104 -36 -131 51 callsubr
            -37 109 -86 191 hhcurveto
            endchar
          </CharString>
          <CharString index="209">
            70 32 -29 -41 -9 hvcurveto
            -9 -42 -42 -31 -81 -18 rrcurveto
            50 -41 147 27 86 50 return
          </CharString>
          <CharString index="210">
            1657 rmoveto
            -85 -77 -38 -48 -49 hvcurveto
            -11 -53 rlineto
            16 28 50 15 47 hhcurveto
            return
          </CharString>
          <CharString index="211">
            1482 805 1444 -74 callsubr
            173 callsubr
            return
          </CharString>
          <CharString index="212">
            1246 680 1016 rmoveto
            -67 callsubr
            139 callsubr
            return
          </CharString>
          <CharString index="213">
            182 -190 80 0 -131 382 -199 0 -290 -382 rlineto
            return
          </CharString>
          <CharString index="214">
            151 -659 -178 -12 -57 rlineto
            -55 -261 rmoveto
            328 84 return
          </CharString>
          <CharString index="215">
            -47 -41 17 19 -30 hvcurveto
            -13 -58 rlineto
            -45 40 70 -30 82 hhcurveto
            endchar
          </CharString>
          <CharString index="216">
            rmoveto
            -77 -63 -61 -75 -71 55 -56 74 78 63 70 callsubr
          </CharString>
          <CharString index="217">
            -250 -1172 -18 -87 -25 -21 -143 -19 rlinecurve
            -14 -67 return
          </CharString>
          <CharString index="218">
            hhcurveto
            -11 hlineto
            -60 -56 -38 -55 -12 hvcurveto
            -53 -11 39 -38 60 hhcurveto
            return
          </CharString>
          <CharString index="219">
            -481 rmoveto
            89 73 40 61 35 hvcurveto
            14 66 rlineto
            -16 -17 return
          </CharString>
          <CharString index="220">
            -173 188 -272 -352 -234 -266 -324 return
          </CharString>
          <CharString index="221">
            78 hlineto
            47 11 31 20 49 hhcurveto
            29 30 -7 -12 37 hvcurveto
            return
          </CharString>
          <CharString index="222">
            rmoveto
            -169 -792 315 0 179 callsubr
            endchar
          </CharString>
          <CharString index="223">
            rmoveto
            -126 -386 106 0 317 377 rlineto
            9 vlineto
            return
          </CharString>
          <CharString index="224">
            0 -131 382 -199 0 -289 -382 rlineto
            return
          </CharString>
          <CharString index="225">
            0 622 -40 callsubr
            -51 callsubr
            return
          </CharString>
          <CharString index="226">
            rmoveto
            -404 -229 -374 -415 -20 vhcurveto
            -70 -3 return
          </CharString>
          <CharString index="227">
            rmoveto
            304 426 -239 0 -135 -426 rlineto
            return
          </CharString>
          <CharString index="228">
            rmoveto
            87 1 71 59 25 208 rrcurveto
            -67 hlineto
            -85 -16 return
          </CharString>
          <CharString index="229">
            1501 rmoveto
            -210 -122 -148 -221 return
          </CharString>
          <CharString index="230">
            14 -34 26 -33 26 rcurveline
            36 -49 -49 24 -61 hhcurveto
            return
          </CharString>
          <CharString index="231">
            1 7 hvcurveto
            -66 hlineto
            -10 -27 -45 callgsubr
            return
          </CharString>
          <CharString index="232">
            rmoveto
            -456 -53 -14 -65 60 -15 49 -15 11 -19 return
          </CharString>
          <CharString index="233">
            1199 1238 651 rmoveto
            235 return
          </CharString>
          <CharString index="234">
            1174 rmoveto
            86 69 67 83 79 -61 61 return
          </CharString>
          <CharString index="235">
            1155 976 -17 137 callsubr
            return
          </CharString>
          <CharString index="236">
            -463 rlineto
            -173 -36 62 -79 139 hhcurveto
            return
          </CharString>
          <CharString index="237">
            1 vhcurveto
            -179 -1 97 -162 192 hhcurveto
            return
          </CharString>
          <CharString index="238">
            -19 -19 -91 rlinecurve
            -205 -964 -71 -335 return
          </CharString>
          <CharString index="239">
            rmoveto
            1015 hlineto
            30 139 rlineto
            -1015 hlineto
            return
          </CharString>
          <CharString index="240">
            rmoveto
            191 108 -26 callgsubr
            -81 return
          </CharString>
          <CharString index="241">
            rmoveto
            -75 64 -59 77 80 65 62 74 53 -30 46 -44 22 vhcurveto
            14 37 42 8 44 hhcurveto
            172 62 -120 -191 -32 hvcurveto
            -9 -55 -167 -18 rlineto
            -326 -35 -157 -114 -180 vvcurveto
            -141 116 -95 167 174 131 96 219 49 vhcurveto
            -208 33 164 -108 181 hhcurveto
            164 135 74 94 68 hvcurveto
            15 69 rlineto
            -48 -52 -80 -36 -85 hhcurveto
            -161 -88 121 221 hvcurveto
            7 0 6 6 vvcurveto
            52 4 391 36 130 110 2 149 rlinecurve
            149 1 -139 84 -189 hhcurveto
            -129 -116 -45 -87 -96 hvcurveto
            87 -67 -107 45 -149 hhcurveto
            -232 -161 -102 -139 hvcurveto
            1045 156 rmoveto
            70 28 -64 -71 -3 hvcurveto
            -4 -108 -73 -109 -211 -23 -39 -4 rcurveline
            212 20 92 167 120 hhcurveto
            -865 -683 rmoveto
            110 79 92 181 26 vhcurveto
            76 8 -13 -77 rlineto
            -189 -32 -75 -96 -99 hhcurveto
            -69 -48 42 84 hvcurveto
            endchar
          </CharString>
          <CharString index="242">
            rmoveto
            -1040 hlineto
            -797 -1156 -120 -176 -47 -30 -106 -15 rlinecurve
            -14 -67 428 0 14 67 -134 20 -9 39 106 160 rlinecurve
            206 312 425 0 -76 -388 -20 -105 -19 -20 -140 -18 rlinecurve
            -14 -67 1119 0 104 425 rlineto
            -59 hlineto
            -108 -257 -98 -69 -253 -13 rrcurveto
            -198 -8 121 619 173 -2 105 -4 21 -43 -4 -164 rlinecurve
            60 hlineto
            100 498 rlineto
            -59 hlineto
            -59 -156 -39 -40 -108 -5 rrcurveto
            -174 -3 114 588 180 -8 241 -13 38 -55 14 -237 rlinecurve
            60 hlineto
            -941 309 rmoveto
            69 hlineto
            -132 -674 rlineto
            -383 hlineto
            endchar
          </CharString>
          <CharString index="243">
            1427 576 196 rmoveto
            107 501 107 0 241 -697 406 0 13 64 -57 24 -33 38 -77 216 rlinecurve
            -209 605 234 208 174 152 70 47 119 23 rlinecurve
            14 67 -456 0 -15 -67 128 -18 4 -47 -127 -125 rlinecurve
            -413 -407 -106 0 100 468 19 91 23 20 118 18 rlinecurve
            14 67 -615 -35 callgsubr
            -224 -1052 -104 callgsubr
            615 0 14 67 -110 17 -14 21 19 91 rlinecurve
            return
          </CharString>
          <CharString index="244">
            rmoveto
            111 87 56 73 42 hvcurveto
            14 68 rlineto
            -19 -21 -27 -12 -29 hhcurveto
            -51 -39 38 134 -45 hvcurveto
            -125 370 103 80 155 118 77 37 100 22 rlinecurve
            11 56 -438 0 -12 -56 123 -15 16 -36 -114 -98 rlinecurve
            -331 -283 208 975 -68 callsubr
            314 0 92 432 79 62 72 -230 rlineto
            -190 57 73 -91 130 hhcurveto
            return
          </CharString>
          <CharString index="245">
            1430 rmoveto
            111 85 -86 callgsubr
            -12 -32 -23 -47 hhcurveto
            -29 -28 8 14 -37 hvcurveto
            -33 13 rlineto
            16 -43 -44 12 -50 hhcurveto
            -109 -87 -75 -143 -29 hvcurveto
            76 hlineto
            55 13 31 23 48 hhcurveto
            28 29 -8 -14 36 hvcurveto
            33 -12 rlineto
            -17 43 44 -13 50 hhcurveto
            return
          </CharString>
          <CharString index="246">
            -169 -792 315 0 132 620 rlineto
            150 34 97 105 95 -76 callgsubr
            -98 129 callsubr
            120 116 54 -82 callsubr
            -28 -42 -13 -32 hhcurveto
            -48 -20 33 70 15 hvcurveto
            92 429 rlineto
            225 48 -90 123 -197 hhcurveto
            -166 -137 -100 -184 -71 hvcurveto
            return
          </CharString>
          <CharString index="247">
            rmoveto
            111 85 -85 callgsubr
            -12 -32 -23 -47 hhcurveto
            -28 -29 8 14 -37 hvcurveto
            -32 13 rlineto
            16 -44 -44 13 -50 hhcurveto
            -109 -87 -76 -143 -29 hvcurveto
            77 hlineto
            55 12 31 23 48 hhcurveto
            28 29 -8 -14 36 hvcurveto
            33 -12 rlineto
            -17 43 44 -12 50 hhcurveto
            endchar
          </CharString>
          <CharString index="248">
            rmoveto
            -445 -53 -13 -65 60 -15 49 -15 11 -19 -13 -57 rlinecurve
            -168 -792 314 0 129 635 rlineto
            91 58 112 59 123 hhcurveto
            45 38 -7 -10 26 hvcurveto
            12 23 14 43 45 vvcurveto
            84 -37 57 -77 -102 -75 -91 -236 -128 vhcurveto
            return
          </CharString>
          <CharString index="249">
            -56 -56 -86 -31 -77 hhcurveto
            -146 -106 107 220 258 118 215 181 32 30 -7 -12 25 hvcurveto
            -71 -9 -51 -58 -72 vvcurveto
            -79 62 -59 78 84 66 62 85 131 -112 111 -206 -1 vhcurveto
            -321 -241 -259 -350 return
          </CharString>
          <CharString index="250">
            1166 rmoveto
            103 1 84 72 31 250 rrcurveto
            -76 65 callsubr
            -26 14 -35 26 -33 26 rcurveline
            36 -48 -50 24 -61 hhcurveto
            -102 -1 -84 -72 -31 -248 rrcurveto
            76 hlineto
            105 20 30 34 45 hhcurveto
            -68 callgsubr
            return
          </CharString>
          <CharString index="251">
            rmoveto
            480 319 378 453 71 callgsubr
            hvcurveto
            -383 -3 258 -278 408 hhcurveto
            -24 92 rmoveto
            -172 -108 142 293 401 182 471 282 72 callgsubr
            return
          </CharString>
          <CharString index="252">
            607 0 14 68 rlineto
            -140 24 -16 16 13 110 callgsubr
            -74 callgsubr
            -194 -64 -44 33 40 -12 vhcurveto
            100 468 rlineto
            155 37 78 87 80 hhcurveto
            70 42 -57 -147 hvcurveto
            endchar
          </CharString>
          <CharString index="253">
            -186 -664 226 callsubr
            -1068 -718 rmoveto
            157 callsubr
            898 -741 rmoveto
            262 126 241 215 -1 hvcurveto
            43 callsubr
            130 callsubr
            return
          </CharString>
          <CharString index="254">
            rmoveto
            188 114 78 94 76 hvcurveto
            15 68 rlineto
            -65 -71 -105 -38 -113 hhcurveto
            -103 -66 45 77 77 38 50 129 48 hvcurveto
            51 20 rlineto
            186 65 112 82 178 vvcurveto
            170 return
          </CharString>
          <CharString index="255">
            -56 -54 -86 -31 -79 hhcurveto
            -139 -103 92 209 -8 hvcurveto
            59 17 rlineto
            337 96 168 91 168 vvcurveto
            134 -124 85 -194 -317 -253 -261 -349 return
          </CharString>
          <CharString index="256">
            16 76 -258 0 40 175 -320 -24 -32 -151 -146 0 -17 -76 147 0 -260 -1225 315 0 132 625 rlineto
            152 36 return
          </CharString>
          <CharString index="257">
            rmoveto
            249 8 188 153 212 vvcurveto
            124 -75 75 -101 -113 -68 -96 -113 -5 vhcurveto
            86 -13 58 -42 -77 vvcurveto
            -91 -91 -66 -114 -9 vhcurveto
            endchar
          </CharString>
          <CharString index="258">
            -27 -41 -13 -34 hhcurveto
            -48 -19 33 70 15 hvcurveto
            91 429 rlineto
            225 48 -89 123 -197 hhcurveto
            -161 -140 -93 -192 -74 hvcurveto
            return
          </CharString>
          <CharString index="259">
            rmoveto
            195 113 133 199 5 hvcurveto
            -69 hlineto
            -94 -17 -84 -56 -135 hhcurveto
            -110 -77 55 74 8 1 8 1 5 hvcurveto
            -69 hlineto
            return
          </CharString>
          <CharString index="260">
            -448 -19 -87 -24 -22 -141 -18 rlinecurve
            -14 -67 656 0 14 67 -133 19 -17 20 19 88 rlinecurve
            95 450 398 523 return
          </CharString>
          <CharString index="261">
            153 39 63 91 hvcurveto
            79 371 -62 -1 rlineto
            -233 -89 -153 -145 -169 hhcurveto
            -204 -136 197 291 hvcurveto
            endchar
          </CharString>
          <CharString index="262">
            15 hvcurveto
            264 1244 -455 -47 -14 -65 60 -15 rlineto
            50 -15 10 -20 -12 -56 -73 -349 rcurveline
            54 -32 223 callsubr
            return
          </CharString>
          <CharString index="263">
            1505 rmoveto
            -285 -7 hlineto
            282 -375 rlineto
            83 hlineto
            320 382 rmoveto
            -274 -7 hlineto
            188 -375 rlineto
            78 hlineto
            return
          </CharString>
          <CharString index="264">
            -50 -31 49 121 -2 hvcurveto
            253 -1 79 248 103 hhcurveto
            50 31 -51 -120 1 hvcurveto
            -254 2 -80 -246 -102 hhcurveto
            return
          </CharString>
          <CharString index="265">
            -90 -63 -146 hhcurveto
            -118 -82 62 82 9 1 8 2 7 hvcurveto
            -74 hlineto
            -12 -30 -7 -38 -37 vvcurveto
            -148 111 -116 return
          </CharString>
          <CharString index="266">
            -75 94 callgsubr
            14 68 -236 59 callsubr
            return
          </CharString>
          <CharString index="267">
            246 -9 23 107 -251 -15 52 246 -326 -45 -42 -198 -139 -33 -12 -62 130 0 return
          </CharString>
          <CharString index="268">
            37 -28 -45 -45 -38 -27 -64 -52 -45 16 23 -29 hvcurveto
            -15 -62 rlineto
            -54 44 73 -37 91 hhcurveto
            return
          </CharString>
          <CharString index="269">
            -96 -145 -233 -144 rlinecurve
            19 -56 415 150 227 163 75 349 rlinecurve
            return
          </CharString>
          <CharString index="270">
            hvcurveto
            7 88 rmoveto
            -87 -50 80 165 1 hvcurveto
            61 callgsubr
            -91 -373 -171 vhcurveto
            return
          </CharString>
          <CharString index="271">
            456 1248 rmoveto
            -224 -1052 rlineto
            -19 -93 -24 -18 -125 -18 -14 -67 rcurveline
            return
          </CharString>
          <CharString index="272">
            1553 rmoveto
            78 62 61 76 71 -55 56 -74 -77 -64 -61 -61 callsubr
            return
          </CharString>
          <CharString index="273">
            rmoveto
            63 49 41 57 -1 hvcurveto
            57 -1 -52 41 -63 hhcurveto
            -63 -48 -41 -57 1 hvcurveto
            -57 return
          </CharString>
          <CharString index="274">
            -1 hvcurveto
            -65 50 -51 67 vhcurveto
            334 hmoveto
            69 57 56 69 65 -49 52 -66 -70 return
          </CharString>
          <CharString index="275">
            -70 -59 -26 92 callgsubr
            29 hvcurveto
            26 -20 rlineto
            -29 41 42 -20 52 hhcurveto
            return
          </CharString>
          <CharString index="276">
            -183 190 -80 0 132 -381 198 0 290 381 rlineto
            return
          </CharString>
          <CharString index="277">
            274 1288 60 -3 rlineto
            251 -14 129 -202 -268 vvcurveto
            return
          </CharString>
          <CharString index="278">
            280 377 rlineto
            9 vlineto
            -567 -351 rmoveto
            77 63 61 75 72 return
          </CharString>
          <CharString index="279">
            -7 hvcurveto
            73 hlineto
            105 21 90 63 145 hhcurveto
            119 81 -62 -82 -9 return
          </CharString>
          <CharString index="280">
            -13 31 33 16 callgsubr
            36 125 19 34 callgsubr
            return
          </CharString>
          <CharString index="281">
            -38 -110 -156 rlinecurve
            -306 -433 -133 451 -41 138 return
          </CharString>
          <CharString index="282">
            169 -49 148 -91 113 hvcurveto
            166 160 -55 58 -165 -159 rlineto
            108 -114 -160 64 -195 hhcurveto
            -480 -316 -378 -453 -3 hvcurveto
            -1 -169 49 -149 91 -113 rrcurveto
            -164 -159 55 -58 164 158 rlineto
            -107 114 161 -63 195 hhcurveto
            -305 527 rmoveto
            400 182 471 282 132 95 -83 -172 36 vhcurveto
            -724 -699 rlineto
            -2 26 -1 27 30 vvcurveto
            280 -436 rmoveto
            -131 -95 83 172 -37 hvcurveto
            724 700 rlineto
            2 -26 1 -28 -29 vvcurveto
            -419 -191 -453 -273 vhcurveto
            endchar
          </CharString>
          <CharString index="283">
            rmoveto
            -262 -28 127 -169 228 hhcurveto
            164 118 102 168 61 hvcurveto
            -164 1 115 -106 172 hhcurveto
            307 207 289 334 30 hvcurveto
            266 23 -105 156 -152 hhcurveto
            -117 -78 -109 -141 14 hvcurveto
            170 -31 96 -131 -13 -186 rrcurveto
            -172 -11 -108 -131 -130 hhcurveto
            -138 -76 109 302 70 hvcurveto
            48 212 -268 0 -56 -263 rlineto
            -273 -58 -56 -87 -100 hhcurveto
            -103 -44 98 190 19 hvcurveto
            21 241 100 218 154 100 rrcurveto
            -31 48 -328 -60 -216 -252 -29 -296 rlinecurve
            endchar
          </CharString>
          <CharString index="284">
            rmoveto
            155 114 90 168 106 hvcurveto
            -180 15 64 -73 132 hhcurveto
            90 88 51 49 44 hvcurveto
            15 67 rlineto
            -11 -14 -30 -9 -27 hhcurveto
            -76 -42 23 223 -33 hvcurveto
            -15 104 320 522 rlineto
            -299 hlineto
            -15 -53 -41 -116 -41 -109 rrcurveto
            196 -32 -86 103 -184 hhcurveto
            -279 -207 -239 -347 -31 hvcurveto
            -288 -33 126 -171 216 hhcurveto
            22 503 rmoveto
            300 27 82 143 108 hhcurveto
            92 21 -101 -322 16 hvcurveto
            3 -124 rlineto
            -171 -81 -76 -75 -83 hhcurveto
            -94 -41 104 246 26 hvcurveto
            endchar
          </CharString>
          <CharString index="285">
            rmoveto
            234 191 88 143 102 hvcurveto
            12 70 rlineto
            -75 -76 -143 -54 -141 hhcurveto
            -141 -78 54 89 4 hvcurveto
            106 3 102 49 198 hhcurveto
            69 hlineto
            -11 198 rlineto
            -65 hlineto
            -193 -55 58 82 6 hvcurveto
            90 5 77 62 166 hhcurveto
            75 62 -12 -21 46 hvcurveto
            -50 -16 -33 -49 -54 vvcurveto
            -66 49 -56 82 71 56 56 76 115 -90 112 -304 -323 -178 -127 -173 -7 vhcurveto
            -8 -118 79 -90 162 -25 -203 -18 -129 -91 -7 -143 rrcurveto
            -158 -9 141 -102 252 hhcurveto
            endchar
          </CharString>
          <CharString index="286">
            133 623 rlineto
            147 34 89 105 90 hhcurveto
            78 29 -66 -103 -21 hvcurveto
            -149 -706 313 0 132 618 rlineto
            150 34 88 107 91 hhcurveto
            77 30 -66 -108 -22 hvcurveto
            -99 -465 rlineto
            -173 -36 62 -79 139 hhcurveto
            119 117 54 73 -106 callsubr
            -27 10 callsubr
            92 431 rlineto
            224 49 -91 122 -193 hhcurveto
            -150 -136 -99 -172 -63 hvcurveto
            160 22 -83 111 -185 hhcurveto
            -158 -132 -97 -187 -68 hvcurveto
            59 276 -67 callsubr
            return
          </CharString>
          <CharString index="287">
            rmoveto
            348 233 267 324 109 -29 96 -54 76 hvcurveto
            120 113 -53 55 -117 -110 rlineto
            71 -75 -106 42 -127 hhcurveto
            -350 -231 -268 -322 -111 30 -98 55 -76 hvcurveto
            -112 -107 52 -55 111 105 rlineto
            -70 75 104 -41 126 hhcurveto
            133 958 rmoveto
            79 49 -64 -133 9 hvcurveto
            -401 -380 rlineto
            250 11 90 327 163 hhcurveto
            -126 -872 rmoveto
            -78 -49 62 129 -10 hvcurveto
            400 379 rlineto
            -249 -12 -90 -321 -161 hhcurveto
            endchar
          </CharString>
          <CharString index="288">
            688 1238 rmoveto
            3 -111 -152 -28 -109 -8 -10 -52 rcurveline
            1 13 15 1 22 hhcurveto
            95 72 -49 -89 hvcurveto
            -107 2 -78 -66 -91 hhcurveto
            -36 -33 8 15 -26 hvcurveto
            31 11 20 29 33 vvcurveto
            45 -35 35 -47 -48 -35 -36 -46 -99 118 -61 122 174 164 91 163 vhcurveto
            -2 90 -66 72 -116 26 115 13 117 59 -1 109 rrcurveto
            115 -119 56 -114 -129 -121 -67 -141 -47 vhcurveto
            40 -16 rlineto
            74 38 56 34 71 hhcurveto
            79 47 -46 -58 1 hvcurveto
            return
          </CharString>
          <CharString index="289">
            351 235 264 323 165 -70 138 -124 79 vhcurveto
            -11 46 54 -9 55 hhcurveto
            190 129 76 137 94 -58 78 -91 39 hvcurveto
            -59 hlineto
            8 -17 7 -31 -32 vvcurveto
            -149 -114 -120 -169 vhcurveto
            -79 -64 22 -100 hhcurveto
            -353 -239 -257 -334 hvcurveto
            316 -122 rmoveto
            61 callgsubr
            -90 -373 -172 -87 -50 80 165 1 vhcurveto
            return
          </CharString>
          <CharString index="290">
            rmoveto
            92 80 41 59 40 hvcurveto
            14 66 rlineto
            -16 -19 -26 -10 -29 hhcurveto
            -65 -44 67 94 56 19 58 31 45 hvcurveto
            327 21 217 257 312 vvcurveto
            266 113 callsubr
            -249 151 -182 243 -22 vhcurveto
            -138 -81 -73 -100 -101 vvcurveto
            -103 84 -76 127 vhcurveto
            58 547 rmoveto
            -87 -50 80 165 1 hvcurveto
            61 callgsubr
            -90 -373 -172 vhcurveto
            endchar
          </CharString>
          <CharString index="291">
            rmoveto
            -13 -73 -129 -30 -13 -62 128 0 -152 -931 -38 -228 -56 -88 -92 -15 rlinecurve
            27 23 18 35 40 vvcurveto
            73 -57 57 -69 -72 -58 -56 -76 -108 89 -81 136 244 195 174 577 99 vhcurveto
            105 613 233 -9 23 107 -245 -12 26 152 rlineto
            213 35 63 79 96 hhcurveto
            3 hlineto
            -34 -24 -22 -39 -45 vvcurveto
            -73 58 -57 70 74 59 59 74 113 -107 83 -173 -228 -165 -158 -307 -58 vhcurveto
            endchar
          </CharString>
          <CharString index="292">
            rmoveto
            104 93 58 74 44 hvcurveto
            14 69 rlineto
            -20 -29 -26 -11 -31 hhcurveto
            -49 -38 28 83 -39 hvcurveto
            -186 396 80 80 42 43 33 35 27 27 rlinecurve
            -67 14 55 -50 72 hhcurveto
            82 68 66 84 hvcurveto
            79 -1 -58 67 -91 hhcurveto
            -96 -59 -61 -140 -126 hvcurveto
            -281 -322 110 515 -457 -53 -13 -65 60 -15 49 -15 11 -19 -12 -57 rlinecurve
            -170 -792 315 0 104 484 137 -290 rlineto
            -152 61 66 -59 121 hhcurveto
            endchar
          </CharString>
          <CharString index="293">
            rmoveto
            -94 71 -71 110 178 125 118 311 221 vhcurveto
            556 786 97 138 41 31 117 19 rlinecurve
            15 67 -425 0 -14 -67 146 -18 0 -29 -90 -136 rlinecurve
            -386 -584 -155 609 -31 121 4 19 156 18 rlinecurve
            14 67 -666 0 -14 -67 109 -19 23 -24 35 -117 rlinecurve
            280 -936 -70 -96 -64 -67 -73 -35 rlinecurve
            9 18 4 20 21 vvcurveto
            92 -70 69 -88 -93 -72 -74 -90 vhcurveto
            endchar
          </CharString>
          <CharString index="294">
            329 hlineto
            128 630 rlineto
            168 38 87 73 92 hhcurveto
            87 46 -68 -148 -30 hvcurveto
            -31 -150 -154 -708 -60 -257 rrcurveto
            332 hlineto
            13 56 205 1008 13 65 rrcurveto
            241 49 -103 114 -199 hhcurveto
            -180 -124 -108 -153 -62 hvcurveto
            179 23 -71 75 -143 hhcurveto
            -89 -88 -29 -36 -59 hvcurveto
            -14 -64 rlineto
            5 14 17 3 23 hhcurveto
            66 38 -38 -114 -23 hvcurveto
            -23 -120 -97 -430 -50 -194 rrcurveto
            endchar
          </CharString>
          <CharString index="295">
            259 -118 207 -195 108 hvcurveto
            -6 40 44 -4 48 hhcurveto
            182 146 76 143 96 -60 84 -84 40 hvcurveto
            -65 hlineto
            9 -16 4 -28 -30 vvcurveto
            -157 -109 -136 -182 vhcurveto
            -111 -75 24 -137 hhcurveto
            -479 -316 -377 -454 -4 hvcurveto
            359 -132 rmoveto
            400 182 471 282 172 108 -140 -295 -419 -191 -453 -273 -172 -108 141 295 vhcurveto
            return
          </CharString>
          <CharString index="296">
            -25 -10 -28 hhcurveto
            -65 -45 69 97 54 18 53 37 44 hvcurveto
            474 319 377 453 383 -255 278 -408 -480 -316 -378 -453 -3 hvcurveto
            -2 -358 224 -266 364 -33 rrcurveto
            -143 -82 -77 -101 -101 vvcurveto
            -103 90 -74 127 vhcurveto
            56 549 rmoveto
            -171 -109 141 295 400 182 471 282 172 108 -140 -295 -419 -191 -453 -273 hvcurveto
            endchar
          </CharString>
          <CharString index="297">
            -66 119 hhcurveto
            111 120 51 68 58 hvcurveto
            15 69 rlineto
            -24 -31 -41 -11 -32 hhcurveto
            -48 -20 32 70 15 hvcurveto
            152 716 rlineto
            -2 14 16 -1 16 hhcurveto
            128 104 68 124 91 -58 77 -94 38 hvcurveto
            -59 hlineto
            9 -17 6 -31 -33 vvcurveto
            -151 -113 -108 -286 -35 vhcurveto
            -122 -15 -13 -62 55 -15 rlineto
            49 -17 11 -18 -12 -56 -90 -419 rcurveline
            -144 -34 -86 -98 -98 hhcurveto
            -86 -33 66 116 26 hvcurveto
            return
          </CharString>
          <CharString index="298">
            619 hlineto
            15 67 -112 18 -18 19 19 92 rlinecurve
            8 39 730 814 -182 -853 -19 -93 -22 -18 -124 -18 75 callsubr
            -115 113 callgsubr
            124 18 rlinecurve
            15 67 -620 0 -14 -67 114 -18 16 -17 -20 -94 rlinecurve
            -9 -40 -729 -814 182 854 19 92 24 18 122 -47 callgsubr
            76 callgsubr
            endchar
          </CharString>
          <CharString index="299">
            -225 -1052 -19 -91 -22 -19 -127 -19 rlinecurve
            -15 -67 645 0 15 67 -136 19 -18 20 19 88 rlinecurve
            105 495 165 -3 104 -4 21 -42 -4 -166 rlinecurve
            57 hlineto
            106 498 rlineto
            -58 hlineto
            -62 -157 -39 -41 -107 -4 rrcurveto
            -167 -3 127 599 164 -7 231 -11 52 -57 11 -238 rlinecurve
            62 hlineto
            endchar
          </CharString>
          <CharString index="300">
            569 hlineto
            493 313 163 286 hvcurveto
            -281 664 rmoveto
            -178 -120 -131 -207 -2 vhcurveto
            -116 -1 121 565 72 -2 rlineto
            161 -6 89 -91 -154 vvcurveto
            -87 -663 rmoveto
            -204 -136 -156 -300 -10 vhcurveto
            -73 -2 137 646 114 -3 rlineto
            160 -4 98 -103 -164 vvcurveto
            return
          </CharString>
          <CharString index="301">
            -11 -47 239 0 10 47 -71 10 -7 17 19 86 rlinecurve
            95 451 89 -611 115 0 136 274 1 0 201 351 -92 -512 -8 -45 -14 -11 -72 -10 rlinecurve
            -10 -47 377 0 11 47 -68 9 -7 11 8 46 rlinecurve
            98 540 9 44 13 13 72 9 rlinecurve
            10 47 -328 0 -255 -489 rlineto
            return
          </CharString>
          <CharString index="302">
            19 92 24 18 126 19 rlinecurve
            14 67 -620 0 -14 -67 112 -18 18 -19 -20 -92 rlinecurve
            -247 -1161 -473 0 248 1164 19 91 21 20 119 15 rlinecurve
            14 67 -608 0 -14 -67 111 -15 15 -20 -19 -91 rlinecurve
            -247 -1164 -474 0 247 1161 return
          </CharString>
          <CharString index="303">
            148 -1175 241 0 636 1149 104 186 35 30 108 17 rlinecurve
            14 67 -418 0 -14 -67 133 -21 17 -36 -91 -174 rlinecurve
            -465 -887 -94 909 -15 148 27 41 138 19 rlinecurve
            14 68 -650 0 -14 -68 94 -15 31 -28 21 -163 rlinecurve
            return
          </CharString>
          <CharString index="304">
            rmoveto
            -456 -54 -14 -65 63 -16 rlineto
            45 -13 12 -20 -12 -56 -78 -369 rcurveline
            -301 -63 158 -144 302 33 callgsubr
            -62 -296 rmoveto
            45 217 rlineto
            8 26 36 6 36 hhcurveto
            116 58 -70 -123 -153 -80 -149 -122 -110 -42 93 171 37 hvcurveto
            endchar
          </CharString>
          <CharString index="305">
            rmoveto
            355 217 270 319 265 -181 191 -272 -355 -216 -270 -319 -264 180 -192 272 hvcurveto
            -2 88 rmoveto
            -89 -46 81 167 1 hvcurveto
            256 1 94 366 162 hhcurveto
            90 45 -81 -167 hvcurveto
            -256 -1 -95 -366 -162 hhcurveto
            endchar
          </CharString>
          <CharString index="306">
            1413 1426 449 rmoveto
            167 -133 141 -265 23 vhcurveto
            240 17 225 97 2 221 rrcurveto
            201 1 -190 128 -387 hhcurveto
            -561 -75 callgsubr
            -18 -19 -92 -224 -1052 rcurveline
            -20 -91 -82 callgsubr
            193 callsubr
            return
          </CharString>
          <CharString index="307">
            rmoveto
            -108 2 118 -66 144 hhcurveto
            188 116 86 106 -4 hvcurveto
            108 -2 -118 66 -145 hhcurveto
            -188 -115 -86 -106 4 hvcurveto
            191 -25 rmoveto
            82 -2 47 68 61 hhcurveto
            45 29 -29 -53 2 hvcurveto
            -83 2 -48 -68 -60 hhcurveto
            -46 -28 29 54 -2 hvcurveto
            endchar
          </CharString>
          <CharString index="308">
            1418 493 rmoveto
            235 -202 140 -344 2 vhcurveto
            -155 1 80 379 96 callgsubr
            rlineto
            116 -19 18 -18 -20 -92 -224 -1053 rcurveline
            -19 -90 -23 -19 -126 -19 -14 -67 rcurveline
            642 hlineto
            436 290 191 302 hvcurveto
            return
          </CharString>
          <CharString index="309">
            -411 -52 -13 -66 50 -11 rlineto
            54 -15 13 -17 4 -51 65 -810 rcurveline
            211 hlineto
            310 331 248 347 187 vvcurveto
            100 -70 64 -91 -89 -69 -63 -89 -85 68 -68 84 10 10 1 2 10 vhcurveto
            -57 -170 -126 -181 -162 -189 rrcurveto
            return
          </CharString>
          <CharString index="310">
            rmoveto
            -1066 hlineto
            -14 -67 116 -19 17 -18 -19 -91 rlinecurve
            -224 -1054 -19 -90 -23 -19 -127 -19 rlinecurve
            -14 -67 650 0 14 67 -140 21 -19 18 19 88 rlinecurve
            249 1172 169 -7 256 -11 44 -53 5 -224 rlinecurve
            60 hlineto
            endchar
          </CharString>
          <CharString index="311">
            -23 11 -31 -30 -156 -122 -607 rcurveline
            -282 -57 -161 -152 -206 hhcurveto
            -208 -91 callgsubr
            54 callgsubr
            rlineto
            107 -21 16 -20 -20 -94 -130 -615 rcurveline
            -463 -98 260 -190 322 hhcurveto
            return
          </CharString>
          <CharString index="312">
            -477 rmoveto
            86 83 34 52 51 hvcurveto
            14 65 rlineto
            -15 -26 -32 -10 -34 hhcurveto
            -62 -41 31 66 78 54 85 141 82 hvcurveto
            80 47 -75 0 -105 -50 rlineto
            -248 -125 -79 -82 -104 vvcurveto
            -90 79 -64 114 vhcurveto
            endchar
          </CharString>
          <CharString index="313">
            -323 -39 -128 -604 rlineto
            -141 -33 -88 -104 -99 hhcurveto
            -81 -24 66 111 23 hvcurveto
            151 711 -324 -37 -127 -609 rlineto
            -139 -33 -87 -103 -99 hhcurveto
            -80 -24 68 109 23 hvcurveto
            148 return
          </CharString>
          <CharString index="314">
            rrcurveto
            197 6 133 84 143 hhcurveto
            40 37 -6 -12 32 hvcurveto
            -51 -16 -38 -44 -62 vvcurveto
            -72 54 -59 77 75 59 59 75 130 -136 102 -224 -282 -237 -158 -290 -9 vhcurveto
            return
          </CharString>
          <CharString index="315">
            -94 -391 rlineto
            61 hlineto
            100 230 75 65 209 15 rrcurveto
            57 3 -249 -1172 -19 -87 -24 -21 -142 -19 rlinecurve
            -14 -67 658 0 14 67 rlineto
            -134 20 -17 19 19 88 105 return
          </CharString>
          <CharString index="316">
            546 1458 rmoveto
            -88 -51 -55 -108 -9 hvcurveto
            -7 -73 5 -89 7 -111 rrcurveto
            12 -198 49 0 80 171 rlineto
            69 145 55 110 77 vvcurveto
            77 -43 54 -79 vhcurveto
            return
          </CharString>
          <CharString index="317">
            759 1470 rmoveto
            -249 -8 -188 -153 -212 vvcurveto
            -124 76 -75 100 113 69 96 114 4 vhcurveto
            -86 12 -58 42 77 vvcurveto
            91 92 66 113 9 vhcurveto
            return
          </CharString>
          <CharString index="318">
            277 898 rmoveto
            250 8 188 154 211 vvcurveto
            125 -75 74 -101 -114 -68 -95 -114 -4 vhcurveto
            85 -12 59 -43 -76 vvcurveto
            -92 -92 -65 -113 -10 vhcurveto
            return
          </CharString>
          <CharString index="319">
            0 -14 -67 rlineto
            148 -18 31 -41 -30 -135 -32 -137 -29 -120 -51 -180 -68 -267 -62 -203 -81 -115 rrcurveto
            88 -7 -66 59 -85 hhcurveto
            -100 -67 -76 -91 return
          </CharString>
          <CharString index="320">
            -99 -469 rcurveline
            -207 -44 73 -137 198 hhcurveto
            141 144 80 186 79 hvcurveto
            -166 -17 80 -100 179 hhcurveto
            144 148 90 194 76 hvcurveto
            -2 -9 return
          </CharString>
          <CharString index="321">
            1573 rmoveto
            87 1 72 59 24 208 rrcurveto
            -67 hlineto
            -85 -15 -25 -28 -37 hhcurveto
            -27 -22 11 21 -28 32 callgsubr
            25 28 37 hhcurveto
            95 callgsubr
            return
          </CharString>
          <CharString index="322">
            -162 -15 -292 -11 -316 -141 -229 -238 -76 rrcurveto
            -64 -300 633 0 131 382 rlineto
            -54 hlineto
            -105 -157 -123 -43 -366 -3 return
          </CharString>
          <CharString index="323">
            132 625 rlineto
            152 36 100 98 89 -76 callgsubr
            -97 129 callsubr
            119 117 54 73 -106 callsubr
            151 callsubr
            return
          </CharString>
          <CharString index="324">
            21 rlineto
            -151 -46 -116 -85 -131 hhcurveto
            -33 -30 5 9 -26 hvcurveto
            49 13 39 46 57 vvcurveto
            75 -56 56 -70 -80 -54 -59 -80 -109 89 -90 156 vhcurveto
            return
          </CharString>
          <CharString index="325">
            -20 33 70 15 hvcurveto
            165 770 -453 -56 -12 -62 55 -15 rlineto
            48 -17 12 -18 -13 -20 callgsubr
            -98 hhcurveto
            -86 -32 66 116 25 hvcurveto
            endchar
          </CharString>
          <CharString index="326">
            61 hlineto
            43 260 -58 32 -110 36 -151 6 rlinecurve
            41 193 -59 0 -41 -193 rlineto
            -280 -3 -181 -121 -202 vvcurveto
            -122 75 return
          </CharString>
          <CharString index="327">
            -28 -32 -42 hhcurveto
            -30 -24 13 23 -32 hvcurveto
            -31 23 rlineto
            33 return
          </CharString>
          <CharString index="328">
            -30 -7 -38 -37 vvcurveto
            -148 111 -116 169 vhcurveto
            return
          </CharString>
          <CharString index="329">
            -58 55 -75 -80 -65 -60 -76 1 vhcurveto
            -70 58 -56 76 vhcurveto
            return
          </CharString>
          <CharString index="330">
            -74 46 -116 hhcurveto
            -311 -216 -306 -365 hvcurveto
            return
          </CharString>
          <CharString index="331">
            61 callsubr
            -12 -54 rlineto
            5 16 28 5 26 hhcurveto
            return
          </CharString>
          <CharString index="332">
            rmoveto
            -126 -386 107 0 317 377 rlineto
            9 vlineto
            return
          </CharString>
          <CharString index="333">
            rmoveto
            116 hlineto
            1254 1444 rlineto
            -116 hlineto
            return
          </CharString>
          <CharString index="334">
            rmoveto
            91 73 72 88 84 -64 66 -87 -92 -74 -72 -90 -82 return
          </CharString>
          <CharString index="335">
            hlineto
            33 156 109 0 28 135 -109 0 101 return
          </CharString>
        <CharString name=".notdef">
          2048 31 -494 rmoveto
          136 hlineto
          519 2444 rlineto
          -136 hlineto
          -108 83 callgsubr
          -110 -2444 rmoveto
          136 hlineto
          519 2444 rlineto
          -136 hlineto
          -109 -2444 rmoveto
          136 hlineto
          519 2444 rlineto
          -136 hlineto
          -109 83 callgsubr
          endchar
        </CharString>
        <CharString name=".null">
          0 endchar
        </CharString>
        <CharString name="A">
          1407 1280 274 -104 callsubr
        </CharString>
        <CharString name="AE">
          1946 2115 1444 135 callsubr
        </CharString>
        <CharString name="AEacute">
          1946 1578 -54 callsubr
          11 callsubr
          235 -389 135 callsubr
        </CharString>
        <CharString name="AEmacron">
          1946 1223 46 callsubr
          860 -313 135 callsubr
        </CharString>
        <CharString name="Aacute">
          1407 1101 57 callsubr
          19 callsubr
          -123 -1559 -104 callsubr
        </CharString>
        <CharString name="Abreve">
          1407 1046 -51 callgsubr
          5 hvcurveto
          -66 hlineto
          -92 -18 -82 50 callsubr
          2 7 hvcurveto
          -66 hlineto
          -11 -27 -45 callgsubr
          234 -1295 -104 callsubr
        </CharString>
        <CharString name="Abreveacute">
          1407 1386 1863 rmoveto
          32 151 -659 -178 -12 -56 rlineto
          258 -246 18 callsubr
          23 hvcurveto
          -78 hlineto
          -53 -17 -103 -36 -132 51 callsubr
          -36 109 -86 190 hhcurveto
          275 -1260 -104 callsubr
        </CharString>
        <CharString name="Abrevecyrillic">
          1407 1007 1577 rmoveto
          173 152 94 198 56 hvcurveto
          -72 217 callsubr
          273 -1303 -104 callsubr
        </CharString>
        <CharString name="Abrevedotbelow">
          1407 1046 -51 callgsubr
          5 hvcurveto
          -66 hlineto
          -92 -18 -82 50 callsubr
          2 7 hvcurveto
          -66 hlineto
          -11 -27 -45 callgsubr
          234 -1295 rmoveto
          -34 callsubr
          32 callsubr
          -328 -732 -18 callsubr
          12 callsubr
        </CharString>
        <CharString name="Abrevegrave">
          1407 765 1863 rmoveto
          604 -83 11 56 -583 178 rlineto
          208 -480 18 callsubr
          23 hvcurveto
          -78 hlineto
          -53 -17 -103 -36 -132 51 callsubr
          -36 109 -86 190 hhcurveto
          275 -1260 -104 callsubr
        </CharString>
        <CharString name="Abrevehookabove">
          1407 1088 2004 rmoveto
          -87 -77 -34 -40 -49 hvcurveto
          -10 -45 rlineto
          14 29 51 12 47 hhcurveto
          71 35 -24 -36 -8 hvcurveto
          -8 -35 -42 -26 -82 -16 rrcurveto
          53 -34 150 23 87 41 16 77 rlinecurve
          76 15 -79 47 -112 hhcurveto
          -83 -470 18 callsubr
          23 hvcurveto
          -78 hlineto
          -53 -17 -103 -36 -132 51 callsubr
          -36 109 -86 190 hhcurveto
          275 -1260 -104 callsubr
        </CharString>
        <CharString name="Abrevetilde">
          1407 1192 1810 -23 callsubr
          -47 -10 -32 -19 -49 hhcurveto
          -29 -29 7 11 -38 hvcurveto
          -34 11 rlineto
          14 -45 -46 11 -51 hhcurveto
          -113 -85 -65 -121 -25 hvcurveto
          78 hlineto
          47 11 31 19 49 hhcurveto
          29 30 -6 -12 37 hvcurveto
          -99 callgsubr
          -187 -276 18 callsubr
          23 hvcurveto
          -78 hlineto
          -53 -17 -103 -36 -132 51 callsubr
          -36 109 -86 190 hhcurveto
          275 -1260 -104 callsubr
        </CharString>
        <CharString name="Acaron">
          1407 1281 -64 callsubr
          -173 141 -26 callsubr
          -81 -1573 -104 callsubr
        </CharString>
        <CharString name="Acircumflex">
          1407 804 -85 callsubr
          -56 callsubr
          552 -1264 -104 callsubr
        </CharString>
        <CharString name="Acircumflexacute">
          1407 1381 1843 rmoveto
          33 107 callsubr
          292 -84 12 58 -249 60 callsubr
          580 -1282 -104 callsubr
        </CharString>
        <CharString name="Acircumflexdotbelow">
          1407 804 -85 callsubr
          -56 callsubr
          552 -1264 rmoveto
          -34 callsubr
          32 callsubr
          -328 -732 -18 callsubr
          12 callsubr
        </CharString>
        <CharString name="Acircumflexgrave">
          1407 761 36 callgsubr
          292 -84 12 58 -249 60 callsubr
          580 -1282 -104 callsubr
        </CharString>
        <CharString name="Acircumflexhookabove">
          1407 1357 1951 rmoveto
          -83 -74 -33 -41 -48 hvcurveto
          -9 -44 rlineto
          13 27 50 13 45 hhcurveto
          68 32 -25 -35 -7 hvcurveto
          -8 -36 -41 -26 -78 4 callgsubr
          292 -84 12 58 -249 60 callsubr
          580 -1282 -104 callsubr
        </CharString>
        <CharString name="Acircumflextilde">
          1407 1188 37 callgsubr
          -30 7 12 -38 hvcurveto
          -34 11 rlineto
          -105 callgsubr
          -122 -24 hvcurveto
          114 callsubr
          34 -11 rlineto
          -14 46 44 -11 52 hhcurveto
          -500 -291 rmoveto
          328 84 292 -84 12 58 -249 60 callsubr
          580 -1282 -104 callsubr
        </CharString>
        <CharString name="Acyrillic">
          1407 1280 274 -104 callsubr
        </CharString>
        <CharString name="Adblgrave">
          1407 855 -94 callgsubr
          100 -1262 -104 callsubr
        </CharString>
        <CharString name="Adieresis">
          1407 866 -43 callsubr
          34 callsubr
          80 -1291 -104 callsubr
        </CharString>
        <CharString name="Adieresismacron">
          1407 760 1838 53 callsubr
          58 -402 rmoveto
          60 56 38 54 11 hvcurveto
          53 12 -40 39 -59 hhcurveto
          -12 hlineto
          -60 -56 -39 -53 -11 hvcurveto
          -54 -12 39 -38 61 hhcurveto
          345 hmoveto
          60 14 callgsubr
          114 -1280 -104 callsubr
        </CharString>
        <CharString name="Adotaccent">
          1407 1033 -52 callsubr
          -69 callsubr
          -61 callsubr
          247 -1279 -104 callsubr
        </CharString>
        <CharString name="Adotbelow">
          1407 1280 274 rmoveto
          -34 callsubr
          32 callsubr
          -328 -732 -18 callsubr
          12 callsubr
        </CharString>
        <CharString name="Adotmacron">
          1407 754 1813 rmoveto
          621 hlineto
          26 118 rlineto
          -622 hlineto
          253 -383 166 callsubr
          1 50 -41 64 hhcurveto
          248 -1274 -104 callsubr
        </CharString>
        <CharString name="Agrave">
          1407 1011 -29 callsubr
          184 -1263 -104 callsubr
        </CharString>
        <CharString name="Ahookabove">
          1407 1074 -31 callgsubr
          115 callgsubr
          206 -1592 -104 callsubr
        </CharString>
        <CharString name="Ainvertedbreve">
          1407 1047 47 callsubr
          -83 callgsubr
          64 callgsubr
          7 33 33 vvcurveto
          129 -1 -102 102 -154 hhcurveto
          233 -1619 -104 callsubr
        </CharString>
        <CharString name="Alphagreek">
          1407 1280 274 -104 callsubr
        </CharString>
        <CharString name="Alphatonosgreek">
          1407 1280 274 rmoveto
          -34 callsubr
          15 -148 -27 -41 -138 -19 rlinecurve
          -14 -68 649 0 -23 callgsubr
          -863 1170 225 callsubr
          -202 -869 rmoveto
          319 609 63 -609 rlineto
          endchar
        </CharString>
        <CharString name="Amacron">
          1407 746 -62 callgsubr
          501 -1483 -104 callsubr
        </CharString>
        <CharString name="Aogonek">
          1407 1047 112 callsubr
          -24 -10 -28 hhcurveto
          -65 -45 72 102 59 21 59 41 48 hvcurveto
          270 hlineto
          -23 callgsubr
          -34 callsubr
          rlineto
          15 -148 -27 -41 -138 -19 -14 -68 rcurveline
          298 hlineto
          -149 -86 -81 -109 -109 vvcurveto
          -103 91 -74 126 vhcurveto
          -534 1056 rmoveto
          319 609 63 -609 rlineto
          endchar
        </CharString>
        <CharString name="Aring">
          1407 793 1725 35 callgsubr
          -85 -109 vhcurveto
          172 -24 rmoveto
          84 45 70 54 41 25 -31 -55 -85 -44 -70 -55 -41 -25 31 56 vhcurveto
          315 -1427 -104 callsubr
        </CharString>
        <CharString name="Aringacute">
          1407 1382 1847 rmoveto
          32 151 -659 -179 -11 -56 rlineto
          292 -238 rmoveto
          141 102 41 64 14 hvcurveto
          63 13 -84 41 -142 hhcurveto
          -64 hlineto
          -141 -103 -41 -63 -14 hvcurveto
          -64 -13 85 -41 141 hhcurveto
          60 48 rmoveto
          -34 hlineto
          -44 -20 23 34 7 hvcurveto
          33 7 30 23 44 hhcurveto
          34 hlineto
          45 19 -23 -33 -7 hvcurveto
          -34 -6 -31 -23 -44 hhcurveto
          249 -1299 -104 callsubr
        </CharString>
        <CharString name="Aringbelow">
          1407 1280 274 rmoveto
          -34 callsubr
          32 callsubr
          -617 -872 200 callsubr
        </CharString>
        <CharString name="Atilde">
          1407 1141 1573 121 callsubr
          -81 callgsubr
          -79 callgsubr
          57 callgsubr
          26 23 -11 -21 28 hvcurveto
          26 -20 rlineto
          -29 42 41 -20 52 hhcurveto
          139 -1299 -104 callsubr
        </CharString>
        <CharString name="B">
          1413 1426 449 86 callsubr
        </CharString>
        <CharString name="Bdotaccent">
          1413 997 -52 callsubr
          -69 callsubr
          -61 callsubr
          429 -1104 86 callsubr
        </CharString>
        <CharString name="Bdotbelow">
          199 callsubr
          -419 -607 -18 callsubr
          64 70 callsubr
        </CharString>
        <CharString name="Becyrillic">
          1396 1423 466 rmoveto
          228 -200 140 -345 vhcurveto
          -162 hlineto
          112 531 208 -7 267 -10 48 -55 8 -222 rlinecurve
          62 hlineto
          66 373 -1131 0 -14 -67 rlineto
          123 -20 17 -17 -20 -92 -223 -1053 rcurveline
          -19 -90 -25 -18 -131 -20 -14 -67 rcurveline
          649 hlineto
          424 300 175 291 hvcurveto
          -358 16 rmoveto
          -224 -149 -165 -275 -11 vhcurveto
          -86 -3 143 673 97 -1 rlineto
          169 -4 101 -87 -178 vvcurveto
          endchar
        </CharString>
        <CharString name="Betagreek">
          1413 1426 449 86 callsubr
        </CharString>
        <CharString name="Blinebelow">
          199 callsubr
          -724 -815 5 callsubr
        </CharString>
        <CharString name="C">
          1402 605 556 -49 callsubr
          15 callsubr
        </CharString>
        <CharString name="Cacute">
          1402 1230 57 callsubr
          19 callsubr
          -927 -1277 -49 callsubr
          15 callsubr
        </CharString>
        <CharString name="Ccaron">
          1402 1410 -25 callsubr
          -26 callsubr
          -885 -1291 -49 callsubr
          15 callsubr
        </CharString>
        <CharString name="Ccedilla">
          1402 605 556 -49 callsubr
          -4 -418 277 -224 327 -31 rrcurveto
          -124 -133 -44 callsubr
          -38 -27 -65 -52 -45 16 23 -29 hvcurveto
          -14 -62 rlineto
          -54 43 73 -37 91 hhcurveto
          162 99 -24 callgsubr
          68 71 rlineto
          175 154 callsubr
        </CharString>
        <CharString name="Ccedillaacute">
          1402 1230 57 callsubr
          19 callsubr
          -927 -1277 -49 callsubr
          -4 -418 277 -224 327 -31 rrcurveto
          -124 -133 -44 callsubr
          -38 -27 -65 -52 -45 16 23 -29 hvcurveto
          -14 -62 rlineto
          -54 43 73 -37 91 hhcurveto
          162 99 -24 callgsubr
          68 71 rlineto
          175 154 callsubr
        </CharString>
        <CharString name="Ccircumflex">
          1402 933 -85 callsubr
          -56 callsubr
          -252 -982 -49 callsubr
          15 callsubr
        </CharString>
        <CharString name="Cdotaccent">
          1402 1162 -52 callsubr
          -69 callsubr
          -61 callsubr
          -557 -997 -49 callsubr
          15 callsubr
        </CharString>
        <CharString name="Checyrillic">
          1573 1083 194 rmoveto
          -19 -91 -28 -17 -141 -19 rrcurveto
          -14 -67 642 0 15 67 -116 17 -18 18 20 94 rlinecurve
          223 1052 20 93 25 18 124 18 rlinecurve
          15 67 -620 0 -15 -67 rlineto
          114 -18 17 -18 -20 -93 -111 -520 rcurveline
          -27 -79 -78 -18 -97 hhcurveto
          -175 -77 107 221 47 hvcurveto
          52 240 19 89 21 22 117 15 rlinecurve
          14 67 -612 0 -14 -67 rlineto
          117 -16 15 -20 -19 -90 -46 -217 rcurveline
          -311 -66 161 -150 342 hhcurveto
          143 99 29 38 98 hvcurveto
          endchar
        </CharString>
        <CharString name="Chigreek">
          1365 331 297 21 callsubr
        </CharString>
        <CharString name="D">
          1576 -22 callsubr
          -57 callsubr
          endchar
        </CharString>
        <CharString name="Dbar">
          1576 200 702 rmoveto
          142 hlineto
          -108 -506 rlineto
          -20 -91 -82 callgsubr
          558 hlineto
          591 442 324 498 391 -300 231 -447 hvcurveto
          -537 -75 callgsubr
          -19 -19 -91 -100 -470 rcurveline
          -142 hlineto
          1048 101 119 callsubr
          132 624 233 0 16 76 -232 0 125 589 60 -3 rlineto
          251 -15 129 -202 -268 vvcurveto
          endchar
        </CharString>
        <CharString name="Dcaron">
          1576 1284 -25 callsubr
          -78 0 130 -293 -88 callgsubr
          278 -1025 30 callsubr
          -57 callsubr
          endchar
        </CharString>
        <CharString name="Dcircumflexbelow">
          1576 -22 callsubr
          -57 callsubr
          -883 -1338 -96 callgsubr
          75 0 -125 344 -185 0 -267 -344 rlineto
          endchar
        </CharString>
        <CharString name="Dcommaaccent">
          1576 -22 callsubr
          -57 callsubr
          -672 -1345 -55 callsubr
          -77 callgsubr
          71 -30 81 hhcurveto
          endchar
        </CharString>
        <CharString name="Ddotaccent">
          1576 1036 -53 callsubr
          -28 callsubr
          606 -731 30 callsubr
          -57 callsubr
          endchar
        </CharString>
        <CharString name="Ddotbelow">
          1576 -22 callsubr
          -57 callsubr
          -633 -1036 -78 callsubr
        </CharString>
        <CharString name="Decyrillic">
          1485 642 903 rmoveto
          32 114 55 237 25 102 rrcurveto
          464 hlineto
          -271 -1268 rlineto
          -642 hlineto
          125 140 109 245 103 430 rrcurveto
          842 -815 rmoveto
          -195 hlineto
          247 1160 19 92 25 18 125 19 rlinecurve
          14 67 -1240 0 -14 -67 rlineto
          152 -18 29 -42 -34 -150 -18 -80 -28 -107 -22 -76 -101 -413 -115 -267 -145 -136 rrcurveto
          -138 hlineto
          -96 -415 rlineto
          69 hlineto
          258 124 59 69 231 hhcurveto
          627 hlineto
          229 40 -61 -266 12 hvcurveto
          69 hlineto
          endchar
        </CharString>
        <CharString name="Deltagreek">
          1331 47 hmoveto
          1198 hlineto
          12 62 -192 1385 -233 0 -772 -1385 rlineto
          118 21 rmoveto
          589 1087 125 -1087 rlineto
          endchar
        </CharString>
        <CharString name="Djecyrillic">
          1753 1760 430 rmoveto
          263 -177 137 -286 -126 -93 -21 -30 -85 vhcurveto
          73 callgsubr
          68 391 -1222 0 208 callsubr
          495 rcurveline
          21 66 66 11 79 hhcurveto
          154 84 -87 -173 -312 -154 -316 -297 -159 hvcurveto
          20 -57 rlineto
          475 136 293 304 373 vvcurveto
          endchar
        </CharString>
        <CharString name="Dlinebelow">
          1576 -22 callsubr
          -57 callsubr
          -938 -1244 -41 callgsubr
        </CharString>
        <CharString name="Dzecyrillic">
          1169 597 -26 80 callsubr
          endchar
        </CharString>
        <CharString name="Dzhecyrillic">
          1597 164 callsubr
          523 hlineto
          118 18 -36 -288 -13 hvcurveto
          69 hlineto
          288 108 33 36 118 hhcurveto
          524 hlineto
          14 67 -117 19 -17 18 19 92 rlinecurve
          223 1052 20 92 23 18 127 19 rlinecurve
          14 67 -619 0 -14 -67 111 -18 17 -19 -19 -92 rlinecurve
          -248 -1161 -532 0 247 1161 19 93 23 43 callgsubr
        </CharString>
        <CharString name="E">
          1255 1444 1444 -94 callsubr
        </CharString>
        <CharString name="Eacute">
          1255 1055 -54 callsubr
          11 callsubr
          87 -389 -94 callsubr
        </CharString>
        <CharString name="Ebreve">
          1255 1000 1569 133 callsubr
          50 callsubr
          124 callsubr
          444 -125 -94 callsubr
        </CharString>
        <CharString name="Ecaron">
          1255 1235 -25 callsubr
          -26 callsubr
          129 -403 -94 callsubr
        </CharString>
        <CharString name="Ecedilla">
          1255 575 -467 63 callsubr
          86 91 2 6 475 0 55 callgsubr
          -48 callsubr
          68 391 -1080 0 -14 -67 118 -19 16 -46 callsubr
          573 0 -145 -155 -44 callsubr
          49 callsubr
        </CharString>
        <CharString name="Ecedillabreve">
          1255 1000 1569 133 callsubr
          50 callsubr
          124 callsubr
          -425 -2036 63 callsubr
          86 91 2 6 475 0 55 callgsubr
          -48 callsubr
          68 391 -1080 0 -14 -67 118 -19 16 -46 callsubr
          573 0 -145 -155 -44 callsubr
          49 callsubr
        </CharString>
        <CharString name="Ecircumflex">
          1255 758 -85 callsubr
          -56 callsubr
          762 -94 -94 callsubr
        </CharString>
        <CharString name="Ecircumflexacute">
          1255 1335 1843 rmoveto
          32 107 callsubr
          4 callsubr
          791 -112 -94 callsubr
        </CharString>
        <CharString name="Ecircumflexbelow">
          1255 1444 1444 rmoveto
          -1080 hlineto
          -14 -67 118 -19 16 -46 callsubr
          -6 callsubr
          -48 callsubr
          -1028 -1512 rmoveto
          252 171 171 -171 74 0 -56 callgsubr
        </CharString>
        <CharString name="Ecircumflexdotbelow">
          1255 758 -85 callsubr
          -56 callsubr
          762 -94 rmoveto
          -1080 hlineto
          -14 -67 118 -19 16 -46 callsubr
          -6 callsubr
          -48 callsubr
          -778 -1210 45 callsubr
        </CharString>
        <CharString name="Ecircumflexgrave">
          1255 714 36 callgsubr
          4 callsubr
          791 -112 -94 callsubr
        </CharString>
        <CharString name="Ecircumflexhookabove">
          1255 1310 1951 rmoveto
          -83 -74 -33 -41 -47 hvcurveto
          -10 -44 rlineto
          13 27 50 13 45 hhcurveto
          69 32 -25 -35 -8 hvcurveto
          -8 -36 -40 -26 -79 4 callgsubr
          4 callsubr
          791 -112 -94 callsubr
        </CharString>
        <CharString name="Ecircumflextilde">
          1255 1141 37 callgsubr
          -29 7 12 -38 hvcurveto
          -35 11 rlineto
          14 -45 -45 11 -51 hhcurveto
          -113 -86 -65 -122 -24 hvcurveto
          78 hlineto
          47 11 31 20 49 hhcurveto
          29 30 -7 -12 38 hvcurveto
          34 -11 rlineto
          -14 45 45 -11 51 hhcurveto
          -500 -291 62 callsubr
          791 -112 -94 callsubr
        </CharString>
        <CharString name="Ecyrillic">
          1409 607 556 rmoveto
          46 3 45 5 45 vhcurveto
          585 -11 24 109 -597 -10 rlineto
          333 62 194 262 251 hhcurveto
          191 110 -132 -263 8 hvcurveto
          61 -2 64 360 rlineto
          68 -94 -185 64 -216 hhcurveto
          -482 -348 -328 -491 -4 hvcurveto
          -451 -3 108 callgsubr
        </CharString>
        <CharString name="Edblgrave">
          1255 809 -94 callgsubr
          310 -92 -94 callsubr
        </CharString>
        <CharString name="Edieresis">
          1255 820 -43 callsubr
          8 callsubr
          167 callsubr
          -58 -56 -70 -65 50 -51 67 hvcurveto
          290 -121 -94 callsubr
        </CharString>
        <CharString name="Edotaccent">
          1255 987 -52 callsubr
          -69 callsubr
          -61 callsubr
          457 -109 -94 callsubr
        </CharString>
        <CharString name="Edotbelow">
          1255 1444 1444 rmoveto
          -1080 hlineto
          -14 -67 118 -19 16 -46 callsubr
          -6 callsubr
          -48 callsubr
          -778 -1210 45 callsubr
        </CharString>
        <CharString name="Efcyrillic">
          1966 191 673 rmoveto
          -268 231 -163 439 -24 vhcurveto
          -11 -52 -18 -85 -22 -21 -133 -16 rlinecurve
          -14 -67 623 0 14 67 rlineto
          -122 17 -18 19 18 86 11 51 rcurveline
          610 22 275 225 307 vvcurveto
          268 -232 163 -440 24 vhcurveto
          11 52 18 85 24 21 131 16 rlinecurve
          14 67 -623 0 -14 -67 rlineto
          123 -17 17 -19 -18 -86 -11 -51 rcurveline
          -609 -24 -274 -224 -306 vvcurveto
          373 -18 rmoveto
          265 145 187 346 32 vhcurveto
          -175 -831 rlineto
          -224 33 -92 132 182 vvcurveto
          1137 133 rmoveto
          -264 -146 -188 -347 -32 vhcurveto
          175 832 rlineto
          226 -33 92 -132 -183 vvcurveto
          endchar
        </CharString>
        <CharString name="Egrave">
          1255 965 -29 callsubr
          394 -93 -94 callsubr
        </CharString>
        <CharString name="Ehookabove">
          1255 1028 92 callsubr
          416 -422 -94 callsubr
        </CharString>
        <CharString name="Einvertedbreve">
          1255 1001 47 callsubr
          -6 hvcurveto
          67 hlineto
          92 17 82 55 64 callgsubr
          6 33 33 vvcurveto
          129 -1 -101 102 -154 hhcurveto
          443 -449 -94 callsubr
        </CharString>
        <CharString name="Elcyrillic">
          1510 215 -26 rmoveto
          219 106 250 523 134 hvcurveto
          62 225 50 204 40 182 rrcurveto
          441 hlineto
          -248 -1162 -19 -93 -22 -18 -123 -18 rlinecurve
          -14 -67 619 0 15 67 -116 113 callgsubr
          125 18 rlinecurve
          14 67 -1216 212 callsubr
          -97 67 -70 110 hvcurveto
          endchar
        </CharString>
        <CharString name="Emacron">
          1255 700 46 callsubr
          712 -313 -94 callsubr
        </CharString>
        <CharString name="Emacronacute">
          1255 1339 1864 rmoveto
          33 151 -660 -179 -11 -56 rlineto
          -42 -193 -32 callgsubr
          760 -261 -94 callsubr
        </CharString>
        <CharString name="Emacrongrave">
          1255 719 -65 callgsubr
          -91 -428 -32 callgsubr
          760 -261 -94 callsubr
        </CharString>
        <CharString name="Emcyrillic">
          1828 884 1444 25 callsubr
        </CharString>
        <CharString name="Encyrillic">
          -3 callsubr
          -13 callsubr
          -55 callgsubr
          endchar
        </CharString>
        <CharString name="Eogonek">
          1255 922 -481 rmoveto
          89 74 40 61 34 hvcurveto
          13 66 rlineto
          -16 -16 -24 -10 -29 hhcurveto
          -65 -44 72 102 59 21 59 41 48 hvcurveto
          170 hlineto
          55 callgsubr
          -48 callsubr
          68 391 -1080 0 -14 -67 rlineto
          118 -19 16 -19 -20 -91 -224 -1052 rcurveline
          -19 -91 -23 -19 -127 -19 -14 -67 rcurveline
          879 hlineto
          -150 -86 -81 -109 -109 vvcurveto
          -103 90 -74 127 vhcurveto
          endchar
        </CharString>
        <CharString name="Epsilongreek">
          1255 1444 1444 -94 callsubr
        </CharString>
        <CharString name="Epsilontonosgreek">
          1648 1837 1444 rmoveto
          -1080 hlineto
          -15 -67 119 -19 16 -46 callsubr
          -6 callsubr
          131 621 186 -3 107 -3 21 -44 -4 -164 rlinecurve
          58 hlineto
          105 497 rlineto
          -57 81 callgsubr
          184 -8 239 -11 50 -55 12 -239 rlinecurve
          61 hlineto
          -1409 391 116 callsubr
          endchar
        </CharString>
        <CharString name="Ercyrillic">
          1379 696 hmoveto
          24 callsubr
        </CharString>
        <CharString name="Ereversedcyrillic">
          1448 419 1356 rmoveto
          -80 -345 rlineto
          61 hlineto
          254 97 151 115 167 hhcurveto
          231 105 -228 -300 -26 -1 -26 -1 -25 hvcurveto
          -585 12 -23 -111 599 10 rlineto
          -330 -47 -183 -293 -284 hhcurveto
          -220 -106 160 204 -5 hvcurveto
          -62 hlineto
          -48 -335 rlineto
          -62 75 180 -56 200 hhcurveto
          529 352 345 465 424 -295 262 -397 -153 -158 -42 -72 -99 hvcurveto
          endchar
        </CharString>
        <CharString name="Escyrillic">
          1402 605 556 -49 callsubr
          15 callsubr
        </CharString>
        <CharString name="Etagreek">
          -3 callsubr
          -13 callsubr
          -55 callgsubr
          endchar
        </CharString>
        <CharString name="Etatonosgreek">
          2008 974 196 rmoveto
          106 500 542 0 -106 -500 -19 -92 -24 -20 -121 -17 75 callsubr
          -118 18 -17 20 20 92 rlinecurve
          223 1050 20 91 25 21 126 18 rlinecurve
          14 67 -621 0 -14 -67 114 -17 15 -20 -19 -92 rlinecurve
          -100 -468 -542 0 99 468 20 91 24 20 121 18 rlinecurve
          14 67 -620 0 -14 -67 118 -19 16 -20 -19 -91 rlinecurve
          -224 -1050 -19 -90 -24 -21 -127 -19 75 callsubr
          -111 18 -17 20 19 91 rlinecurve
          -614 1248 116 callsubr
          endchar
        </CharString>
        <CharString name="Etilde">
          1255 1095 99 callsubr
          -71 -59 -25 92 callgsubr
          28 hvcurveto
          27 -20 rlineto
          -29 41 42 -20 52 hhcurveto
          349 -129 -94 callsubr
        </CharString>
        <CharString name="Etildebelow">
          1255 1444 1444 rmoveto
          -1080 hlineto
          -14 -67 118 -19 16 -46 callsubr
          -6 callsubr
          -48 callsubr
          -671 -1480 -95 callgsubr
          -70 hlineto
          -95 -18 220 callsubr
          48 callgsubr
          29 1 25 -53 callgsubr
        </CharString>
        <CharString name="F">
          1188 1420 1444 rmoveto
          -1054 hlineto
          -14 -67 119 -19 15 -19 -19 -91 rlinecurve
          192 callsubr
        </CharString>
        <CharString name="Fdotaccent">
          1188 993 -53 callsubr
          -28 callsubr
          427 -109 rmoveto
          -1054 hlineto
          -14 -67 119 -19 15 -19 -19 -91 rlinecurve
          192 callsubr
        </CharString>
        <CharString name="G">
          1552 239 651 -36 callsubr
        </CharString>
        <CharString name="Gacute">
          1552 1228 -54 callsubr
          11 callsubr
          -1291 -1182 -36 callsubr
        </CharString>
        <CharString name="Gammagreek">
          1190 1435 1444 rmoveto
          -1072 hlineto
          -14 -67 123 -20 17 -17 -19 -91 rlinecurve
          -224 -1054 -20 -90 -24 -18 -131 -20 rlinecurve
          -15 -67 657 0 14 67 -140 21 -19 18 19 88 rlinecurve
          248 1172 174 -7 252 -11 43 -53 5 -224 rlinecurve
          61 hlineto
          endchar
        </CharString>
        <CharString name="Gbreve">
          1552 1173 1569 133 callsubr
          50 callsubr
          124 callsubr
          -934 -918 -36 callsubr
        </CharString>
        <CharString name="Gcaron">
          1552 1408 -25 callsubr
          -26 callsubr
          -1249 -1196 -36 callsubr
        </CharString>
        <CharString name="Gcircumflex">
          1552 931 -85 callsubr
          -56 callsubr
          -616 -887 -36 callsubr
        </CharString>
        <CharString name="Gcommaaccent">
          1552 239 651 rmoveto
          -4 -447 329 -229 357 -1 rrcurveto
          171 205 47 82 115 hvcurveto
          87 407 18 85 21 23 114 16 rlinecurve
          14 67 -571 0 -14 -67 rlineto
          125 -17 12 -20 -18 -87 -83 -401 rcurveline
          -27 -35 -64 -14 -63 hhcurveto
          -207 -141 180 308 432 222 387 307 192 111 -132 -263 9 hvcurveto
          61 -2 63 360 rlineto
          68 -94 -186 64 -217 hhcurveto
          -483 -349 -328 -491 -4 hvcurveto
          553 -1117 -55 callsubr
          61 callsubr
          -12 -54 rlineto
          5 16 -98 callgsubr
          -41 -26 -66 108 callsubr
        </CharString>
        <CharString name="Gdotaccent">
          1552 1160 -52 callsubr
          -69 callsubr
          -61 callsubr
          -921 -902 -36 callsubr
        </CharString>
        <CharString name="Geacutecyrillic">
          1174 1013 57 callsubr
          19 callsubr
          110 -389 203 callsubr
        </CharString>
        <CharString name="Gecyrillic">
          1174 1425 1444 203 callsubr
        </CharString>
        <CharString name="Germandbls">
          1527 547 hmoveto
          286 1367 154 -7 rlineto
          215 -10 88 -92 -151 vvcurveto
          -145 -99 -95 -162 -20 vhcurveto
          -48 -220 rlineto
          169 -75 80 -113 -149 vvcurveto
          -142 -82 -86 -120 -124 -90 107 208 8 vhcurveto
          -63 hlineto
          -62 -309 rlineto
          -53 65 128 -41 144 hhcurveto
          265 231 159 278 196 -100 154 -179 87 hvcurveto
          190 15 156 97 180 vvcurveto
          191 -168 113 -328 vhcurveto
          -735 hlineto
          -15 -67 rlineto
          120 -19 17 -19 -19 -90 -222 -1054 rcurveline
          -19 -91 -23 -18 -129 -19 -13 -67 rcurveline
          endchar
        </CharString>
        <CharString name="Geupturncyrillic">
          1155 1387 1360 rmoveto
          98 427 rlineto
          -70 hlineto
          -274 -125 -71 -69 -229 hhcurveto
          -631 hlineto
          -14 -67 116 -19 17 -18 -20 -91 rlinecurve
          -223 -1054 -20 -90 -22 -19 -127 -19 rlinecurve
          -14 -67 648 0 15 67 rlineto
          -128 20 -30 19 19 88 247 1166 rcurveline
          endchar
        </CharString>
        <CharString name="Gmacron">
          1552 873 46 callsubr
          -666 -1106 -36 callsubr
        </CharString>
        <CharString name="H">
          -3 callsubr
          -13 callsubr
          -55 callgsubr
          endchar
        </CharString>
        <CharString name="Hacyrillic">
          1365 331 297 21 callsubr
        </CharString>
        <CharString name="Hardsigncyrillic">
          1612 1681 493 rmoveto
          235 -203 140 -343 2 vhcurveto
          -156 1 80 379 20 89 26 18 134 20 rlinecurve
          14 67 -885 0 -89 -370 rlineto
          63 hlineto
          104 239 58 40 211 10 rrcurveto
          28 1 -248 -1170 rlineto
          -19 -89 -23 -19 -132 -19 -14 -67 rcurveline
          648 hlineto
          435 291 191 302 hvcurveto
          -358 20 101 callgsubr
          710 91 -2 rlineto
          171 -4 99 -90 -180 vvcurveto
          endchar
        </CharString>
        <CharString name="Hbar">
          -3 callsubr
          -23 -20 -121 -17 rlinecurve
          -14 -67 618 0 14 67 -118 18 -16 19 19 92 rlinecurve
          179 840 142 0 16 75 -142 0 30 137 19 92 24 19 125 18 rlinecurve
          15 67 -618 0 -14 -67 113 -17 14 -20 -19 -92 rlinecurve
          -30 -137 -542 0 29 137 19 91 24 20 120 18 rlinecurve
          14 67 -617 -35 callgsubr
          -30 -137 -141 0 -16 -75 141 0 -178 -840 -20 -91 -23 -19 -126 -19 rlinecurve
          -14 -67 617 0 15 67 -112 18 -16 20 19 91 rlinecurve
          125 584 rmoveto
          54 256 542 0 -54 -256 rlineto
          endchar
        </CharString>
        <CharString name="Hbrevebelow">
          -3 callsubr
          -13 callsubr
          -55 callgsubr
          168 -650 152 callsubr
          -11 -27 -6 -43 callgsubr
        </CharString>
        <CharString name="Hcaron">
          1608 1406 -64 callsubr
          -173 141 -26 callsubr
          -912 -1651 rmoveto
          41 callsubr
          -55 callgsubr
          endchar
        </CharString>
        <CharString name="Hcedilla">
          1608 262 -101 callgsubr
          -25 callgsubr
          1 3 273 0 14 67 -112 18 -17 20 19 91 rlinecurve
          41 callsubr
          264 0 -142 -155 -12 -56 rlineto
          1 4 24 2 7 hhcurveto
          65 37 -28 -45 -45 -38 -27 -64 -52 -45 17 22 -44 callgsubr
        </CharString>
        <CharString name="Hcircumflex">
          1608 929 -85 callsubr
          -130 293 -180 0 -250 -293 rlineto
          -279 -1342 rmoveto
          41 callsubr
          -55 callgsubr
          endchar
        </CharString>
        <CharString name="Hdieresis">
          1608 991 -43 callsubr
          hvcurveto
          65 1 -50 111 callgsubr
          334 hmoveto
          69 57 56 69 hvcurveto
          65 1 -50 111 callgsubr
          -751 -1369 rmoveto
          41 callsubr
          -55 callgsubr
          endchar
        </CharString>
        <CharString name="Hdotaccent">
          1608 1158 -53 callsubr
          109 callgsubr
          -584 -1357 rmoveto
          41 callsubr
          -55 callgsubr
          endchar
        </CharString>
        <CharString name="Hdotbelow">
          -3 callsubr
          -13 callsubr
          -55 callgsubr
          173 -353 109 callsubr
        </CharString>
        <CharString name="I">
          726 575 196 -95 callsubr
          -90 callsubr
        </CharString>
        <CharString name="IAcyrillic">
          1449 351 984 rmoveto
          -158 98 -99 153 -40 vhcurveto
          -260 -321 -134 -163 -103 -111 -81 -28 rlinecurve
          -14 -64 398 0 502 631 rlineto
          8 10 -1 9 hhcurveto
          115 hlineto
          -93 -434 -19 -93 -25 -18 -121 -18 75 callsubr
          rlineto
          -117 18 -17 17 20 94 223 1053 rcurveline
          20 92 23 18 126 18 15 67 rcurveline
          -641 hlineto
          -465 -250 -178 -282 hvcurveto
          348 -14 rmoveto
          221 142 161 280 10 vhcurveto
          86 3 -138 -653 -103 2 rlineto
          -167 3 -100 93 160 vvcurveto
          endchar
        </CharString>
        <CharString name="IJ">
          1456 1317 -69 callgsubr
          15 67 -624 0 -15 -67 118 -18 16 131 callsubr
          162 callsubr
          -742 -71 -95 callsubr
          -90 callsubr
        </CharString>
        <CharString name="IJacute">
          1456 784 1834 rmoveto
          -193 -295 72 0 424 287 rlineto
          7 vlineto
          415 hmoveto
          -193 -295 72 0 19 callsubr
          -487 -1566 rmoveto
          209 982 19 90 23 20 127 18 rlinecurve
          15 67 -624 0 -15 -67 118 -18 16 131 callsubr
          162 callsubr
          -742 -71 -95 callsubr
          -90 callsubr
        </CharString>
        <CharString name="IUcyrillic">
          2264 50 hmoveto
          619 hlineto
          15 67 rlineto
          -112 18 -18 19 19 92 106 499 rcurveline
          206 hlineto
          -1 -22 -1 -21 -22 vvcurveto
          -370 236 -285 409 473 337 369 470 370 -236 286 -409 -1 vhcurveto
          -422 -1 -313 -292 -63 -397 rrcurveto
          -198 hlineto
          100 469 19 92 24 18 122 -47 callgsubr
          76 callgsubr
          1464 -2 rmoveto
          -191 -84 186 260 378 153 491 287 191 84 -187 -260 -378 -153 -490 -287 hvcurveto
          endchar
        </CharString>
        <CharString name="Iacute">
          726 784 1834 rmoveto
          -193 -295 72 0 424 287 rlineto
          7 vlineto
          -512 -1637 -95 callsubr
          -90 callsubr
        </CharString>
        <CharString name="Ibreve">
          726 730 1570 133 callsubr
          -56 -133 hhcurveto
          -107 -75 54 73 7 1 8 1 6 hvcurveto
          -66 hlineto
          -10 -26 -7 -34 -32 vvcurveto
          -129 1 102 -102 154 hhcurveto
          -155 -1374 -95 callsubr
          -90 callsubr
        </CharString>
        <CharString name="Icaron">
          726 965 1848 rmoveto
          -240 -141 -20 callsubr
          -88 callgsubr
          -470 -1652 -95 callsubr
          -90 callsubr
        </CharString>
        <CharString name="Icircumflex">
          726 488 1539 rmoveto
          -27 callgsubr
          -130 294 -181 0 -249 -294 rlineto
          163 -1343 -95 callsubr
          -90 callsubr
        </CharString>
        <CharString name="Icyrillic">
          726 575 196 -95 callsubr
          -90 callsubr
        </CharString>
        <CharString name="Idblgrave">
          726 539 1830 rmoveto
          -236 15 callgsubr
          -288 -1341 -95 callsubr
          -90 callsubr
        </CharString>
        <CharString name="Idieresis">
          726 549 1566 rmoveto
          2 callsubr
          50 -51 66 hvcurveto
          334 hmoveto
          2 callsubr
          49 -51 67 hvcurveto
          -308 -1370 -95 callsubr
          -90 callsubr
        </CharString>
        <CharString name="Idieresisacute">
          726 1069 1864 rmoveto
          32 151 -659 -179 -12 -56 rlineto
          96 -226 rmoveto
          60 56 39 54 11 hvcurveto
          53 12 -40 38 -59 hhcurveto
          -12 hlineto
          -60 -56 -38 -53 -11 hvcurveto
          -54 -12 39 -39 60 hhcurveto
          346 hmoveto
          60 56 39 54 12 hvcurveto
          53 11 -39 38 -60 hhcurveto
          -12 hlineto
          -60 -56 -38 -53 -12 hvcurveto
          -54 -11 40 -39 60 hhcurveto
          -274 -1358 -95 callsubr
          -90 callsubr
        </CharString>
        <CharString name="Idotaccent">
          726 717 1554 rmoveto
          77 63 61 75 71 -56 56 -73 -78 -63 -60 -77 -70 55 -56 75 hvcurveto
          -142 -1358 -95 callsubr
          -90 callsubr
        </CharString>
        <CharString name="Idotbelow">
          726 575 196 -95 callsubr
          -90 callgsubr
          -266 -353 -78 callsubr
        </CharString>
        <CharString name="Iecyrillic">
          1255 1444 1444 -94 callsubr
        </CharString>
        <CharString name="Igrave">
          726 695 1832 rmoveto
          -282 -8 hlineto
          302 -287 rlineto
          64 hlineto
          -204 -1341 -95 callsubr
          -90 callsubr
        </CharString>
        <CharString name="Ihookabove">
          726 758 1867 rmoveto
          -93 -72 -37 -60 -41 hvcurveto
          -11 -50 rlineto
          19 27 42 14 44 hhcurveto
          66 35 -27 -44 -49 -47 -49 -93 -49 hvcurveto
          71 hlineto
          164 50 81 62 84 vvcurveto
          79 -73 57 -100 vhcurveto
          -183 -1671 -95 callsubr
          -90 callsubr
        </CharString>
        <CharString name="Iicyrillic">
          1620 50 hmoveto
          191 callsubr
        </CharString>
        <CharString name="Iinvertedbreve">
          726 731 1893 rmoveto
          -192 -108 -131 -192 -5 hvcurveto
          66 hlineto
          93 18 81 55 133 hhcurveto
          108 74 -53 -73 -8 -1 -8 -1 -6 hvcurveto
          66 hlineto
          11 27 6 33 32 vvcurveto
          129 -1 -102 102 -153 hhcurveto
          -156 -1697 -95 callsubr
          -90 callsubr
        </CharString>
        <CharString name="Iishortcyrillic">
          1620 1146 1577 rmoveto
          172 152 94 198 57 hvcurveto
          -72 21 rlineto
          -151 -46 -117 -85 -130 hhcurveto
          -34 -30 5 9 -25 31 callgsubr
          -1096 -1577 rmoveto
          191 callsubr
        </CharString>
        <CharString name="Imacron">
          726 430 1606 rmoveto
          549 hlineto
          32 152 rlineto
          -549 hlineto
          113 -1562 -95 callsubr
          -90 callsubr
        </CharString>
        <CharString name="Iocyrillic">
          1255 820 -43 callsubr
          8 callsubr
          167 callsubr
          -58 -56 -70 -65 50 -51 67 hvcurveto
          290 -121 -94 callsubr
        </CharString>
        <CharString name="Iogonek">
          726 321 112 callsubr
          -24 -10 -29 hhcurveto
          -65 -44 72 102 59 20 59 42 48 hvcurveto
          260 hlineto
          14 67 -90 callgsubr
          53 callgsubr
          rlineto
          119 -16 15 -22 -19 -91 -224 -1052 rcurveline
          -20 -91 -23 -19 -126 -19 -14 -67 rcurveline
          284 hlineto
          -151 -86 -80 -109 -109 vvcurveto
          -103 90 -74 127 vhcurveto
          endchar
        </CharString>
        <CharString name="Iotadieresisgreek">
          726 549 1566 rmoveto
          2 callsubr
          50 -51 66 hvcurveto
          334 hmoveto
          2 callsubr
          49 -51 67 hvcurveto
          -308 -1370 -95 callsubr
          -90 callsubr
        </CharString>
        <CharString name="Iotagreek">
          726 575 196 -95 callsubr
          -90 callsubr
        </CharString>
        <CharString name="Iotatonosgreek">
          1133 981 196 rmoveto
          224 1052 19 91 23 19 127 19 rlinecurve
          14 67 -624 0 -14 -67 118 -16 15 -22 -19 -91 rlinecurve
          -224 -1052 -104 callgsubr
          624 0 15 67 -119 19 -15 19 19 91 rlinecurve
          -621 1248 116 callsubr
          endchar
        </CharString>
        <CharString name="Itilde">
          726 824 1574 rmoveto
          87 1 72 59 25 207 rrcurveto
          -67 hlineto
          -84 -16 -81 callgsubr
          -29 hvcurveto
          -26 19 rlineto
          30 -42 -42 18 -51 hhcurveto
          -87 -71 -59 -206 -25 hvcurveto
          67 hlineto
          84 15 26 28 36 hhcurveto
          27 22 -12 -20 28 hvcurveto
          27 -20 rlineto
          -30 41 42 -19 51 hhcurveto
          -249 -1378 -95 callsubr
          -90 callsubr
        </CharString>
        <CharString name="Itildebelow">
          726 575 196 -95 callsubr
          -90 callgsubr
          -159 -623 -95 callgsubr
          -71 hlineto
          -95 -17 220 callsubr
          -46 -58 callgsubr
          18 47 callgsubr
        </CharString>
        <CharString name="J">
          730 591 267 85 callsubr
        </CharString>
        <CharString name="Jacute">
          730 776 -54 callsubr
          73 0 19 callsubr
          -487 -1566 85 callsubr
        </CharString>
        <CharString name="Jcircumflex">
          730 479 -85 callsubr
          -56 callsubr
          188 -1271 85 callsubr
        </CharString>
        <CharString name="Jecyrillic">
          730 591 267 85 callsubr
        </CharString>
        <CharString name="K">
          1427 576 196 -14 callsubr
        </CharString>
        <CharString name="Kaacutecyrillic">
          1427 1189 -81 callsubr
          -76 callsubr
          -916 -1637 -14 callsubr
        </CharString>
        <CharString name="Kacute">
          1427 1189 -81 callsubr
          -76 callsubr
          -916 -1637 -14 callsubr
        </CharString>
        <CharString name="Kacyrillic">
          1427 576 196 -14 callsubr
        </CharString>
        <CharString name="Kappagreek">
          1427 576 196 -14 callsubr
        </CharString>
        <CharString name="Kcaron">
          1427 1370 -25 callsubr
          -78 0 130 -293 -88 callgsubr
          -874 -1651 -14 callsubr
        </CharString>
        <CharString name="Kcommaaccent">
          136 callsubr
          130 -662 -55 callsubr
          224 callsubr
          53 41 -24 -44 -44 -41 -26 -66 108 callsubr
        </CharString>
        <CharString name="Kdotbelow">
          136 callsubr
          168 -353 109 callsubr
        </CharString>
        <CharString name="Klinebelow">
          136 callsubr
          -136 -561 6 callsubr
        </CharString>
        <CharString name="L">
          -1 callsubr
          endchar
        </CharString>
        <CharString name="Lacute">
          1193 776 -81 callsubr
          -76 callsubr
          43 -1833 rmoveto
          -30 callsubr
          -12 callsubr
          endchar
        </CharString>
        <CharString name="Lambdagreek">
          1422 1285 261 rmoveto
          -149 1185 -238 0 -639 -1162 -97 -176 -34 -25 -111 -16 rlinecurve
          -14 -67 419 0 14 67 -141 22 -14 32 99 186 rlinecurve
          457 866 93 -911 14 -138 -22 -38 -141 -18 rlinecurve
          -15 -68 653 0 14 68 -100 14 -30 28 -18 151 rlinecurve
          endchar
        </CharString>
        <CharString name="Lcaron">
          1193 1138 1105 120 callsubr
          54 -1105 rmoveto
          -30 callsubr
          -12 callsubr
          endchar
        </CharString>
        <CharString name="Lcircumflexbelow">
          -1 callsubr
          262 -459 -96 callgsubr
          75 0 -125 344 -185 0 -267 -344 rlineto
          endchar
        </CharString>
        <CharString name="Lcommaaccent">
          -1 callsubr
          473 -466 -55 callsubr
          -77 callgsubr
          70 -30 82 hhcurveto
          endchar
        </CharString>
        <CharString name="Ldot">
          -1 callsubr
          1016 684 rmoveto
          92 73 72 88 84 -65 -37 callgsubr
          endchar
        </CharString>
        <CharString name="Ldotbelow">
          -1 callsubr
          512 -157 -78 callsubr
        </CharString>
        <CharString name="Ldotbelowmacron">
          1193 421 -62 callgsubr
          668 -1757 rmoveto
          -30 callsubr
          -12 callsubr
          512 -157 -78 callsubr
        </CharString>
        <CharString name="Ljecyrillic">
          2106 38 141 rmoveto
          -97 67 -70 110 219 106 250 523 134 vhcurveto
          62 225 50 204 40 182 rrcurveto
          410 hlineto
          -247 -1164 rlineto
          -19 -89 -25 -19 -136 -19 -14 -67 rcurveline
          654 hlineto
          435 291 191 302 235 -203 142 -343 hvcurveto
          -156 hlineto
          81 380 19 89 26 18 134 20 rlinecurve
          14 67 -1196 212 callsubr
          hvcurveto
          1779 372 101 callgsubr
          709 91 -1 rlineto
          170 -3 100 -91 -180 vvcurveto
          endchar
        </CharString>
        <CharString name="Llinebelow">
          -1 callsubr
          207 -365 -41 callgsubr
        </CharString>
        <CharString name="Lslash">
          1193 185 634 rmoveto
          152 40 -102 -478 -19 -90 -23 -20 -127 -19 rlinecurve
          -14 -67 1070 0 -30 callsubr
          146 690 331 86 18 82 -331 -86 84 399 19 90 25 19 132 19 rlinecurve
          15 67 -631 0 -15 -67 117 -18 16 -25 -22 -102 rlinecurve
          -101 -477 -150 -39 rlineto
          endchar
        </CharString>
        <CharString name="M">
          1828 884 1444 25 callsubr
        </CharString>
        <CharString name="Macute">
          1828 1340 -81 callsubr
          -76 callsubr
          -759 -389 25 callsubr
        </CharString>
        <CharString name="Mdotaccent">
          1828 1273 -53 callsubr
          -28 callsubr
          -389 -109 25 callsubr
        </CharString>
        <CharString name="Mdotbelow">
          1828 884 1444 rmoveto
          -503 hlineto
          -15 -67 118 -19 17 -39 -29 -119 rlinecurve
          -220 -916 -40 -161 -28 -37 -129 -19 rlinecurve
          -14 -67 410 0 14 67 -127 19 -12 34 37 165 rlinecurve
          195 915 162 -1200 170 0 208 406 441 812 -188 -1026 -16 -87 -24 -20 -128 -18 rlinecurve
          -14 -67 620 0 -12 callgsubr
          -264 -574 -78 callsubr
        </CharString>
        <CharString name="Mugreek">
          1828 884 1444 25 callsubr
        </CharString>
        <CharString name="N">
          1482 805 1444 -74 callsubr
          173 callsubr
          endchar
        </CharString>
        <CharString name="Nacute">
          1482 1162 -81 callsubr
          -76 callsubr
          -660 -389 -74 callsubr
          173 callsubr
          endchar
        </CharString>
        <CharString name="Ncaron">
          1482 1342 -64 callsubr
          -20 callsubr
          69 callsubr
          -618 -403 -74 callsubr
          173 callsubr
          endchar
        </CharString>
        <CharString name="Ncircumflexbelow">
          104 callsubr
          -871 -817 rmoveto
          252 171 171 -171 74 0 -56 callgsubr
        </CharString>
        <CharString name="Ncommaaccent">
          104 callsubr
          -659 -824 7 callsubr
          -77 -65 -78 callgsubr
          -84 callgsubr
          -66 -47 -41 17 19 -30 hvcurveto
          -13 -58 rlineto
          -45 40 71 -30 82 hhcurveto
          endchar
        </CharString>
        <CharString name="Ndotaccent">
          1482 1094 165 callsubr
          -289 -109 -74 callsubr
          173 callsubr
          endchar
        </CharString>
        <CharString name="Ndotbelow">
          104 callsubr
          -621 -515 -18 callsubr
          12 callsubr
        </CharString>
        <CharString name="Ngrave">
          1482 1072 88 callgsubr
          -352 -93 -74 callsubr
          173 callsubr
          endchar
        </CharString>
        <CharString name="Njecyrillic">
          2203 584 196 rmoveto
          114 539 504 0 -115 -540 rlineto
          -19 -90 -23 -19 -126 -19 -14 -67 rcurveline
          642 hlineto
          435 291 180 285 223 -203 135 -344 hvcurveto
          -165 hlineto
          91 427 96 callgsubr
          116 -19 17 -18 -19 -92 rlinecurve
          -91 -425 -503 0 91 425 19 91 23 19 123 -47 callgsubr
          17 -18 -19 -92 rlinecurve
          -224 -1052 -19 -91 -24 -19 -125 -19 rlinecurve
          -14 -67 619 0 15 67 -113 18 -18 19 20 92 rlinecurve
          1330 288 rmoveto
          -224 -151 -167 -274 -11 vhcurveto
          -86 -3 141 662 99 -2 rlineto
          173 -3 98 -84 -168 vvcurveto
          endchar
        </CharString>
        <CharString name="Nlinebelow">
          104 callsubr
          -926 -723 5 callsubr
        </CharString>
        <CharString name="Ntilde">
          1482 1202 214 callsubr
          -397 -129 -74 callsubr
          173 callsubr
          endchar
        </CharString>
        <CharString name="Nugreek">
          1482 805 1444 -74 callsubr
          173 callsubr
          endchar
        </CharString>
        <CharString name="O">
          1625 898 -24 -99 callsubr
        </CharString>
        <CharString name="OE">
          2023 240 645 rmoveto
          -405 278 -265 392 vhcurveto
          127 70 25 133 hhcurveto
          715 hlineto
          104 425 rlineto
          -60 hlineto
          -107 -258 -99 -70 -253 -11 rrcurveto
          -194 -8 132 619 182 -2 105 -4 20 -43 -5 -165 rlinecurve
          59 hlineto
          106 500 rlineto
          -59 hlineto
          -62 -157 -38 -40 -108 -5 rrcurveto
          -183 -3 125 588 176 -8 239 -12 38 -56 12 -237 rlinecurve
          60 hlineto
          68 391 rlineto
          -767 hlineto
          -139 -77 25 -149 hhcurveto
          -502 -339 -361 -463 hvcurveto
          356 -101 rmoveto
          391 192 444 340 64 51 -11 -16 34 vhcurveto
          -271 -1276 rlineto
          -8 -23 -25 -3 -26 hhcurveto
          -214 -122 178 301 hvcurveto
          endchar
        </CharString>
        <CharString name="Oacute">
          1625 1180 -54 callsubr
          73 0 19 callsubr
          -584 -1857 -99 callsubr
        </CharString>
        <CharString name="Obreve">
          1625 1125 -51 callgsubr
          4 hvcurveto
          -66 hlineto
          -92 -17 -82 50 callsubr
          124 callsubr
          -227 -1593 -99 callsubr
        </CharString>
        <CharString name="Ocaron">
          1625 1360 -25 callsubr
          -26 callsubr
          -542 -1871 -99 callsubr
        </CharString>
        <CharString name="Ocircumflex">
          1625 883 -85 callsubr
          -56 callsubr
          91 -1562 -99 callsubr
        </CharString>
        <CharString name="Ocircumflexacute">
          1625 1460 1843 rmoveto
          32 107 callsubr
          4 callsubr
          120 -1580 -99 callsubr
        </CharString>
        <CharString name="Ocircumflexdotbelow">
          1625 883 -85 callsubr
          -56 callsubr
          91 -1562 144 callsubr
          -68 -225 -78 callsubr
        </CharString>
        <CharString name="Ocircumflexgrave">
          1625 839 26 callgsubr
          120 -1580 -99 callsubr
        </CharString>
        <CharString name="Ocircumflexhookabove">
          1625 1436 10 callgsubr
          -7 -36 -41 -5 callgsubr
          120 -1580 -99 callsubr
        </CharString>
        <CharString name="Ocircumflextilde">
          1625 1267 1789 rmoveto
          113 85 65 122 24 hvcurveto
          -78 hlineto
          -47 -10 -32 -20 -48 -18 callgsubr
          -105 callgsubr
          -122 -25 hvcurveto
          48 callsubr
          -36 callgsubr
          -501 -291 62 callsubr
          120 -1580 -99 callsubr
        </CharString>
        <CharString name="Ocyrillic">
          1625 898 -24 -99 callsubr
        </CharString>
        <CharString name="Odblgrave">
          1625 934 -94 callgsubr
          -361 -1560 -99 callsubr
        </CharString>
        <CharString name="Odieresis">
          1625 945 -43 callsubr
          8 callsubr
          167 callsubr
          -57 -56 -70 -1 hvcurveto
          -65 50 -51 67 vhcurveto
          -381 -1589 -99 callsubr
        </CharString>
        <CharString name="Odieresismacron">
          1625 838 1838 -32 callgsubr
          58 -402 rmoveto
          61 -32 callsubr
          346 hmoveto
          60 -32 callsubr
          -346 -1578 -99 callsubr
        </CharString>
        <CharString name="Odotaccent">
          1625 1112 -52 callsubr
          -69 callsubr
          -61 callsubr
          -214 -1577 -99 callsubr
        </CharString>
        <CharString name="Odotaccentmacron">
          1625 832 1813 rmoveto
          622 hlineto
          25 118 rlineto
          -14 callgsubr
          -213 -1572 -99 callsubr
        </CharString>
        <CharString name="Odotbelow">
          1625 898 -24 144 callsubr
          -68 -225 -78 callsubr
        </CharString>
        <CharString name="Ograve">
          1625 1090 -29 callsubr
          -277 -1561 -99 callsubr
        </CharString>
        <CharString name="Ohookabove">
          1625 1153 92 callsubr
          -255 -1890 -99 callsubr
        </CharString>
        <CharString name="Ohorn">
          1647 235 636 36 callsubr
        </CharString>
        <CharString name="Ohornacute">
          1647 1182 -54 callsubr
          11 callsubr
          -1249 -1197 36 callsubr
        </CharString>
        <CharString name="Ohorndotbelow">
          1647 235 636 rmoveto
          -382 -3 258 -277 409 hhcurveto
          -89 callgsubr
          188 callsubr
          228 -661 109 callsubr
        </CharString>
        <CharString name="Ohorngrave">
          1647 1092 -29 callsubr
          -942 -901 36 callsubr
        </CharString>
        <CharString name="Ohornhookabove">
          1647 1155 92 callsubr
          -920 -1230 36 callsubr
        </CharString>
        <CharString name="Ohorntilde">
          1647 1222 99 callsubr
          168 callsubr
          -987 -937 36 callsubr
        </CharString>
        <CharString name="Ohungarumlaut">
          1625 991 1831 rmoveto
          -99 -294 69 0 268 289 rlineto
          5 vlineto
          104 hmoveto
          -169 -294 75 0 350 289 rlineto
          5 vlineto
          -691 -1855 -99 callsubr
        </CharString>
        <CharString name="Oinvertedbreve">
          1625 1126 47 callsubr
          -6 hvcurveto
          67 hlineto
          92 17 82 55 64 callgsubr
          7 33 33 vvcurveto
          129 -2 -101 102 -154 hhcurveto
          -228 -1917 -99 callsubr
        </CharString>
        <CharString name="Omacron">
          1625 825 46 callsubr
          41 -1781 -99 callsubr
        </CharString>
        <CharString name="Omacronacute">
          1625 1464 25 callgsubr
          88 -1729 -99 callsubr
        </CharString>
        <CharString name="Omacrongrave">
          1625 844 -65 callgsubr
          -90 -428 53 callsubr
          88 -1729 -99 callsubr
        </CharString>
        <CharString name="Omegagreek">
          1699 134 50 callgsubr
          178 233 263 -1 222 0 125 215 callsubr
          14 66 rcurveline
          420 -17 callgsubr
          311 -66 rrcurveto
          -15 -73 -370 3 -82 44 -36 156 rlinecurve
          -55 hlineto
          endchar
        </CharString>
        <CharString name="Omegatonosgreek">
          1926 362 50 callgsubr
          177 233 264 -1 221 0 126 215 callsubr
          13 66 rcurveline
          421 -17 callgsubr
          310 -66 rrcurveto
          -15 -73 -369 3 -82 44 -36 156 rlinecurve
          -55 hlineto
          -38 1062 116 callsubr
          endchar
        </CharString>
        <CharString name="Omicrongreek">
          1625 898 -24 -99 callsubr
        </CharString>
        <CharString name="Omicrontonosgreek">
          1842 1116 -24 rmoveto
          479 320 378 453 383 -255 277 -408 -480 -316 -377 -453 -4 hvcurveto
          -383 -2 257 -278 409 hhcurveto
          -756 1468 116 callsubr
          434 -1376 rmoveto
          -171 -109 142 293 401 182 471 282 172 109 -140 -295 -418 -191 -454 -274 hvcurveto
          endchar
        </CharString>
        <CharString name="Oogonek">
          1625 818 112 callsubr
          189 callsubr
        </CharString>
        <CharString name="Oogonekmacron">
          1625 825 46 callsubr
          -39 -2238 rmoveto
          89 73 40 61 35 hvcurveto
          14 66 rlineto
          -16 -17 189 callsubr
        </CharString>
        <CharString name="Oslash">
          1625 899 -23 rmoveto
          -89 callgsubr
          175 callsubr
        </CharString>
        <CharString name="Oslashacute">
          1625 1180 -54 callsubr
          73 0 19 callsubr
          -583 -1856 rmoveto
          -89 callgsubr
          175 callsubr
        </CharString>
        <CharString name="Otilde">
          1625 1220 99 callsubr
          168 callsubr
          -322 -1597 -99 callsubr
        </CharString>
        <CharString name="Otildeacute">
          1625 1464 -64 callgsubr
          392 -220 -23 callsubr
          -7 callsubr
          48 callsubr
          37 hvcurveto
          -99 callgsubr
          -319 -1583 -99 callsubr
        </CharString>
        <CharString name="Otildedieresis">
          1625 974 1805 rmoveto
          61 56 38 53 11 hvcurveto
          55 12 -40 38 -60 111 callsubr
          346 hmoveto
          71 callsubr
          -39 38 -61 111 callsubr
          -80 -246 -23 callsubr
          -7 callsubr
          48 callsubr
          37 hvcurveto
          -99 callgsubr
          -319 -1583 -99 callsubr
        </CharString>
        <CharString name="Otildemacron">
          1625 838 1838 -32 callgsubr
          354 -397 -23 callsubr
          -7 callsubr
          48 callsubr
          37 hvcurveto
          -99 callgsubr
          -319 -1583 -99 callsubr
        </CharString>
        <CharString name="P">
          1379 696 hmoveto
          24 callsubr
        </CharString>
        <CharString name="Pacute">
          1379 1081 -81 callsubr
          -294 72 0 424 287 rlineto
          7 vlineto
          -688 -1833 rmoveto
          24 callsubr
        </CharString>
        <CharString name="Pdotaccent">
          1379 1013 1554 rmoveto
          78 62 61 75 71 -55 56 -74 -77 -63 -61 -76 -71 55 -55 74 hvcurveto
          -317 -1554 rmoveto
          24 callsubr
        </CharString>
        <CharString name="Pecyrillic">
          1605 1448 196 rmoveto
          224 1052 19 93 24 18 125 18 rlinecurve
          14 67 -1498 0 -14 -67 117 -19 17 -18 -19 -92 rlinecurve
          -224 -1052 -19 -92 -23 -18 -127 -19 rlinecurve
          -14 -67 619 0 15 67 -112 18 -17 19 19 92 rlinecurve
          248 1162 532 0 -247 -1162 -19 -93 -23 -18 -123 -18 75 callsubr
          -116 17 -18 19 20 93 rlinecurve
          endchar
        </CharString>
        <CharString name="Phigreek">
          1881 231 712 rmoveto
          -31 -307 218 -178 420 -18 rrcurveto
          -4 -22 -19 -88 -25 -24 -121 -17 rlinecurve
          -12 -61 567 0 13 61 rlineto
          -114 17 -16 24 19 88 4 21 rcurveline
          493 12 300 186 32 329 31 308 -235 174 -405 17 rrcurveto
          5 20 18 88 25 24 121 17 rlinecurve
          12 61 -568 0 -11 -61 114 -16 15 -25 -18 -88 rlinecurve
          -4 -19 -475 -11 -317 -179 -32 -333 rlinecurve
          352 -7 rmoveto
          23 249 142 196 290 9 rrcurveto
          -183 -870 -209 26 -87 158 24 232 rlinecurve
          1021 35 rmoveto
          -25 -253 -139 -193 -294 -9 rrcurveto
          184 870 208 -28 88 -159 -22 -228 rlinecurve
          endchar
        </CharString>
        <CharString name="Pigreek">
          1624 1464 198 rmoveto
          223 1047 19 91 23 23 133 18 rlinecurve
          15 67 -1516 0 -15 -67 126 -20 13 -20 -19 -91 rlinecurve
          -223 -1049 -19 -90 -23 -20 -133 -20 rlinecurve
          -14 -68 632 0 14 68 -120 18 -15 22 20 90 rlinecurve
          246 1162 538 0 -245 -1161 -19 -91 -22 -21 -130 -19 rlinecurve
          -14 -67 631 0 14 67 -126 18 -13 22 19 91 rlinecurve
          endchar
        </CharString>
        <CharString name="Psigreek">
          1873 607 hmoveto
          633 hlineto
          14 67 rlineto
          -135 19 -19 23 19 87 65 309 rcurveline
          360 14 190 118 134 369 72 199 rcurveline
          46 124 35 31 93 7 14 68 rcurveline
          4 -31 -63 6 -59 hhcurveto
          -184 -94 -54 -207 -74 hvcurveto
          -74 -203 -96 -266 -79 -102 -172 -22 rlinecurve
          139 655 20 91 24 23 113 17 rlinecurve
          15 67 -569 0 -14 -67 rlineto
          106 -17 15 -23 -20 -91 -139 -655 rcurveline
          -162 22 -34 102 17 266 13 197 rcurveline
          206 13 -72 61 -188 hhcurveto
          -56 -67 -6 -4 -32 hvcurveto
          -15 -68 91 -7 25 -31 -7 -124 rlinecurve
          -13 -199 -23 -368 137 -119 355 -14 rlinecurve
          -65 -309 -19 -87 -27 -24 -142 -18 rlinecurve
          endchar
        </CharString>
        <CharString name="Q">
          1643 1302 -396 rmoveto
          108 98 29 47 68 hvcurveto
          13 62 rlineto
          -124 -9 -85 32 -151 143 -105 98 rcurveline
          351 98 222 325 378 vvcurveto
          71 callgsubr
          vhcurveto
          -2 -326 186 -250 308 -67 165 -172 rcurveline
          -169 164 112 -49 134 hhcurveto
          -428 464 rmoveto
          -172 -108 142 293 401 182 471 282 72 callgsubr
          endchar
        </CharString>
        <CharString name="R">
          1428 1055 hmoveto
          22 callsubr
          endchar
        </CharString>
        <CharString name="Racute">
          1428 1058 -81 callsubr
          -76 callsubr
          -306 -1833 rmoveto
          22 callsubr
          endchar
        </CharString>
        <CharString name="Rcaron">
          1428 1238 -64 callsubr
          -20 callsubr
          69 callsubr
          -264 -1847 rmoveto
          22 callsubr
          endchar
        </CharString>
        <CharString name="Rcommaaccent">
          1428 1055 hmoveto
          22 callsubr
          -444 -1545 7 callsubr
          95 callsubr
          71 -30 82 hhcurveto
          endchar
        </CharString>
        <CharString name="Rdblgrave">
          1428 812 1829 rmoveto
          -235 15 callgsubr
          -82 -1536 rmoveto
          22 callsubr
          endchar
        </CharString>
        <CharString name="Rdotaccent">
          1428 990 165 callsubr
          65 -1553 rmoveto
          22 callsubr
          endchar
        </CharString>
        <CharString name="Rdotbelow">
          1428 1055 hmoveto
          22 callsubr
          -406 -1236 45 callsubr
        </CharString>
        <CharString name="Rdotbelowmacron">
          1428 703 -63 callgsubr
          319 -1757 rmoveto
          22 callsubr
          -406 -1236 45 callsubr
        </CharString>
        <CharString name="Rhogreek">
          1379 696 hmoveto
          24 callsubr
        </CharString>
        <CharString name="Rinvertedbreve">
          1428 1004 47 callsubr
          -83 callgsubr
          63 callgsubr
          51 -1893 rmoveto
          22 callsubr
          endchar
        </CharString>
        <CharString name="Rlinebelow">
          1428 1055 hmoveto
          22 callsubr
          -711 -1444 5 callsubr
        </CharString>
        <CharString name="S">
          1169 597 -26 80 callsubr
          endchar
        </CharString>
        <CharString name="Sacute">
          1169 997 -81 callsubr
          -76 callsubr
          -703 -1859 80 callsubr
          endchar
        </CharString>
        <CharString name="Sacutedotaccent">
          1169 975 1769 rmoveto
          63 41 callgsubr
          63 hhcurveto
          255 -148 rmoveto
          32 150 -659 -178 -12 -56 rlineto
          6 -1563 80 callsubr
          endchar
        </CharString>
        <CharString name="Scaron">
          1169 1177 -64 callsubr
          -20 callsubr
          -88 callgsubr
          -661 -1873 80 callsubr
          endchar
        </CharString>
        <CharString name="Scarondotaccent">
          1169 979 1790 166 callsubr
          52 -41 63 vhcurveto
          293 -12 rmoveto
          -336 -84 -300 84 -12 -58 257 -173 50 0 330 173 rlineto
          -664 -1746 80 callsubr
          endchar
        </CharString>
        <CharString name="Scedilla">
          1169 497 -467 -57 callgsubr
          67 71 rlineto
          319 5 245 179 278 vvcurveto
          162 -78 121 -178 118 vhcurveto
          -98 69 rlineto
          -129 86 -50 72 97 vvcurveto
          128 101 87 147 178 106 -128 -249 11 vhcurveto
          60 hlineto
          59 356 rlineto
          60 -78 -159 55 -194 hhcurveto
          -353 -205 -190 -252 -165 81 -114 176 -117 hvcurveto
          98 -69 rlineto
          131 -88 46 -75 -105 vvcurveto
          -143 -117 -84 -149 -182 -144 120 259 -2 vhcurveto
          -62 hlineto
          -59 -368 78 -50 156 -43 162 -10 rlinecurve
          -122 -131 55 callsubr
          161 callsubr
          endchar
        </CharString>
        <CharString name="Schwa">
          1527 784 -26 rmoveto
          462 322 355 458 419 -265 263 -414 -164 -178 -38 -67 -108 hvcurveto
          -81 -369 rlineto
          63 hlineto
          262 109 169 118 174 hhcurveto
          232 99 -204 -308 -54 -2 -52 -5 -51 hvcurveto
          -950 hlineto
          -22 -62 -15 -76 -75 vvcurveto
          -258 148 -261 426 vhcurveto
          -259 428 rmoveto
          78 10 82 19 60 vhcurveto
          634 2 rlineto
          -336 -47 -147 -225 -209 hhcurveto
          -181 -79 147 192 hvcurveto
          endchar
        </CharString>
        <CharString name="Scircumflex">
          1169 700 1538 rmoveto
          240 141 173 -141 72 0 -130 -29 callgsubr
          -27 -1564 80 callsubr
          endchar
        </CharString>
        <CharString name="Scommaaccent">
          1169 597 -26 80 callsubr
          -116 -440 7 callsubr
          95 callsubr
          71 -30 82 hhcurveto
          endchar
        </CharString>
        <CharString name="Sdotaccent">
          1169 930 -53 callsubr
          -28 callsubr
          -333 -1579 80 callsubr
          endchar
        </CharString>
        <CharString name="Sdotbelow">
          1169 597 -26 80 callsubr
          -78 -131 -78 callsubr
        </CharString>
        <CharString name="Sdotbelowdotaccent">
          1169 930 -53 callsubr
          -28 callsubr
          -333 -1579 80 callsubr
          -78 -131 -78 callsubr
        </CharString>
        <CharString name="Shacyrillic">
          2364 456 1248 rmoveto
          -224 -1052 -19 -93 -24 -18 -125 -18 rlinecurve
          -14 -67 2252 0 14 67 -116 19 -17 18 19 92 rlinecurve
          224 1052 195 callsubr
          19 93 23 43 callgsubr
        </CharString>
        <CharString name="Shchacyrillic">
          2376 164 callsubr
          1907 hlineto
          223 31 -59 -268 16 hvcurveto
          70 hlineto
          75 414 -193 0 247 1161 195 callsubr
          20 93 22 43 callgsubr
        </CharString>
        <CharString name="Sigmagreek">
          89 callgsubr
          -64 376 -697 -624 -618 -14 -65 1145 0 119 491 rlineto
          -70 hlineto
          -220 -98 -82 -40 -277 hhcurveto
          -420 hlineto
          609 594 5 22 -281 520 311 -8 275 -6 46 -59 6 -223 rlinecurve
          62 hlineto
          endchar
        </CharString>
        <CharString name="Softsigncyrillic">
          1349 201 callsubr
          -357 20 -4 callgsubr
        </CharString>
        <CharString name="T">
          -33 callsubr
          endchar
        </CharString>
        <CharString name="Taugreek">
          -33 callsubr
          endchar
        </CharString>
        <CharString name="Tbar">
          1344 369 702 rmoveto
          282 hlineto
          -109 -508 -18 -88 -25 -20 -143 -19 rlinecurve
          -14 -67 661 0 14 67 -135 19 -17 19 19 89 rlinecurve
          108 508 283 0 16 76 -283 0 125 588 41 -2 223 -15 59 -64 1 -232 rlinecurve
          61 hlineto
          67 391 -1215 0 39 callsubr
          -125 -588 rlineto
          -281 hlineto
          endchar
        </CharString>
        <CharString name="Tcaron">
          1344 1275 -64 callsubr
          -20 callsubr
          -88 callgsubr
          229 -403 rmoveto
          -1215 hlineto
          39 callsubr
          110 callsubr
          661 0 14 67 -135 98 callsubr
          endchar
        </CharString>
        <CharString name="Tcedilla">
          1344 596 -101 callgsubr
          108 -86 69 -129 2 hvcurveto
          88 94 1 3 272 0 14 67 -135 98 callsubr
          67 391 -1215 0 39 callsubr
          110 callsubr
          306 0 -142 -155 -12 -56 rlineto
          1 4 23 2 8 hhcurveto
          64 38 -28 -45 -45 -38 -27 -64 -52 -45 17 22 -30 hvcurveto
          -14 -62 rlineto
          -54 44 72 -37 92 hhcurveto
          endchar
        </CharString>
        <CharString name="Tcircumflexbelow">
          -33 callsubr
          -1150 -1512 rmoveto
          252 171 170 -171 75 0 -56 callgsubr
        </CharString>
        <CharString name="Tcommaaccent">
          -33 callsubr
          -938 -1519 7 callsubr
          95 callsubr
          71 -30 82 hhcurveto
          endchar
        </CharString>
        <CharString name="Tdotaccent">
          1344 1028 -53 callsubr
          -28 callsubr
          557 -109 rmoveto
          -1215 hlineto
          39 callsubr
          110 callsubr
          661 0 14 67 -135 98 callsubr
          endchar
        </CharString>
        <CharString name="Tdotbelow">
          -33 callsubr
          -900 -1210 -78 callsubr
        </CharString>
        <CharString name="Tecyrillic">
          -33 callsubr
          endchar
        </CharString>
        <CharString name="Thetagreek">
          1691 912 -26 rmoveto
          467 351 354 441 23 hvcurveto
          23 403 -255 299 -438 -1 -468 -1 -349 -356 -23 -441 rrcurveto
          -401 -24 254 -297 439 hhcurveto
          7 83 rmoveto
          -230 -112 226 366 28 hvcurveto
          401 29 145 337 296 hhcurveto
          233 111 -224 -370 -28 hvcurveto
          -402 -29 -148 -334 -295 hhcurveto
          -243 417 rmoveto
          54 hlineto
          147 52 46 51 91 hhcurveto
          127 hlineto
          90 25 -51 -147 -11 hvcurveto
          53 hlineto
          104 489 rlineto
          -53 hlineto
          -147 -54 -46 -48 -88 hhcurveto
          -127 hlineto
          -89 -25 48 147 8 hvcurveto
          -53 hlineto
          endchar
        </CharString>
        <CharString name="Thorn">
          1383 231 195 rmoveto
          -20 -91 -23 -19 -126 -18 rrcurveto
          -14 -68 623 0 15 68 rlineto
          -115 18 -19 18 20 92 28 134 rcurveline
          162 hlineto
          367 321 150 293 221 -179 148 -358 hvcurveto
          -140 1 22 106 20 91 24 19 125 18 rlinecurve
          14 67 -623 0 -14 -67 115 -18 18 -18 -20 -92 rlinecurve
          641 -450 rmoveto
          -197 -121 -180 -270 -11 vhcurveto
          -87 -3 139 656 84 -2 rlineto
          164 -7 91 -110 -146 vvcurveto
          endchar
        </CharString>
        <CharString name="Tlinebelow">
          -33 callsubr
          -1205 -1418 5 callsubr
        </CharString>
        <CharString name="Tsecyrillic">
          1620 164 callsubr
          1152 hlineto
          225 31 -59 -268 16 hvcurveto
          70 hlineto
          75 414 -195 0 246 1161 20 92 23 18 126 19 rlinecurve
          15 67 -620 0 -14 -67 112 -18 18 -19 -20 -92 rlinecurve
          -247 -1161 -533 0 247 1161 19 93 23 43 callgsubr
        </CharString>
        <CharString name="Tshecyrillic">
          1841 1591 1444 rmoveto
          -1222 hlineto
          208 callsubr
          494 rcurveline
          20 65 68 13 84 hhcurveto
          186 70 -108 -211 -45 hvcurveto
          -86 -402 483 0 15 67 rlineto
          -118 16 -15 20 19 90 36 172 rcurveline
          315 64 -166 149 -335 hhcurveto
          -128 -94 -21 -29 -84 hvcurveto
          73 callgsubr
          endchar
        </CharString>
        <CharString name="U">
          1497 789 -26 -87 callsubr
        </CharString>
        <CharString name="Uacute">
          1497 1225 -81 callsubr
          -76 callsubr
          -739 -1859 -87 callsubr
        </CharString>
        <CharString name="Ubreve">
          1497 1170 1569 rmoveto
          192 108 -26 callgsubr
          -82 50 callsubr
          2 7 hvcurveto
          -66 hlineto
          -11 -27 -6 -33 -33 vvcurveto
          -129 1 101 -102 154 hhcurveto
          -381 -1595 -87 callsubr
        </CharString>
        <CharString name="Ubrevecyrillic">
          1453 1140 1577 rmoveto
          173 152 94 198 57 hvcurveto
          -73 217 callsubr
          -908 -1438 186 callsubr
        </CharString>
        <CharString name="Ucaron">
          1497 1405 -64 callsubr
          -70 callgsubr
          -697 -1873 -87 callsubr
        </CharString>
        <CharString name="Ucircumflex">
          1497 928 -85 callsubr
          -129 -29 callgsubr
          -63 -1564 -87 callsubr
        </CharString>
        <CharString name="Ucircumflexbelow">
          89 callsubr
          -294 -433 -96 callgsubr
          75 0 -125 344 -185 0 -267 -344 rlineto
          endchar
        </CharString>
        <CharString name="Ucyrillic">
          1453 232 139 186 callsubr
        </CharString>
        <CharString name="Udblgrave">
          1497 979 -94 callgsubr
          -515 -1562 -87 callsubr
        </CharString>
        <CharString name="Udieresis">
          1497 990 1565 rmoveto
          70 56 56 69 34 callsubr
          -535 -1591 -87 callsubr
        </CharString>
        <CharString name="Udieresisacute">
          44 callgsubr
          96 -225 88 callsubr
        </CharString>
        <CharString name="Udieresisbelow">
          89 callsubr
          -256 -393 rmoveto
          80 64 61 75 -1 hvcurveto
          71 222 callsubr
          405 hmoveto
          80 64 61 75 -1 hvcurveto
          71 -57 55 -76 -80 -65 -60 -76 1 vhcurveto
          -70 1 57 -56 76 hhcurveto
          endchar
        </CharString>
        <CharString name="Udieresiscaron">
          1497 1541 2008 rmoveto
          -327 -81 -293 81 -13 -56 252 -166 48 0 321 166 rlineto
          -562 -398 88 callsubr
        </CharString>
        <CharString name="Udieresisgrave">
          1497 889 1863 rmoveto
          603 -84 13 57 -585 178 rlineto
          47 -460 88 callsubr
        </CharString>
        <CharString name="Udieresismacron">
          1497 884 1838 53 callsubr
          58 -402 88 callsubr
        </CharString>
        <CharString name="Udotbelow">
          89 callsubr
          -44 -131 -78 callsubr
        </CharString>
        <CharString name="Ugrave">
          1497 1135 -29 callsubr
          -431 -1563 -87 callsubr
        </CharString>
        <CharString name="Uhookabove">
          1497 1198 -31 callgsubr
          115 callgsubr
          -409 -1892 -87 callsubr
        </CharString>
        <CharString name="Uhorn">
          1624 306 627 23 callsubr
        </CharString>
        <CharString name="Uhornacute">
          1624 1232 -54 callsubr
          73 0 19 callsubr
          -1228 -1206 23 callsubr
        </CharString>
        <CharString name="Uhorndotbelow">
          1624 306 627 rmoveto
          -463 -99 261 -190 322 hhcurveto
          341 215 218 355 78 hvcurveto
          187 845 rlineto
          -4 21 23 -2 24 hhcurveto
          160 1 109 77 131 vvcurveto
          95 -59 82 -77 38 vhcurveto
          -65 hlineto
          9 -16 4 -28 -29 vvcurveto
          -162 -110 -131 -209 vhcurveto
          -79 hlineto
          -14 -67 rlineto
          129 -23 12 -31 -29 -140 -128 -624 rcurveline
          -281 -58 -161 -152 -206 hhcurveto
          -207 -91 callgsubr
          3 callgsubr
          275 -1399 -78 callsubr
        </CharString>
        <CharString name="Uhorngrave">
          1624 1142 -29 callsubr
          -921 -910 23 callsubr
        </CharString>
        <CharString name="Uhornhookabove">
          1624 1205 92 callsubr
          -899 -1239 23 callsubr
        </CharString>
        <CharString name="Uhorntilde">
          1624 1272 99 callsubr
          168 callsubr
          -966 -946 23 callsubr
        </CharString>
        <CharString name="Uhungarumlaut">
          1497 1037 1831 1 callgsubr
          -845 -1857 -87 callsubr
        </CharString>
        <CharString name="Uinvertedbreve">
          1497 1171 47 callsubr
          -83 callgsubr
          63 callgsubr
          -382 -1919 -87 callsubr
        </CharString>
        <CharString name="Umacron">
          1497 870 -62 callgsubr
          -114 -1783 -87 callsubr
        </CharString>
        <CharString name="Umacrondieresis">
          1497 1021 1805 rmoveto
          71 callsubr
          -40 38 -60 111 callsubr
          346 hmoveto
          59 56 38 53 12 hvcurveto
          55 11 -39 38 -60 hhcurveto
          -12 hlineto
          -59 -56 -38 -55 -12 hvcurveto
          -53 -12 40 -38 60 hhcurveto
          -491 -218 rmoveto
          577 hlineto
          25 118 rlineto
          -576 hlineto
          -89 -1731 -87 callsubr
        </CharString>
        <CharString name="Uogonek">
          1497 757 112 callsubr
          -25 -10 -27 hhcurveto
          -66 -45 69 97 54 19 53 36 43 hvcurveto
          310 22 195 213 75 336 rrcurveto
          139 620 36 157 23 32 126 21 rlinecurve
          14 67 -404 0 -15 -67 rlineto
          130 -23 11 -31 -30 -156 -122 -607 rcurveline
          -282 -57 -161 -152 -206 hhcurveto
          -208 -91 callgsubr
          54 callgsubr
          107 -21 16 -20 -20 -94 rlinecurve
          -130 -615 -95 -445 238 -193 304 -14 rlinecurve
          -138 -81 -74 -99 -99 vvcurveto
          -103 90 -74 127 vhcurveto
          endchar
        </CharString>
        <CharString name="Upsilondieresisgreek">
          1355 934 1565 rmoveto
          70 56 56 69 78 callgsubr
          334 hmoveto
          70 56 56 69 78 callgsubr
          -805 -386 -75 callsubr
        </CharString>
        <CharString name="Upsilongreek">
          1355 463 1179 -75 callsubr
        </CharString>
        <CharString name="Upsilontonosgreek">
          1791 899 1179 rmoveto
          179 -537 -94 153 callsubr
          124 163 37 30 105 17 rlinecurve
          14 67 -403 0 -15 -67 127 -17 7 174 callsubr
          18 38 128 17 rlinecurve
          14 67 -642 0 -14 -67 91 -16 28 -28 52 -154 rlinecurve
          -539 265 116 callsubr
          endchar
        </CharString>
        <CharString name="Uring">
          1497 917 1725 35 callgsubr
          -85 -109 vhcurveto
          173 -24 rmoveto
          84 44 70 55 40 25 -31 -55 -85 -44 -70 -55 -41 -24 31 56 vhcurveto
          -301 -1727 -87 callsubr
        </CharString>
        <CharString name="Utilde">
          1497 1265 1573 121 callsubr
          -24 -28 -38 hhcurveto
          -26 -22 11 21 -79 callgsubr
          57 callgsubr
          95 callgsubr
          -476 -1599 -87 callsubr
        </CharString>
        <CharString name="Utildeacute">
          44 callgsubr
          392 -220 rmoveto
          112 86 65 121 24 hvcurveto
          -77 hlineto
          -46 -11 -31 -20 -49 -18 callgsubr
          13 -45 -45 11 -52 hhcurveto
          -112 -86 -65 -121 -24 hvcurveto
          78 hlineto
          47 11 31 20 48 hhcurveto
          30 29 -7 -12 38 hvcurveto
          34 -11 rlineto
          -14 46 45 -11 51 hhcurveto
          -474 -1585 -87 callsubr
        </CharString>
        <CharString name="Utildebelow">
          89 callsubr
          63 -401 -95 callgsubr
          -70 hlineto
          -95 -18 220 callsubr
          -46 -45 21 -57 hhcurveto
          -96 -77 -65 -223 -27 hvcurveto
          71 hlineto
          93 17 28 31 42 hhcurveto
          29 1 25 -13 32 -24 31 -22 rcurveline
          -33 45 47 -22 56 hhcurveto
          endchar
        </CharString>
        <CharString name="V">
          105 callgsubr
          endchar
        </CharString>
        <CharString name="Vdotbelow">
          105 callgsubr
          230 -1327 45 callsubr
        </CharString>
        <CharString name="Vecyrillic">
          1413 1426 449 86 callsubr
        </CharString>
        <CharString name="Vtilde">
          1412 1235 1573 rmoveto
          87 1 72 59 25 208 rrcurveto
          -67 hlineto
          -85 -16 -81 callgsubr
          -29 32 callgsubr
          26 28 36 hhcurveto
          27 22 -11 -21 28 hvcurveto
          27 -20 rlineto
          -29 41 42 -20 51 hhcurveto
          -799 -403 rmoveto
          196 callsubr
          endchar
        </CharString>
        <CharString name="W">
          2164 423 1170 -15 callsubr
        </CharString>
        <CharString name="Wacute">
          2164 1614 57 callsubr
          19 callsubr
          -1493 -663 -15 callsubr
        </CharString>
        <CharString name="Wcircumflex">
          2164 1317 -85 callsubr
          -129 -29 callgsubr
          -818 -368 -15 callsubr
        </CharString>
        <CharString name="Wdieresis">
          2164 1379 -43 callsubr
          34 callsubr
          -1290 -395 -15 callsubr
        </CharString>
        <CharString name="Wdotaccent">
          2164 1546 -52 callsubr
          -69 callsubr
          -61 callsubr
          -1123 -383 -15 callsubr
        </CharString>
        <CharString name="Wdotbelow">
          2164 423 1170 rmoveto
          111 -1175 228 0 546 1088 87 -1088 236 0 585 1149 97 190 42 27 106 16 rlinecurve
          14 67 -413 0 -14 -67 126 -16 11 -38 -81 -173 rlinecurve
          -399 -844 -57 860 -11 163 17 28 127 20 rlinecurve
          14 67 -610 0 -14 -67 124 -17 9 -55 -70 -149 rlinecurve
          -400 -850 -58 862 -10 151 21 39 132 19 rlinecurve
          14 67 -635 0 -14 -67 92 -15 31 -28 16 -164 rlinecurve
          605 -1327 rmoveto
          -78 -62 -61 -75 -71 55 -56 74 78 63 70 callsubr
        </CharString>
        <CharString name="Wgrave">
          2164 1524 -29 callsubr
          -1186 -367 -15 callsubr
        </CharString>
        <CharString name="X">
          1365 331 297 21 callsubr
        </CharString>
        <CharString name="Xdieresis">
          1365 962 -43 callsubr
          8 callsubr
          hvcurveto
          -65 -1 50 -51 67 hhcurveto
          334 hmoveto
          69 57 56 69 8 callsubr
          -1 hvcurveto
          -65 50 -51 67 vhcurveto
          -965 -1268 21 callsubr
        </CharString>
        <CharString name="Xdotaccent">
          1365 1129 -52 callsubr
          -69 callsubr
          -61 callsubr
          -798 -1256 21 callsubr
        </CharString>
        <CharString name="Xigreek">
          1348 1578 1444 rmoveto
          -1180 hlineto
          -113 -442 rlineto
          64 hlineto
          185 87 78 33 251 hhcurveto
          350 hlineto
          251 64 -33 -185 9 hvcurveto
          64 hlineto
          -776 -317 rmoveto
          200 102 callgsubr
          -60 hlineto
          -145 -55 -52 -49 -137 hhcurveto
          -200 hlineto
          -138 -31 49 145 7 hvcurveto
          -61 hlineto
          -100 -477 rlineto
          60 hlineto
          147 55 52 50 138 hhcurveto
          563 -685 rmoveto
          122 491 rlineto
          -64 hlineto
          -223 -99 -79 -37 -279 hhcurveto
          -323 hlineto
          -278 -62 37 223 -5 hvcurveto
          -64 hlineto
          -85 -491 rlineto
          endchar
        </CharString>
        <CharString name="Xigreek.1">
          1369 64 hmoveto
          1231 hlineto
          123 491 rlineto
          -65 hlineto
          -223 -99 -78 -37 -279 hhcurveto
          -134 hlineto
          96 454 rlineto
          74 102 callgsubr
          -61 hlineto
          -145 -55 -52 -49 -136 hhcurveto
          -74 hlineto
          95 449 rlineto
          149 hlineto
          251 64 -33 -185 9 hvcurveto
          64 hlineto
          75 442 -1197 0 -113 -442 rlineto
          64 hlineto
          185 88 78 33 251 hhcurveto
          149 hlineto
          -94 -449 rlineto
          -76 hlineto
          -137 -31 49 145 6 hvcurveto
          -60 hlineto
          -101 -477 rlineto
          60 hlineto
          147 56 52 50 138 hhcurveto
          75 hlineto
          -96 -454 rlineto
          -138 hlineto
          -278 -62 37 223 -5 hvcurveto
          -64 hlineto
          endchar
        </CharString>
        <CharString name="Y">
          1355 463 1179 -75 callsubr
        </CharString>
        <CharString name="Yacute">
          1355 1169 -81 callsubr
          -76 callsubr
          -1009 -654 -75 callsubr
        </CharString>
        <CharString name="Ycircumflex">
          1355 872 -85 callsubr
          -129 -29 callgsubr
          -333 -359 -75 callsubr
        </CharString>
        <CharString name="Ydieresis">
          1355 934 1565 rmoveto
          70 56 56 69 78 callgsubr
          334 hmoveto
          70 56 56 69 78 callgsubr
          -805 -386 -75 callsubr
        </CharString>
        <CharString name="Ydotaccent">
          1355 1101 165 callsubr
          -638 -374 -75 callsubr
        </CharString>
        <CharString name="Ydotbelow">
          1355 463 1179 rmoveto
          180 -537 -95 153 callsubr
          125 163 37 30 104 17 rlinecurve
          14 67 -403 0 -14 -67 127 -17 6 174 callsubr
          42 callgsubr
          171 -1336 -18 callsubr
          64 70 callsubr
        </CharString>
        <CharString name="Yericyrillic">
          2026 201 callsubr
          459 -297 -95 callsubr
          -118 19 -15 19 19 91 rlinecurve
          -816 317 -4 callgsubr
        </CharString>
        <CharString name="Ygrave">
          1355 1079 88 callgsubr
          -701 -358 -75 callsubr
        </CharString>
        <CharString name="Yhookabove">
          1355 1142 1866 rmoveto
          -92 -72 -37 -60 -41 hvcurveto
          -11 -49 rlineto
          19 27 41 13 45 hhcurveto
          65 36 -27 -44 -49 -48 -49 -92 -49 hvcurveto
          71 hlineto
          163 50 82 62 84 vvcurveto
          80 -73 56 -101 vhcurveto
          -679 -687 -75 callsubr
        </CharString>
        <CharString name="Yicyrillic">
          726 549 1566 rmoveto
          2 callsubr
          50 -51 66 hvcurveto
          334 hmoveto
          2 callsubr
          49 -51 67 hvcurveto
          -308 -1370 -95 callsubr
          -90 callsubr
        </CharString>
        <CharString name="Ymacron">
          1355 814 -63 callgsubr
          -384 -578 -75 callsubr
        </CharString>
        <CharString name="Ytilde">
          1355 1209 214 callsubr
          -746 -394 -75 callsubr
        </CharString>
        <CharString name="Z">
          1246 1168 hmoveto
          27 callsubr
          endchar
        </CharString>
        <CharString name="Zacute">
          1246 1043 -81 callsubr
          -76 callsubr
          -178 -1833 rmoveto
          27 callsubr
          endchar
        </CharString>
        <CharString name="Zcaron">
          1246 1223 -64 callsubr
          -20 callsubr
          69 callsubr
          -136 -1847 rmoveto
          27 callsubr
          endchar
        </CharString>
        <CharString name="Zcircumflex">
          1246 746 1538 rmoveto
          240 141 172 -141 73 0 -130 -29 callgsubr
          498 -1538 rmoveto
          27 callsubr
          endchar
        </CharString>
        <CharString name="Zdotaccent">
          1246 976 -53 callsubr
          -28 callsubr
          192 -1553 rmoveto
          27 callsubr
          endchar
        </CharString>
        <CharString name="Zdotbelow">
          1246 1168 hmoveto
          27 callsubr
          515 -157 -18 callsubr
          64 70 callsubr
        </CharString>
        <CharString name="Zecyrillic">
          1320 606 -26 rmoveto
          412 311 181 304 189 -169 98 -231 17 hvcurveto
          274 33 206 122 228 vvcurveto
          212 -191 112 -321 -182 -162 -46 -66 -104 vhcurveto
          -83 -347 rlineto
          63 hlineto
          255 103 151 111 173 hhcurveto
          132 73 -97 -136 -207 -128 -150 -231 hvcurveto
          -137 hlineto
          -18 -85 rlineto
          136 hlineto
          187 96 -93 -164 -193 -125 -184 -244 -2 hvcurveto
          -191 -1 -108 144 -8 218 rrcurveto
          -62 hlineto
          -50 -336 rlineto
          -62 83 154 -55 191 hhcurveto
          endchar
        </CharString>
        <CharString name="Zetagreek">
          1246 1168 hmoveto
          27 callsubr
          endchar
        </CharString>
        <CharString name="Zhecyrillic">
          2153 411 hmoveto
          557 693 93 0 -105 -498 -20 -91 -24 -17 -131 -20 rlinecurve
          -15 -67 637 0 14 67 -121 19 -19 18 19 91 rlinecurve
          106 498 94 0 259 -693 402 0 13 64 -56 27 -34 37 -83 214 rlinecurve
          -222 598 240 214 176 157 71 44 130 22 rlinecurve
          14 67 -462 0 -14 -67 127 -20 2 -43 -118 -116 rlinecurve
          -425 -418 -96 -1 100 470 19 91 26 18 130 19 rlinecurve
          14 67 -636 0 -14 -67 122 -16 18 -21 -20 -91 rlinecurve
          -100 -470 -92 0 -256 420 -75 122 30 39 127 17 rlinecurve
          14 67 -468 0 -14 -67 124 -24 56 -37 112 -160 rlinecurve
          145 -204 -478 -602 rlineto
          -175 -217 -48 -43 -67 -26 -14 -64 rcurveline
          endchar
        </CharString>
        <CharString name="Zlinebelow">
          1246 1168 hmoveto
          27 callsubr
          210 -365 5 callsubr
        </CharString>
        <CharString name="a">
          1200 20 callsubr
          -107 callsubr
          -102 callsubr
        </CharString>
        <CharString name="a.dnum">
          745 115 192 80 callgsubr
          -21 -8 vvcurveto
          -71 -5 36 -34 70 hhcurveto
          74 68 33 44 34 hvcurveto
          10 46 rlineto
          -10 -14 -21 -5 -19 hhcurveto
          -27 -11 17 41 -11 callgsubr
          118 -2 45 178 101 hhcurveto
          33 22 -15 -18 7 hvcurveto
          -54 -248 rlineto
          -69 -16 -37 -39 -40 hhcurveto
          -35 -23 25 68 -1 hvcurveto
          endchar
        </CharString>
        <CharString name="a.numr">
          745 259 870 80 callgsubr
          -20 -8 vvcurveto
          -71 -6 37 -35 70 hhcurveto
          74 68 33 44 34 hvcurveto
          10 47 rlineto
          -11 -15 -20 -5 -19 hhcurveto
          -27 -12 17 42 10 hvcurveto
          81 384 -123 0 -74 -63 rlineto
          40 -17 -48 35 -79 hhcurveto
          -174 -124 -158 -204 2 hvcurveto
          208 -10 rmoveto
          117 -2 45 178 101 hhcurveto
          33 22 -15 -18 6 hvcurveto
          -53 -248 rlineto
          -69 -16 -37 -39 -40 hhcurveto
          -35 -23 25 69 -1 hvcurveto
          endchar
        </CharString>
        <CharString name="a.sups">
          745 297 1049 rmoveto
          -130 1 70 -74 97 hhcurveto
          87 70 52 91 32 hvcurveto
          -2 -7 -3 -20 -8 vvcurveto
          -71 -5 36 -34 70 hhcurveto
          74 68 33 43 34 hvcurveto
          10 47 rlineto
          -10 -14 -21 -6 -19 hhcurveto
          -27 -11 17 42 -11 callgsubr
          117 -2 45 178 101 hhcurveto
          33 23 -14 -18 6 hvcurveto
          -54 -249 rlineto
          -68 -16 -37 -39 -40 hhcurveto
          -35 -23 24 69 -1 hvcurveto
          endchar
        </CharString>
        <CharString name="aacute">
          1200 932 -96 callsubr
          -77 callsubr
          -1100 -1154 -105 callsubr
          -107 callsubr
          -102 callsubr
        </CharString>
        <CharString name="abreve">
          1200 862 96 callsubr
          -687 -795 -105 callsubr
          -107 callsubr
          -102 callsubr
        </CharString>
        <CharString name="abreveacute">
          1200 1200 -40 callsubr
          -51 callsubr
          240 -300 -47 callsubr
          8 hvcurveto
          -76 64 callsubr
          -638 -751 -105 callsubr
          -107 callsubr
          -102 callsubr
        </CharString>
        <CharString name="abrevecyrillic">
          1200 821 1155 rmoveto
          175 159 97 205 58 hvcurveto
          -73 22 rlineto
          -165 -51 -117 -82 -137 hhcurveto
          -40 -36 8 13 -29 hvcurveto
          61 10 49 56 68 vvcurveto
          81 -62 59 -77 -89 -59 -68 -86 -128 108 -90 160 vhcurveto
          -646 -802 -105 callsubr
          -107 callsubr
          -102 callsubr
        </CharString>
        <CharString name="abrevedotbelow">
          1200 862 96 callsubr
          -687 -795 -105 callsubr
          -107 callsubr
          44 callsubr
          26 callsubr
          117 -761 -79 callsubr
        </CharString>
        <CharString name="abrevegrave">
          1200 594 103 callgsubr
          181 -576 -47 callsubr
          8 hvcurveto
          -76 64 callsubr
          -638 -751 -105 callsubr
          -107 callsubr
          -102 callsubr
        </CharString>
        <CharString name="abrevehookabove">
          1200 914 1657 rmoveto
          -86 -76 -38 -48 -49 hvcurveto
          -12 -53 rlineto
          16 29 50 15 46 hhcurveto
          102 callsubr
          19 90 rlinecurve
          88 19 -75 55 -109 hhcurveto
          -101 -553 -47 callsubr
          8 hvcurveto
          -76 64 callsubr
          -638 -751 -105 callsubr
          -107 callsubr
          -102 callsubr
        </CharString>
        <CharString name="abrevetilde">
          1200 1007 138 callsubr
          -194 -326 -47 callsubr
          8 hvcurveto
          -76 64 callsubr
          -638 -751 -105 callsubr
          -107 callsubr
          -102 callsubr
        </CharString>
        <CharString name="acaron">
          1200 1127 66 callsubr
          169 callsubr
          -1037 -1169 -105 callsubr
          -107 callsubr
          -102 callsubr
        </CharString>
        <CharString name="acircumflex">
          1200 592 -84 callsubr
          -19 callsubr
          -332 -773 -105 callsubr
          -107 callsubr
          -102 callsubr
        </CharString>
        <CharString name="acircumflexacute">
          1200 1200 -40 callsubr
          -51 callsubr
          -63 -302 -59 callsubr
          -350 -817 -105 callsubr
          -107 callsubr
          -102 callsubr
        </CharString>
        <CharString name="acircumflexdotbelow">
          1200 592 -84 callsubr
          -19 callsubr
          -332 -773 -105 callsubr
          -107 callsubr
          44 callsubr
          26 callsubr
          117 -761 -79 callsubr
        </CharString>
        <CharString name="acircumflexgrave">
          1200 594 103 callgsubr
          -122 -578 -59 callsubr
          -350 -817 -105 callsubr
          -107 callsubr
          -102 callsubr
        </CharString>
        <CharString name="acircumflexhookabove">
          1200 1156 103 callsubr
          102 callsubr
          20 90 rlinecurve
          88 18 159 callsubr
          -350 -817 -105 callsubr
          -107 callsubr
          -102 callsubr
        </CharString>
        <CharString name="acircumflextilde">
          1200 1007 138 callsubr
          -497 -328 -59 callsubr
          -350 -817 -105 callsubr
          -107 callsubr
          -102 callsubr
        </CharString>
        <CharString name="acute">
          1024 866 -96 callsubr
          -83 callsubr
          endchar
        </CharString>
        <CharString name="acutecmb">
          0 354 -96 callsubr
          -83 callsubr
          endchar
        </CharString>
        <CharString name="acutecmb.short">
          0 328 1393 rmoveto
          -193 -76 callsubr
          endchar
        </CharString>
        <CharString name="acutedotaccentcmb">
          19 callgsubr
          240 -179 rmoveto
          38 178 -51 callsubr
          endchar
        </CharString>
        <CharString name="acutedotaccentcmb.short">
          0 399 1769 166 callsubr
          52 -41 63 vhcurveto
          255 -148 rmoveto
          33 150 -659 -178 -12 -56 rlineto
          endchar
        </CharString>
        <CharString name="acyrillic">
          1200 20 callsubr
          -107 callsubr
          -102 callsubr
        </CharString>
        <CharString name="adblgrave">
          1200 636 156 callsubr
          -853 -770 -105 callsubr
          -107 callsubr
          -102 callsubr
        </CharString>
        <CharString name="adieresis">
          1200 635 -24 callsubr
          37 callsubr
          -896 -821 -105 callsubr
          -107 callsubr
          -102 callsubr
        </CharString>
        <CharString name="adieresismacron">
          1200 583 1452 rmoveto
          607 hlineto
          29 139 rlineto
          -606 hlineto
          29 -468 rmoveto
          -41 callsubr
          -41 46 73 callsubr
          -13 -37 callsubr
          363 hmoveto
          -41 callsubr
          -40 46 73 callsubr
          16 callsubr
          -807 -770 -105 callsubr
          -107 callsubr
          -102 callsubr
        </CharString>
        <CharString name="adotaccent">
          1200 852 31 callsubr
          -677 -811 -105 callsubr
          -107 callsubr
          -102 callsubr
        </CharString>
        <CharString name="adotbelow">
          1200 20 callsubr
          -107 callsubr
          44 callsubr
          26 callsubr
          117 -761 -79 callsubr
        </CharString>
        <CharString name="adotmacron">
          1200 581 1439 77 callsubr
          11 callgsubr
          -666 -768 -105 callsubr
          -107 callsubr
          -102 callsubr
        </CharString>
        <CharString name="ae">
          1543 251 783 134 callsubr
        </CharString>
        <CharString name="aeacute">
          1543 1128 -96 callsubr
          -77 callsubr
          -1220 -724 134 callsubr
        </CharString>
        <CharString name="aemacron">
          1543 728 -72 callsubr
          -514 -608 134 callsubr
        </CharString>
        <CharString name="agrave">
          1200 846 -63 callsubr
          -38 callsubr
          -755 -770 -105 callsubr
          -107 callsubr
          -102 callsubr
        </CharString>
        <CharString name="ahookabove">
          1200 905 -21 callsubr
          -13 17 callsubr
          74 -60 callgsubr
          -730 -1164 -105 callsubr
          -107 callsubr
          -102 callsubr
        </CharString>
        <CharString name="ainvertedbreve">
          1200 863 122 callsubr
          172 callsubr
          -67 callgsubr
          -688 -1148 -105 callsubr
          -107 callsubr
          -102 callsubr
        </CharString>
        <CharString name="alphagreek">
          1276 481 -20 177 callsubr
        </CharString>
        <CharString name="alphatonosgreek">
          1276 902 1526 225 callsubr
          -719 -1546 177 callsubr
        </CharString>
        <CharString name="amacron">
          1200 532 -72 callsubr
          -394 -1038 -105 callsubr
          -107 callsubr
          -102 callsubr
        </CharString>
        <CharString name="ampersand">
          1533 121 338 rmoveto
          -203 153 -161 259 169 138 78 155 152 vhcurveto
          169 -207 408 0 11 50 -88 55 -80 82 -101 125 rlinecurve
          -104 130 152 180 141 163 49 33 110 16 rlinecurve
          13 67 -423 0 -14 -67 131 -15 19 -40 -97 -129 rlinecurve
          -121 -158 -275 342 -4 5 -5 6 -4 5 rlinecurve
          252 76 131 109 144 vvcurveto
          170 -143 121 -260 -278 -168 -163 -210 -2 vhcurveto
          -1 -103 38 -97 85 -121 rrcurveto
          -261 -75 -151 -147 -216 vvcurveto
          579 865 rmoveto
          111 67 64 96 100 52 -83 -112 -115 -61 -98 -116 -68 vhcurveto
          -102 136 -36 82 83 vvcurveto
          -285 -738 rmoveto
          125 74 80 85 50 vhcurveto
          13 -17 15 -18 15 -19 335 -410 rcurveline
          -61 -73 -72 -31 -85 hhcurveto
          -175 -132 127 174 hvcurveto
          endchar
        </CharString>
        <CharString name="anoteleiagreek">
          534 443 688 rmoveto
          99 81 76 100 92 -74 74 -100 -99 -81 -75 -101 -92 74 -74 100 hvcurveto
          endchar
        </CharString>
        <CharString name="aogonek">
          1200 20 callsubr
          -107 callsubr
          20 20 1 3 19 hvcurveto
          -201 -119 -75 -92 -100 vvcurveto
          -97 78 -60 113 95 79 42 58 38 vhcurveto
          14 66 rlineto
          -16 -20 -28 -10 -30 hhcurveto
          -46 -34 31 61 99 85 113 160 141 hvcurveto
          1 1 1 1 1 1 14 68 rcurveline
          -22 -29 -40 13 callsubr
          163 760 -185 0 -125 -109 rlineto
          67 -27 -80 62 -136 hhcurveto
          -311 -215 -306 -365 hvcurveto
          322 -20 rmoveto
          238 1 92 341 193 hhcurveto
          65 44 -34 -40 12 hvcurveto
          -100 -468 rlineto
          -154 -37 -19 callgsubr
          endchar
        </CharString>
        <CharString name="approxequal">
          1235 1032 792 51 callgsubr
          113 -1 rlineto
          156 30 82 66 97 161 113 -219 199 hhcurveto
          157 128 115 244 37 hvcurveto
          -113 hlineto
          -153 -30 -83 -66 -94 hhcurveto
          -108 -508 51 callgsubr
          112 -1 rlineto
          156 31 82 66 97 161 114 -218 198 hhcurveto
          156 130 114 244 36 hvcurveto
          -112 hlineto
          -153 -31 -83 -66 -94 hhcurveto
          endchar
        </CharString>
        <CharString name="aring">
          1200 577 1313 rmoveto
          -120 117 -73 144 189 115 -87 callgsubr
          -144 -189 -116 -93 -121 vhcurveto
          191 -28 rmoveto
          95 50 79 61 45 27 -34 -63 -95 -50 -79 -60 -46 -27 35 62 vhcurveto
          -593 -932 -105 callsubr
          -107 callsubr
          -102 callsubr
        </CharString>
        <CharString name="aringacute">
          1200 1201 1505 rmoveto
          38 177 -651 -209 -14 -66 rlineto
          272 91 callgsubr
          -148 hhcurveto
          -69 hlineto
          -148 -111 -55 -84 -18 hvcurveto
          -85 -17 87 -55 148 hhcurveto
          65 65 rmoveto
          -36 hlineto
          -46 -19 31 44 9 hvcurveto
          44 9 34 31 45 hhcurveto
          36 hlineto
          47 20 -31 -44 -10 hvcurveto
          -44 -9 -33 -31 -47 hhcurveto
          -668 -811 -105 callsubr
          -107 callsubr
          -102 callsubr
        </CharString>
        <CharString name="aringbelow">
          1200 20 callsubr
          -107 callsubr
          44 callsubr
          26 callsubr
          -162 -630 200 callsubr
        </CharString>
        <CharString name="asciicircum">
          1244 868 1444 rmoveto
          -543 -590 81 -74 505 525 282 -524 95 72 -292 591 rlineto
          endchar
        </CharString>
        <CharString name="asciitilde">
          1235 978 537 rmoveto
          -159 -113 218 -201 hhcurveto
          -160 -128 -114 -246 -36 hvcurveto
          112 -1 rlineto
          156 31 82 66 97 161 113 -218 199 hhcurveto
          156 129 114 244 37 hvcurveto
          -112 hlineto
          -152 -31 -83 -67 -94 hhcurveto
          endchar
        </CharString>
        <CharString name="asterisk">
          849 714 1473 rmoveto
          -61 -38 -42 -75 -19 0 -20 4 -29 hvcurveto
          28 -185 19 0 106 185 rlineto
          23 40 7 30 25 vvcurveto
          53 -36 37 -52 vhcurveto
          -294 -129 rmoveto
          -56 -38 -44 -49 -46 29 -40 88 -26 hvcurveto
          184 -56 11 16 -89 152 rlineto
          70 -41 -48 23 -40 hhcurveto
          528 -56 rmoveto
          -43 -33 -17 -52 -60 hvcurveto
          -139 -121 7 -17 176 13 rlineto
          132 5 50 44 60 vvcurveto
          50 -36 35 -54 vhcurveto
          -589 -423 rmoveto
          42 32 18 51 61 hvcurveto
          139 122 -7 18 -175 -14 rlineto
          -133 -7 -50 -44 -59 vvcurveto
          -49 37 -36 54 vhcurveto
          622 37 rmoveto
          46 -30 41 -87 25 vhcurveto
          -185 57 -10 -16 89 -152 rlineto
          -72 40 48 -22 41 hhcurveto
          56 38 44 49 hvcurveto
          -388 -223 rmoveto
          60 39 43 75 19 -1 21 -4 28 hvcurveto
          -27 184 -19 0 -106 -184 rlineto
          -24 -41 -7 -29 -25 vvcurveto
          -53 37 -38 52 vhcurveto
          endchar
        </CharString>
        <CharString name="at">
          2071 1497 -303 rmoveto
          -1 69 rlineto
          -80 -131 -145 -22 -159 hhcurveto
          -415 -331 290 470 549 421 379 497 454 310 -266 -409 -348 -219 -201 -180 -82 -31 49 100 21 hvcurveto
          150 700 -148 0 -144 -129 rlineto
          93 -30 -76 58 -114 hhcurveto
          -273 -186 -307 -311 -211 91 -125 155 126 115 87 168 73 hvcurveto
          -4 -23 -3 -25 -17 vvcurveto
          -134 -8 97 -88 174 hhcurveto
          349 249 295 382 448 -360 303 -508 -559 -460 -419 -603 -517 378 -328 453 170 180 41 82 104 hvcurveto
          -522 679 rmoveto
          211 100 311 153 65 40 -48 -82 vhcurveto
          -74 -345 rlineto
          -125 -26 -78 -102 -84 hhcurveto
          -71 -25 71 109 hvcurveto
          endchar
        </CharString>
        <CharString name="atilde">
          1200 978 143 callsubr
          -803 -813 -105 callsubr
          -107 callsubr
          -102 callsubr
        </CharString>
        <CharString name="austral">
          1376 84 388 rmoveto
          226 hlineto
          -68 -126 -81 -151 -36 -29 -108 -15 rlinecurve
          -15 -67 397 0 15 67 -117 16 -21 31 73 144 rlinecurve
          67 130 487 0 14 -144 11 -124 -20 -36 -132 -16 rlinecurve
          -14 -68 606 0 15 68 -96 12 -25 29 -16 134 rlinecurve
          -16 145 227 0 12 58 -246 0 -25 220 318 0 13 58 -338 0 -82 723 -228 0 -390 -723 -335 0 -13 -58 317 0 -119 -220 rlineto
          -244 hlineto
          494 278 rmoveto
          236 454 44 -454 rlineto
          -424 -278 rmoveto
          114 220 316 0 21 -220 rlineto
          endchar
        </CharString>
        <CharString name="austral.tnum">
          1271 98 443 rmoveto
          -13 -58 202 0 -62 -123 -77 -151 -35 -30 -95 -14 rlinecurve
          -14 -67 372 0 14 67 -113 16 -16 28 71 147 rlinecurve
          62 127 428 0 9 -141 7 -125 -19 -35 -125 -16 rlinecurve
          -14 -68 586 0 15 68 -83 11 -23 30 -11 134 rlinecurve
          -12 142 197 0 13 58 -215 0 -18 218 279 0 13 59 -297 0 -60 727 -241 0 -367 -727 -299 0 -13 -59 283 0 -111 -218 rlineto
          241 277 rmoveto
          218 449 27 -449 rlineto
          -380 -277 rmoveto
          106 218 278 0 13 -218 rlineto
          endchar
        </CharString>
        <CharString name="b">
          126 callsubr
          83 callsubr
          endchar
        </CharString>
        <CharString name="backslash">
          760 502 -288 rmoveto
          136 hlineto
          -104 1876 rlineto
          -136 hlineto
          endchar
        </CharString>
        <CharString name="baht">
          -7 callgsubr
          164 -133 113 -283 26 rrcurveto
          47 223 -58 0 -47 -219 rlineto
          1 -24 -26 1 -27 hhcurveto
          -534 hlineto
          -15 -67 rlineto
          119 -18 15 -20 -19 -90 -211 -995 rcurveline
          -18 -88 -23 -21 -127 -18 -14 -67 rcurveline
          558 hlineto
          18 17 0 1 17 hvcurveto
          -46 -220 58 0 47 222 rlineto
          397 24 244 153 248 vvcurveto
          -575 880 rmoveto
          71 -3 rlineto
          29 -1 27 -4 24 -6 -111 -521 rcurveline
          -1 -14 -15 -1 -15 hhcurveto
          -109 hlineto
          432 296 rmoveto
          -138 -77 -109 -142 -36 vhcurveto
          105 491 rlineto
          75 -38 39 -71 -99 vvcurveto
          -448 -373 rmoveto
          107 -2 rlineto
          15 15 -1 -2 14 hvcurveto
          -129 -605 rlineto
          -24 -3 -26 -2 -28 -1 -77 -2 rcurveline
          497 349 rmoveto
          -158 -85 -129 -197 -44 vhcurveto
          124 581 rlineto
          102 -36 56 -91 -123 vvcurveto
          endchar
        </CharString>
        <CharString name="baht.tnum">
          -2 callgsubr
          157 -123 109 -262 25 vhcurveto
          48 223 -58 0 -47 -219 rlineto
          1 -22 -23 1 -24 hhcurveto
          -503 hlineto
          -14 -67 rlineto
          110 -16 15 -23 -19 -89 -211 -995 rcurveline
          -19 -88 -20 -22 -121 -17 -14 -67 rcurveline
          537 hlineto
          12 11 0 11 hhcurveto
          -47 -219 58 0 48 222 rlineto
          377 21 233 153 251 vvcurveto
          -530 880 rmoveto
          65 -3 rlineto
          26 -1 24 -4 22 -5 -111 -522 rcurveline
          -1 -13 -12 -1 -13 hhcurveto
          -102 hlineto
          406 311 rmoveto
          -142 -73 -117 -133 -38 vhcurveto
          104 489 rlineto
          68 -35 34 -66 -91 vvcurveto
          -422 -388 rmoveto
          95 -2 rlineto
          15 14 -2 -2 13 hvcurveto
          -128 -605 rlineto
          -2 -19 -20 -2 -20 hhcurveto
          -83 -3 rlineto
          470 368 rmoveto
          -164 -85 -140 -183 -46 vhcurveto
          123 580 rlineto
          96 -36 49 -86 -108 vvcurveto
          endchar
        </CharString>
        <CharString name="bar">
          760 251 -288 rmoveto
          136 hlineto
          398 1876 rlineto
          -136 hlineto
          endchar
        </CharString>
        <CharString name="bdotaccent">
          1199 687 1604 rmoveto
          91 73 72 89 83 -65 66 -86 -92 -74 -72 -89 -83 65 -66 88 hvcurveto
          551 -953 rmoveto
          235 83 callsubr
          endchar
        </CharString>
        <CharString name="bdotbelow">
          126 callsubr
          83 callsubr
          -355 -1099 78 callsubr
          -1 -72 callgsubr
        </CharString>
        <CharString name="becyrillic">
          1196 1220 555 rmoveto
          251 -158 193 -262 -217 -169 -130 -189 -82 vhcurveto
          6 0 6 7 vvcurveto
          7 281 107 171 383 24 8 1 110 6 9 1 288 16 103 91 51 234 rrcurveto
          -67 hlineto
          -23 -50 -74 -18 -169 -8 rrcurveto
          -563 -21 -306 -411 -532 vvcurveto
          -323 166 -182 279 347 232 261 315 vhcurveto
          -316 116 rmoveto
          -245 -92 -360 -165 -89 -47 82 161 246 92 359 166 88 47 -82 -161 vhcurveto
          endchar
        </CharString>
        <CharString name="betagreek">
          1222 30 -460 rmoveto
          332 hlineto
          102 574 rlineto
          -76 51 111 -59 129 hhcurveto
          281 196 196 251 20 hvcurveto
          23 232 -123 178 -241 24 229 49 120 123 11 165 rrcurveto
          191 16 -137 129 -261 hhcurveto
          -292 -178 -167 -362 -78 hvcurveto
          338 147 rmoveto
          193 42 47 97 109 hhcurveto
          80 50 -69 -157 -14 hvcurveto
          -13 -178 -81 -115 -173 -6 rrcurveto
          -44 -212 179 -6 86 -96 -11 -194 rlinecurve
          -192 -10 -120 -105 -138 hhcurveto
          -79 -66 35 62 -45 hvcurveto
          42 201 149 697 10 45 rrcurveto
          endchar
        </CharString>
        <CharString name="bitcoin">
          -7 callgsubr
          140 -97 103 -204 43 rrcurveto
          51 240 -58 0 -49 -230 rlineto
          9 -58 -64 4 -72 hhcurveto
          -12 hlineto
          46 218 -58 -1 -46 -217 -464 0 -15 -67 119 -18 15 -20 -19 -90 rlinecurve
          -211 -995 -18 -88 -23 -21 -127 -18 rlinecurve
          -14 -67 463 0 -47 -219 59 0 46 219 rlineto
          37 hlineto
          61 57 3 5 55 hvcurveto
          -48 -227 58 0 50 234 rlineto
          324 45 195 146 222 vvcurveto
          -256 639 rmoveto
          -169 -115 -126 -208 -1 vhcurveto
          -109 hlineto
          113 537 71 -3 rlineto
          164 -6 84 -86 -146 vvcurveto
          -84 -642 rmoveto
          -191 -123 -148 -297 -8 vhcurveto
          -77 -2 133 618 107 -2 rlineto
          165 -4 92 -105 -158 vvcurveto
          endchar
        </CharString>
        <CharString name="bitcoin.tnum">
          -2 callgsubr
          134 -89 98 -188 42 vhcurveto
          51 240 -58 0 -49 -229 rlineto
          8 -53 -59 4 -66 hhcurveto
          -28 hlineto
          46 218 -58 -1 -46 -217 -417 0 -14 -67 110 -16 15 -23 -19 -89 rlinecurve
          -211 -995 -19 -88 -20 -22 -121 -17 rlinecurve
          -14 -67 416 0 -47 -219 58 0 47 219 rlineto
          63 hlineto
          51 49 2 5 46 hvcurveto
          -48 -226 59 0 49 232 rlineto
          310 44 187 146 225 vvcurveto
          -238 654 rmoveto
          -173 -108 -137 -196 -1 vhcurveto
          -102 hlineto
          114 537 65 -3 rlineto
          150 -9 77 -77 -137 vvcurveto
          -85 -638 rmoveto
          -196 -122 -160 -265 -9 vhcurveto
          -83 -3 133 618 95 -2 rlineto
          158 -5 84 -102 -141 vvcurveto
          endchar
        </CharString>
        <CharString name="blinebelow">
          126 callsubr
          83 callsubr
          -650 -1036 6 callsubr
        </CharString>
        <CharString name="braceleft">
          760 772 1042 rmoveto
          56 261 rlineto
          141 31 50 62 152 hhcurveto
          17 82 rlineto
          -48 hlineto
          -280 -159 -103 -221 -48 hvcurveto
          -63 -292 rlineto
          -154 -34 -89 -65 -117 hhcurveto
          -16 -81 rlineto
          120 58 -61 -171 -36 hvcurveto
          -74 -348 rlineto
          -240 -50 105 -140 283 hhcurveto
          48 hlineto
          18 82 rlineto
          -161 -6 107 159 34 hvcurveto
          54 251 rlineto
          48 228 -66 135 -220 36 233 25 113 94 47 213 rrcurveto
          endchar
        </CharString>
        <CharString name="braceright">
          760 431 1042 rmoveto
          -44 -213 73 -94 222 -25 -235 -35 -124 -136 -48 -228 -53 -251 rcurveline
          -159 -35 -51 -107 -160 hhcurveto
          -18 -82 rlineto
          48 hlineto
          284 165 140 240 51 hvcurveto
          75 348 rlineto
          171 36 85 61 120 hhcurveto
          17 81 rlineto
          -117 -61 65 154 32 hvcurveto
          61 292 rlineto
          221 45 -114 103 -280 hhcurveto
          -48 hlineto
          -18 -82 rlineto
          152 24 -62 -141 -29 hvcurveto
          endchar
        </CharString>
        <CharString name="bracketleft">
          760 168 -288 rmoveto
          510 hlineto
          18 83 -265 0 365 1710 265 0 17 83 rlineto
          -510 hlineto
          endchar
        </CharString>
        <CharString name="bracketright">
          760 868 1588 rmoveto
          -511 hlineto
          -17 -83 265 0 -365 -1710 -265 0 -17 -83 rlineto
          510 hlineto
          endchar
        </CharString>
        <CharString name="breve">
          1024 795 -50 callgsubr
          8 hvcurveto
          -75 hlineto
          -105 -19 158 callsubr
          169 vhcurveto
          endchar
        </CharString>
        <CharString name="breveacutecmb">
          118 callsubr
          240 -300 -47 callsubr
          -97 callgsubr
        </CharString>
        <CharString name="breveacutecmb.short">
          0 706 1863 rmoveto
          33 151 -659 -178 -12 -56 rlineto
          258 -246 18 callsubr
          101 callsubr
        </CharString>
        <CharString name="brevebelowcmb">
          0 -62 -454 152 callsubr
          -10 -27 -7 -43 callgsubr
        </CharString>
        <CharString name="brevecmb">
          0 283 -50 callgsubr
          8 hvcurveto
          -75 hlineto
          -105 -19 158 callsubr
          169 vhcurveto
          endchar
        </CharString>
        <CharString name="brevecmb.short">
          0 273 1129 rmoveto
          191 109 -26 callgsubr
          -82 -56 -132 hhcurveto
          -108 -74 54 73 7 0 8 2 6 hvcurveto
          -66 hlineto
          -11 -26 -6 -33 -33 vvcurveto
          -129 1 101 -102 154 hhcurveto
          endchar
        </CharString>
        <CharString name="brevecyrilliccmb">
          0 242 1155 rmoveto
          176 158 97 205 59 hvcurveto
          -73 22 rlineto
          -165 -51 -117 -82 -137 hhcurveto
          -41 -35 8 13 -29 hvcurveto
          61 10 49 56 68 vvcurveto
          81 -63 59 -76 -90 -58 -68 -86 -128 108 -90 159 vhcurveto
          endchar
        </CharString>
        <CharString name="brevecyrilliccmb.short">
          0 310 1494 rmoveto
          173 152 93 198 56 hvcurveto
          -72 22 rlineto
          -151 -46 -117 -85 -130 hhcurveto
          -34 -29 5 9 -26 31 callgsubr
          endchar
        </CharString>
        <CharString name="brevegravecmb">
          -73 callgsubr
          181 -576 -47 callsubr
          -97 callgsubr
        </CharString>
        <CharString name="brevegravecmb.short">
          0 86 1863 rmoveto
          603 -83 12 56 -584 178 rlineto
          209 -480 18 callsubr
          101 callsubr
        </CharString>
        <CharString name="brevehookabovecmb">
          0 335 103 callsubr
          102 callsubr
          19 90 rlinecurve
          88 19 -75 55 -110 hhcurveto
          -100 -553 -47 callsubr
          -97 callgsubr
        </CharString>
        <CharString name="brevehookabovecmb.short">
          0 409 2004 rmoveto
          -88 -77 -34 -40 -48 hvcurveto
          -10 -45 rlineto
          14 28 51 12 48 hhcurveto
          71 34 -24 -36 -7 hvcurveto
          -8 -35 -42 -26 -82 -16 rrcurveto
          52 -34 150 23 87 41 16 77 rlinecurve
          76 16 -79 47 -112 hhcurveto
          -83 -470 18 callsubr
          101 callsubr
        </CharString>
        <CharString name="brevetildecmb">
          0 429 1430 rmoveto
          110 86 -86 callgsubr
          38 callsubr
          12 -50 hhcurveto
          -110 -86 -75 -10 callsubr
          44 -13 50 hhcurveto
          -194 -326 -47 callsubr
          -97 callgsubr
        </CharString>
</ttFont>
